<?xml version="1.0" encoding="utf-8"?>
<!-- Generator: Adobe Illustrator 16.0.0, SVG Export Plug-In . SVG Version: 6.00 Build 0)  -->
<!DOCTYPE svg PUBLIC "-//W3C//DTD SVG 1.1//EN" "http://www.w3.org/Graphics/SVG/1.1/DTD/svg11.dtd">
<svg version="1.1" id="Layer_1" xmlns="http://www.w3.org/2000/svg" xmlns:xlink="http://www.w3.org/1999/xlink" x="0px" y="0px"
	 width="76px" height="61px" viewBox="0 0 76 61" enable-background="new 0 0 76 61" xml:space="preserve">
<path fill="#BF9138" d="M75.998,1.726c0-0.952-0.893-1.724-1.836-1.724H48.809c-6.359,0-8.732,2.372-9.322,3.117l-0.16,0.226v0.004
	l-0.502,0.692c-0.002,0-0.002,0-0.002,0c-0.673,0.931-1.259,0.535-1.542,0.23l-0.959-1.204L35.846,2.49
	c-0.798-0.842-2.877-2.488-6.998-2.488H1.837C0.891,0.002,0,0.774,0,1.727V53.48c0,1.029,0.83,1.863,1.853,1.863h21.669
	c7.865,0,11.293,2.983,12.319,4.129l0.587,0.729l0,0c0,0,1.573,1.791,3.23,0l0,0l0.344-0.405l0,0l0.006-0.002l0.439-0.518
	c0.014-0.016,0.115-0.135,0.27-0.293c1.314-1.282,4.592-3.643,11.006-3.643h22.424c1.023,0,1.854-0.834,1.854-1.865V1.726H75.998z
	 M72.057,49.895c0,0.828-0.686,1.494-1.541,1.494H50.607c-8.074,0-10.871,3.15-10.871,3.15l-0.604,0.691l-0.16,0.224
	c-0.002,0-0.002,0-0.002,0c-0.972,1.089-1.751,0.009-1.756,0.003l-0.938-1.002c-0.85-0.854-4.529-3.066-11.23-3.066H5.481
	c-0.851,0-1.538-0.67-1.538-1.494V5.153c0-0.826,0.687-1.495,1.538-1.495h22.693c7.836,0,7.664,6.443,7.745,8.509l-0.003,31.786
	c0,2.261,1.07,2.686,1.675,2.746h0.899c0.615-0.063,1.593-0.43,1.593-2.194V12.438l-0.008,0.33c0.094-2.587,0.1-9.108,7.584-9.108
	h22.854c0.855,0,1.543,0.668,1.543,1.494V49.895L72.057,49.895z"/>
</svg>
