<?xml version="1.0" encoding="utf-8"?>
<!-- Generator: Adobe Illustrator 16.0.0, SVG Export Plug-In . SVG Version: 6.00 Build 0)  -->
<!DOCTYPE svg PUBLIC "-//W3C//DTD SVG 1.1//EN" "http://www.w3.org/Graphics/SVG/1.1/DTD/svg11.dtd">
<svg version="1.1" id="Layer_1" xmlns="http://www.w3.org/2000/svg" xmlns:xlink="http://www.w3.org/1999/xlink" x="0px" y="0px"
	 width="56px" height="67px" viewBox="0 0 56 67" enable-background="new 0 0 56 67" xml:space="preserve">
<path fill="#BF9138" d="M27.979,67c-3.556,0-8.672-1.295-11.5-4.139c-0.265-0.184-1.491-0.2-2.301-0.213
	c-2.063-0.026-4.63-0.063-6.847-1.617c-1.842-1.258-2.203-2.883-2.442-3.957c-0.063-0.289-0.161-0.729-0.241-0.822L4.484,56.16
	c-1.935-1.27-2.678-2.883-3.334-4.307c-0.281-0.607-0.546-1.185-0.9-1.76L0,49.686l0.032-0.479
	c0.385-5.93,8.523-12.639,12.896-16.242c0.621-0.511,1.147-0.945,1.542-1.29l0.378-0.329l-0.035-0.176l0.082-0.328
	c0.342-1.376,1.409-3.715,2.242-5.179c0.305-0.571,0.109-2.956-0.439-4.272c-2.934-2.913-2.819-5.292-2.757-6.584
	c0.006-0.127,0.014-0.285,0.014-0.399c-0.516-0.652-1.731-1.7-2.805-2.625c-2.55-2.198-3.832-3.302-3.523-4.694l0.042-0.192
	l0.091-0.175c2.917-5.638,10.192-6.56,10.5-6.596L19.313,0l0.463,0.961c0.06,0.123,1.332,2.792,2.031,6.341
	c2.574,0.586,4.756,2.273,5.977,4.102c1.218-1.821,3.388-3.504,5.953-4.096c0.645-3.571,2.009-6.257,2.072-6.381l0.475-0.923
	l1.023,0.122c0.312,0.036,7.584,0.958,10.502,6.594L47.9,6.895l0.043,0.193c0.306,1.393-0.976,2.496-3.524,4.694
	c-1.073,0.926-2.29,1.974-2.806,2.625c0,0.114,0.009,0.272,0.015,0.399c0.063,1.292,0.177,3.671-2.756,6.585
	c-0.554,1.316-0.745,3.703-0.423,4.305l0.218,0.461c0.705,1.512,1.584,3.396,1.974,4.578l0.125,0.377l-0.047,0.232l0.379,0.329
	c0.396,0.347,0.928,0.784,1.551,1.3c4.336,3.588,12.414,10.268,13.271,16.113L56,49.629l-0.287,0.467
	c-0.355,0.576-0.62,1.152-0.9,1.76c-0.654,1.426-1.397,3.039-3.334,4.308l-0.246,0.129c-0.088,0.101-0.188,0.541-0.252,0.834
	c-0.236,1.062-0.6,2.664-2.34,3.901c-2.259,1.65-5.025,1.678-7.049,1.697c-0.748,0.008-1.877,0.02-2.158,0.18
	C36.439,65.916,31.385,67,27.979,67z M6.058,53.611c1.272,0.688,1.544,1.912,1.744,2.811c0.199,0.895,0.342,1.541,1.222,2.143
	c1.48,1.037,3.455,1.064,5.195,1.088c1.713,0.025,3.33,0.048,4.371,1.092c2.129,2.139,6.335,3.257,9.391,3.257
	c2.959,0,7.16-1.021,9.389-3.259c0.979-0.985,2.468-0.999,4.191-1.018c1.799-0.018,3.834-0.037,5.338-1.137
	c0.819-0.584,0.974-1.264,1.166-2.125c0.213-0.945,0.5-2.229,1.875-2.878c1.145-0.785,1.572-1.715,2.16-2.989
	c0.223-0.479,0.469-1.014,0.77-1.561c-1.123-4.653-8.51-10.76-12.122-13.746c-0.283-0.234-0.548-0.453-0.791-0.656
	c-1.813,0.909-4.229,1.358-5.97,1.051l-6.205-1.104l-6.205,1.104c-1.737,0.313-4.155-0.142-5.969-1.049
	c-0.242,0.201-0.504,0.418-0.786,0.65c-3.622,2.984-11.037,9.1-11.762,13.688c0.318,0.569,0.572,1.123,0.801,1.621
	C4.453,51.884,4.885,52.82,6.058,53.611z M17.975,30.965c0.473,0.448,1.615,1.248,3.711,1.79l6.094,1.573l6.095-1.573
	c2.046-0.528,3.185-1.304,3.676-1.757c-0.413-1.043-1.079-2.469-1.591-3.566l-0.182-0.388c-1.033-1.923-0.223-5.727,0.515-7.205
	l0.117-0.234l0.188-0.182c2.158-2.061,2.094-3.396,2.043-4.47c-0.035-0.718-0.08-1.688,0.661-2.449
	c0.699-0.872,1.898-1.906,3.167-2.998c0.731-0.631,1.754-1.512,2.29-2.073c-1.772-2.656-5.065-3.734-6.751-4.128
	c-0.474,1.153-1.193,3.187-1.486,5.5l-0.152,1.194l-1.192,0.108c-2.756,0.252-4.897,2.415-5.385,3.88
	c-0.084,0.255-0.328,0.773-0.951,1.046l-0.651,1.312l-1.182-1.188c-0.816-0.248-1.124-0.821-1.24-1.17
	c-0.485-1.465-2.627-3.627-5.384-3.879l-1.161-0.105l-0.178-1.16c-0.354-2.318-1.055-4.357-1.514-5.527
	c-1.694,0.402-4.971,1.491-6.729,4.119c0.536,0.563,1.557,1.442,2.289,2.073c1.267,1.092,2.467,2.126,3.167,2.998
	c0.743,0.762,0.696,1.731,0.662,2.448c-0.052,1.074-0.115,2.41,2.043,4.471l0.189,0.182l0.119,0.235
	c0.734,1.479,1.547,5.282,0.477,7.279C19.064,28.316,18.343,29.9,17.975,30.965z"/>
</svg>
