<?xml version="1.0" encoding="utf-8"?>
<!-- Generator: Adobe Illustrator 16.0.0, SVG Export Plug-In . SVG Version: 6.00 Build 0)  -->
<!DOCTYPE svg PUBLIC "-//W3C//DTD SVG 1.1//EN" "http://www.w3.org/Graphics/SVG/1.1/DTD/svg11.dtd">
<svg version="1.1" id="Layer_1" xmlns="http://www.w3.org/2000/svg" xmlns:xlink="http://www.w3.org/1999/xlink" x="0px" y="0px"
	 width="67px" height="64px" viewBox="0 0 67 64" enable-background="new 0 0 67 64" xml:space="preserve">
<g>
	<g>
		<path fill="#BF9138" d="M65.604,5.564H39.083V1.39c0-0.425-0.191-0.826-0.523-1.088c-0.332-0.264-0.768-0.359-1.185-0.268
			L1.083,8.382C0.449,8.528,0,9.089,0,9.737v47.306c0,0.688,0.501,1.271,1.184,1.376l36.29,5.563C37.544,63.994,37.618,64,37.687,64
			c0.332,0,0.653-0.115,0.91-0.338c0.311-0.262,0.485-0.646,0.485-1.055v-4.174h26.521c0.771,0,1.397-0.623,1.397-1.394V6.954
			C67.001,6.184,66.376,5.564,65.604,5.564z M36.293,60.984L2.792,55.848V10.844l33.501-7.708V60.984z M64.209,55.652H39.083v-5.565
			h18.146c0.77,0,1.395-0.623,1.395-1.392c0-0.771-0.625-1.393-1.395-1.393H39.083v-5.564h18.146c0.77,0,1.395-0.623,1.395-1.393
			c0-0.768-0.625-1.391-1.395-1.391H39.083V33.24c1.775,1.809,4.246,2.932,6.979,2.932c5.39,0,9.771-4.372,9.771-9.738
			c0-0.771-0.623-1.393-1.396-1.393c-0.771,0-1.396,0.623-1.396,1.393c0,3.834-3.131,6.955-6.979,6.955s-6.979-3.119-6.979-6.955
			c0-3.838,3.132-6.958,6.979-6.958c0.771,0,1.396-0.621,1.396-1.392s-0.625-1.391-1.396-1.391c-2.732,0-5.205,1.123-6.979,2.93
			V8.346h25.124v47.308h0.002V55.652z"/>
		<path fill="#BF9138" d="M18.147,19.477h-5.583c-0.771,0-1.396,0.625-1.396,1.392V43.13c0,0.769,0.625,1.394,1.396,1.394
			s1.396-0.625,1.396-1.394v-6.957h4.188c3.846,0,6.979-3.123,6.979-6.957v-2.782C25.126,22.596,21.993,19.477,18.147,19.477z
			 M22.334,29.216c0,2.302-1.879,4.175-4.188,4.175h-4.188V22.259h4.188c2.308,0,4.188,1.873,4.188,4.175V29.216z"/>
		<path fill="#BF9138" d="M58.624,23.65c0-5.371-4.381-9.739-9.77-9.739c-0.771,0-1.396,0.623-1.396,1.392v2.782v5.565
			c0,0.769,0.627,1.392,1.396,1.392h5.582h2.793C57.999,25.042,58.624,24.419,58.624,23.65z M50.25,22.26v-5.427
			c2.731,0.555,4.885,2.705,5.442,5.427H50.25z"/>
	</g>
</g>
</svg>
