<?xml version="1.0" encoding="utf-8"?>
<!-- Generator: Adobe Illustrator 16.0.0, SVG Export Plug-In . SVG Version: 6.00 Build 0)  -->
<!DOCTYPE svg PUBLIC "-//W3C//DTD SVG 1.1//EN" "http://www.w3.org/Graphics/SVG/1.1/DTD/svg11.dtd">
<svg version="1.1" id="Слой_1" xmlns="http://www.w3.org/2000/svg" xmlns:xlink="http://www.w3.org/1999/xlink" x="0px" y="0px"
	 width="52px" height="64px" viewBox="0 0 52 64" enable-background="new 0 0 52 64" xml:space="preserve">
<g id="ghost">
</g>
<g id="bat">
</g>
<g id="monster">
</g>
<g id="jason">
</g>
<g id="grave">
</g>
<g id="skull">
</g>
<g id="cauldron">
</g>
<g id="cleaver">
</g>
<g id="candle">
</g>
<g id="cat">
</g>
<g id="pumkin">
</g>
<g id="eye">
</g>
<g id="vampire">
</g>
<g id="finger">
</g>
<g id="leaf">
</g>
<g id="coffin">
</g>
<g id="broom">
</g>
<g id="moon">
</g>
<g id="poison">
</g>
<g id="sweet">
</g>
<g id="zombie">
</g>
<g id="hat">
</g>
<g>
	<g>
		<path fill="#BF9138" d="M33.238,20.486c-1.59,0.012-2.889,1.295-2.9,2.867s1.273,2.837,2.861,2.828
			c1.594-0.012,2.893-1.295,2.904-2.867S34.834,20.476,33.238,20.486z"/>
		<path fill="#BF9138" d="M18.795,20.46c-1.598,0.012-2.904,1.299-2.914,2.881c-0.01,1.58,1.277,2.852,2.876,2.84
			c1.599-0.01,2.903-1.299,2.914-2.879C21.681,21.722,20.396,20.447,18.795,20.46z"/>
		<path fill="#BF9138" d="M51.348,32.242c-0.404-0.271-0.914-0.314-1.359-0.13l-1.137,0.482L47.658,1.398
			c-0.027-0.701-0.547-1.284-1.238-1.383c-0.691-0.1-1.354,0.313-1.574,0.979c-1.078,3.26-3.01,4.563-5.982,5.721
			c-0.709,0.276-1.486,0.262-2.135-0.043c-6.52-3.055-14.945-3.055-21.467,0c-0.648,0.305-1.428,0.318-2.137,0.043
			c-2.973-1.158-4.903-2.463-5.981-5.721C6.925,0.329,6.265-0.083,5.57,0.015c-0.691,0.1-1.213,0.684-1.238,1.386L3.185,32.612
			l-1.182-0.5c-0.446-0.187-0.957-0.14-1.357,0.13C0.24,32.514,0,32.969,0,33.455C0,54.01,7.088,64,21.666,64h8.666
			C44.91,64,52,54.01,52,33.455C51.992,32.967,51.75,32.512,51.348,32.242z M2.91,35.656l7.209,3.045h0.002
			c3.744,1.57,6.377,4.561,7.041,7.986c0.813,4.129,1.881,9.686,2.617,13.646l0.131,0.697C8.787,60.283,3.343,52.148,2.91,35.656z
			 M29.367,59.801l-0.24,1.289h-6.268l-0.242-1.289c-0.736-3.973-1.81-9.539-2.623-13.672c-0.844-4.381-4.119-8.162-8.76-10.113
			l-5.207-2.199L7.035,6.358c1.477,1.493,3.258,2.371,5.047,3.065c1.437,0.561,3.039,0.517,4.395-0.121
			c5.78-2.703,13.25-2.703,19.029,0c1.357,0.638,2.961,0.682,4.396,0.121c1.793-0.696,3.576-1.574,5.053-3.074l1.051,27.444
			l-5.254,2.219c-4.641,1.953-7.918,5.732-8.762,10.111C31.174,50.262,30.105,55.828,29.367,59.801z M32.074,61.035l0.131-0.697
			c0.736-3.965,1.807-9.52,2.619-13.65c0.662-3.426,3.291-6.41,7.041-7.982l0,0l7.209-3.045
			C48.641,52.148,43.197,60.283,32.074,61.035z"/>
		<path fill="#BF9138" d="M41.881,23.272c0-2.728-1.25-5.164-3.199-6.765c1.506-0.545,2.898-1.31,4.105-2.285
			c0.619-0.502,0.715-1.42,0.217-2.045c-0.502-0.627-1.412-0.728-2.029-0.221c-2.059,1.668-4.814,2.588-7.762,2.588
			c-3.012,0-5.668,1.558-7.223,3.912c-1.553-2.357-4.207-3.912-7.22-3.912c-2.946,0-5.702-0.92-7.761-2.588
			c-0.621-0.507-1.531-0.406-2.031,0.221c-0.501,0.625-0.398,1.543,0.223,2.045c1.205,0.978,2.598,1.742,4.104,2.285
			c-1.95,1.602-3.203,4.037-3.203,6.765c0,4.813,3.888,8.729,8.669,8.729c0.715,0,1.407-0.101,2.071-0.266
			c-0.011,0.003-0.021,0.012-0.033,0.012l4.161,4.188c0.283,0.285,0.65,0.43,1.021,0.43s0.74-0.145,1.021-0.428l4.158-4.188
			c-0.012-0.004-0.021-0.011-0.031-0.013c0.666,0.164,1.355,0.265,2.072,0.265C37.994,32.001,41.881,28.087,41.881,23.272z
			 M18.77,29.091c-3.188,0-5.777-2.609-5.777-5.818s2.592-5.816,5.777-5.816s5.776,2.607,5.776,5.816
			C24.547,26.48,21.957,29.091,18.77,29.091z M25.992,32.852l-2.35-2.367c0.93-0.638,1.727-1.455,2.35-2.396
			c0.621,0.941,1.422,1.76,2.35,2.396L25.992,32.852z M33.213,29.091c-3.186,0-5.775-2.609-5.775-5.818s2.59-5.816,5.775-5.816
			c3.188,0,5.777,2.607,5.777,5.816C38.99,26.48,36.4,29.091,33.213,29.091z"/>
		<ellipse fill="#BF9138" cx="28.879" cy="45.09" rx="1.443" ry="1.455"/>
		<ellipse fill="#BF9138" cx="25.992" cy="50.91" rx="1.443" ry="1.455"/>
		<ellipse fill="#BF9138" cx="23.103" cy="45.092" rx="1.445" ry="1.455"/>
	</g>
	<g id="candy">
	</g>
</g>
</svg>
