<?xml version="1.0" encoding="utf-8"?>
<!-- Generator: Adobe Illustrator 16.0.0, SVG Export Plug-In . SVG Version: 6.00 Build 0)  -->
<!DOCTYPE svg PUBLIC "-//W3C//DTD SVG 1.1//EN" "http://www.w3.org/Graphics/SVG/1.1/DTD/svg11.dtd">
<svg version="1.1" id="Слой_1" xmlns="http://www.w3.org/2000/svg" xmlns:xlink="http://www.w3.org/1999/xlink" x="0px" y="0px"
	 width="83px" height="64px" viewBox="0 0 83 64" enable-background="new 0 0 83 64" xml:space="preserve">
<g>
	<g>
		<path fill="#BE9034" d="M1.184,59.227h80.631c0.65,0,1.185-0.672,1.185-1.5s-0.53-1.5-1.185-1.5h-7.396v-0.893
			c1.555-0.596,2.686-2.248,2.686-4.207c0-2.459-1.768-4.461-3.938-4.461s-3.938,2.002-3.938,4.461c0,1.959,1.129,3.611,2.686,4.207
			v0.893h-3.523c-1-1.43-3.389-5.076-6.049-10.826h0.404c0.648,0,1.176-0.588,1.176-1.313s-0.527-1.313-1.176-1.313h-1.57
			c-1.307-3.064-2.637-6.611-3.865-10.633h1.479c0.648,0,1.176-0.586,1.176-1.311c0-0.727-0.525-1.313-1.176-1.313h-2.244
			c-2.191-7.839-3.939-17.283-4.432-28.266C52.084,0.551,51.508,0,50.802,0c-0.699,0-1.277,0.552-1.311,1.253
			c-0.489,10.975-2.241,20.422-4.436,28.266h-2.236c-0.65,0-1.178,0.588-1.178,1.313s0.526,1.311,1.178,1.311h1.471
			c-1.229,4.022-2.563,7.565-3.87,10.633h-1.56c-0.649,0-1.176,0.588-1.176,1.313c0,0.727,0.526,1.314,1.176,1.314h0.395
			c-2.656,5.748-5.042,9.395-6.041,10.826h-5.699v-0.895c1.555-0.596,2.686-2.246,2.686-4.207c0-2.459-1.766-4.461-3.936-4.461
			c-1.732,0-3.189,1.283-3.713,3.049c-0.524-1.766-1.982-3.049-3.714-3.049s-3.19,1.283-3.715,3.049
			c-0.524-1.766-1.982-3.049-3.714-3.049c-2.17,0-3.936,2.002-3.936,4.461c0,2.012,1.189,3.697,2.808,4.252v0.85H1.183
			C0.53,56.229,0,56.9,0,57.729C0.002,58.555,0.531,59.227,1.184,59.227z M73.167,49.291c0.711,0,1.313,0.84,1.313,1.836
			s-0.602,1.836-1.313,1.836s-1.313-0.84-1.313-1.836S72.456,49.291,73.167,49.291z M43.125,56.227
			c0.744-5.877,5.838-6.375,7.485-6.375l0.256,0.002l0.132-0.002c1.647,0,6.741,0.498,7.485,6.375H43.125z M50.804,15.182
			c0.772,5.25,1.812,10.021,2.979,14.337h-5.958C48.996,25.203,50.032,20.433,50.804,15.182z M47.078,32.144h7.45
			c1.182,3.985,2.462,7.536,3.742,10.631h-1.951l-2.801-8.107c-0.182-0.529-0.682-0.883-1.238-0.883h-2.952
			c-0.56,0-1.058,0.354-1.24,0.883l-2.801,8.107h-1.951C44.617,39.68,45.897,36.129,47.078,32.144z M53.544,42.775h-5.48
			l2.199-6.367h1.082L53.544,42.775z M42.207,45.4h3.776c0.076,0.014,0.148,0.027,0.229,0.027h9.184
			c0.078,0,0.153-0.016,0.229-0.027h3.777c2.268,5.055,4.41,8.682,5.811,10.826h-4.086c-0.429-4.244-2.637-6.434-4.527-7.529
			c-2.283-1.326-4.677-1.469-5.601-1.469l-0.192,0.004l-0.191-0.004c-4.393,0-9.463,2.396-10.131,8.998h-4.084
			C37.796,54.082,39.94,50.455,42.207,45.4z M26.266,49.291c0.711,0,1.312,0.84,1.312,1.836s-0.601,1.836-1.312,1.836
			s-1.312-0.84-1.312-1.836S25.555,49.291,26.266,49.291z M22.551,52.539c0.391,1.316,1.302,2.35,2.462,2.795v0.895h-4.926v-0.895
			C21.249,54.889,22.16,53.855,22.551,52.539z M18.837,49.291c0.711,0,1.312,0.84,1.312,1.836s-0.601,1.836-1.312,1.836
			s-1.312-0.84-1.312-1.836S18.126,49.291,18.837,49.291z M11.409,49.291c0.711,0,1.312,0.84,1.312,1.836s-0.601,1.836-1.312,1.836
			s-1.312-0.84-1.312-1.836S10.698,49.291,11.409,49.291z M12.782,55.291c1.104-0.469,1.963-1.482,2.34-2.752
			c0.392,1.316,1.302,2.35,2.463,2.795v0.893h-4.804L12.782,55.291L12.782,55.291z"/>
		<path fill="#BE9034" d="M81.815,61H1.184c-0.653,0-1.183,0.672-1.183,1.5S0.531,64,1.184,64h80.631C82.466,64,83,63.328,83,62.5
			S82.468,61,81.815,61z"/>
		<path fill="#BE9034" d="M25.634,19.13c5.064,0,9.183-4.119,9.183-9.184s-4.119-9.185-9.183-9.185c-5.063,0-9.184,4.12-9.184,9.185
			S20.57,19.13,25.634,19.13z M25.634,3.387c3.617,0,6.56,2.943,6.56,6.561s-2.943,6.56-6.56,6.56c-3.616,0-6.56-2.942-6.56-6.56
			S22.018,3.387,25.634,3.387z"/>
	</g>
</g>
</svg>
