<?xml version="1.0" encoding="utf-8"?>
<!-- Generator: Adobe Illustrator 16.0.0, SVG Export Plug-In . SVG Version: 6.00 Build 0)  -->
<!DOCTYPE svg PUBLIC "-//W3C//DTD SVG 1.1//EN" "http://www.w3.org/Graphics/SVG/1.1/DTD/svg11.dtd">
<svg version="1.1" id="Слой_1" xmlns="http://www.w3.org/2000/svg" xmlns:xlink="http://www.w3.org/1999/xlink" x="0px" y="0px"
	 width="52px" height="48px" viewBox="0 0 52 48" enable-background="new 0 0 52 48" xml:space="preserve">
<g>
	<rect x="-0.001" fill="none" width="52" height="48"/>
	<path fill="#BF9138" d="M50.837,20.389c-0.816-1.463-2.428-3.168-5.549-3.584c0.006-0.088,0.021-0.174,0.021-0.263
		c0-8.063-4.386-14.05-12.72-12.899c-1.051-2.203-3.293-3.562-6.217-3.629V0.002c-0.026,0-0.047,0-0.074-0.001v0.002
		c-0.026,0-0.054,0.001-0.081,0.001C26.195,0.004,26.171,0,26.146,0c-0.056,0-0.1,0.001-0.149,0.002C25.945,0.001,25.902,0,25.845,0
		c-0.023,0-0.047,0.003-0.07,0.004c-0.027,0-0.055-0.001-0.082-0.001V0.001c-0.025,0-0.047,0.001-0.074,0.001v0.011
		c-2.926,0.068-5.167,1.428-6.219,3.629c-8.334-1.15-12.719,4.837-12.719,12.9c0,0.088,0.016,0.175,0.021,0.263
		c-3.121,0.416-4.731,2.121-5.548,3.584c-1.018,1.82-1.156,3.881-1.156,5.656c0,3.436,2.152,6.008,5.44,6.771
		c0.004,0.021,0.007,0.043,0.013,0.062c0.445,2.326,1.536,7.958,7.197,9.47l-2.401,4.85C9.999,47.66,10.31,48,10.921,48h1.891
		c0.619,0,1.211,0.002,1.629-0.805l2.209-4.459h4.646h0.075h0.109h4.141h0.074h0.607h0.073h4.142h0.108h0.074h4.646l2.209,4.459
		C37.976,48.002,38.567,48,39.187,48h1.894c0.61,0,0.922-0.34,0.672-0.805l-2.399-4.85c5.662-1.512,6.752-7.144,7.196-9.47
		c0.005-0.019,0.009-0.039,0.013-0.062c3.287-0.767,5.44-3.338,5.44-6.771C51.989,24.27,51.854,22.208,50.837,20.389z M21.49,6.357
		c0.189,0.02,0.294,0.004,0.294,0.004c0-3.143,2.721-3.856,3.94-3.899c0.034,0.001,0.076,0.001,0.101,0.002
		c0.045-0.001,0.112-0.002,0.172-0.004c0.06,0.002,0.125,0.003,0.172,0.004c0.024-0.001,0.065-0.001,0.101-0.002
		c1.217,0.042,3.939,0.755,3.939,3.899c0,0,0.106,0.015,0.297-0.004C36.974,4.718,42.97,7.15,42.776,16.542
		c0,0-4.85,0.248-6.381,6.296h-5.771h-0.108h-4.142H26.3h-0.607h-0.074h-4.141h-0.109h-5.771c-1.531-6.048-6.382-6.296-6.382-6.296
		C9.025,7.15,14.927,4.654,21.49,6.357z M45.94,29.848c-2.568-0.066-0.623,10.432-9.67,10.432c-4.646,0-5.461,0-5.574,0
		c-0.014,0-0.02,0-0.02,0c-0.015,0-0.027,0-0.056,0c-0.074,0-0.108,0-0.108,0c-0.189,0-1.81,0-4.143,0c-0.023,0-0.049,0-0.075,0
		c-0.2,0-0.396,0-0.606,0c-0.025,0-0.049,0-0.074,0c-2.333,0-3.95,0-4.141,0c0,0-0.035,0-0.109,0c-0.029,0-0.045,0-0.057,0
		c0,0-0.006,0-0.019,0c-0.115,0-0.929,0-5.575,0c-9.079,0-6.189-9.684-8.916-9.682c-2.009,0.002-4.27-1.731-4.27-4.552
		c0-2.817,0.465-6.89,5.651-6.877c4.521,0.011,5.273,6.128,5.273,6.128h12.162h0.074h0.607h0.073h12.165
		c0,0,0.754-6.117,5.271-6.128c5.279-0.013,5.652,4.06,5.652,6.877C49.458,28.861,47.95,29.896,45.94,29.848z"/>
</g>
</svg>
