<?xml version="1.0" encoding="utf-8"?>
<!-- Generator: Adobe Illustrator 16.0.0, SVG Export Plug-In . SVG Version: 6.00 Build 0)  -->
<!DOCTYPE svg PUBLIC "-//W3C//DTD SVG 1.1//EN" "http://www.w3.org/Graphics/SVG/1.1/DTD/svg11.dtd">
<svg version="1.1" id="Слой_1" xmlns="http://www.w3.org/2000/svg" xmlns:xlink="http://www.w3.org/1999/xlink" x="0px" y="0px"
	 width="69px" height="64px" viewBox="0 0 69 64" enable-background="new 0 0 69 64" xml:space="preserve">
<g>
	<path fill="#BF9138" d="M67.459,27.188c-1.083-1.951-3.221-4.227-7.361-4.779c0.008-0.118,0.026-0.232,0.026-0.352
		c0-10.751-5.817-18.734-16.875-17.2c-1.396-2.937-4.37-4.749-8.253-4.84V0.002c-0.035,0-0.063,0-0.098-0.001v0.003
		c-0.037,0-0.071,0.001-0.107,0.001C34.759,0.005,34.729,0,34.695,0c-0.074,0-0.133,0.002-0.199,0.003
		C34.43,0.002,34.371,0,34.296,0c-0.032,0-0.063,0.005-0.095,0.006c-0.036,0-0.071-0.001-0.105-0.001V0.002
		c-0.035,0-0.063,0.001-0.1,0.001v0.015c-3.883,0.091-6.855,1.904-8.252,4.84C14.686,3.324,8.868,11.306,8.868,22.059
		c0,0.117,0.021,0.232,0.027,0.351c-4.142,0.553-6.278,2.829-7.362,4.778C0.182,29.616,0,32.362,0,34.729
		c0,4.58,2.855,8.01,7.22,9.029c0.005,0.027,0.01,0.057,0.016,0.08c0.59,3.102,2.037,10.609,9.55,12.627l-3.187,6.467
		C13.269,63.549,13.679,64,14.492,64h2.51c0.82,0,1.605,0.004,2.159-1.068l2.932-5.947h6.165h0.1h0.146h5.494h0.1h0.805H35h5.494
		h0.146h0.1h6.166l2.931,5.947C50.391,64.004,51.177,64,51.996,64h2.511c0.813,0,1.224-0.451,0.894-1.068l-3.187-6.467
		c7.513-2.016,8.959-9.523,9.55-12.625c0.006-0.023,0.01-0.053,0.018-0.08C66.143,42.736,69,39.311,69,34.729
		C68.992,32.362,68.811,29.614,67.459,27.188z M28.518,8.479c0.25,0.026,0.391,0.006,0.391,0.006c0-4.191,3.609-5.143,5.229-5.199
		c0.045,0.001,0.102,0.001,0.133,0.003c0.061-0.002,0.149-0.003,0.229-0.005c0.077,0.002,0.167,0.003,0.229,0.005
		c0.033-0.001,0.088-0.002,0.133-0.003c1.619,0.057,5.229,1.007,5.229,5.199c0,0,0.143,0.02,0.393-0.006
		c8.582-2.187,16.541,1.057,16.289,13.58c0,0-6.438,0.33-8.472,8.395h-7.657h-0.146H35h-0.098h-0.805h-0.1h-5.494h-0.146h-7.656
		c-2.031-8.064-8.469-8.395-8.469-8.395C11.978,9.537,19.81,6.209,28.518,8.479z M60.965,39.797
		c-3.408-0.086-0.826,13.91-12.83,13.91c-6.166,0-7.246,0-7.398,0c-0.018,0-0.025,0-0.025,0c-0.016,0-0.035,0-0.07,0
		c-0.102,0-0.146,0-0.146,0c-0.252,0-2.396,0-5.496,0c-0.031,0-0.064,0-0.098,0c-0.267,0-0.526,0-0.805,0c-0.035,0-0.066,0-0.1,0
		c-3.096,0-5.242,0-5.494,0c0,0-0.047,0-0.146,0c-0.037,0-0.059,0-0.072,0c0,0-0.01,0-0.025,0c-0.152,0-1.232,0-7.398,0
		c-12.046,0-8.213-12.912-11.83-12.91c-2.667,0.002-5.666-2.311-5.666-6.066c0-3.755,0.617-9.186,7.499-9.167
		c5.999,0.014,6.998,8.167,6.998,8.167h16.138h0.099H34.9h0.098h16.139c0,0,1-8.156,6.997-8.167c7.007-0.017,7.5,5.412,7.5,9.167
		C65.631,38.486,63.631,39.863,60.965,39.797z"/>
	<rect fill="none" width="69" height="64"/>
</g>
</svg>
