<?xml version="1.0" encoding="utf-8"?>
<!-- Generator: Adobe Illustrator 16.0.0, SVG Export Plug-In . SVG Version: 6.00 Build 0)  -->
<!DOCTYPE svg PUBLIC "-//W3C//DTD SVG 1.1//EN" "http://www.w3.org/Graphics/SVG/1.1/DTD/svg11.dtd">
<svg version="1.1" id="Слой_1" xmlns="http://www.w3.org/2000/svg" xmlns:xlink="http://www.w3.org/1999/xlink" x="0px" y="0px"
	 width="109px" height="122px" viewBox="0 0 109 122" enable-background="new 0 0 109 122" xml:space="preserve">
<path fill="#333333" d="M66.439,47.668c-0.526-0.526-1.376-0.526-1.901,0c-0.526,0.525-0.526,1.375,0,1.901l4.359,4.361H39.953
	v2.689h28.944l-4.362,4.359c-0.525,0.524-0.525,1.375,0,1.902c0.263,0.262,0.606,0.394,0.951,0.394c0.344,0,0.688-0.132,0.95-0.394
	l7.606-7.606L66.439,47.668z"/>
<path fill="#BF9138" d="M49.313,86.201c-0.42,0.421-0.42,1.101,0,1.521c0.42,0.422,1.101,0.422,1.521,0l5.088-5.087v23.156h2.151
	V82.635l5.088,5.09c0.419,0.42,1.101,0.42,1.522,0c0.209-0.21,0.313-0.485,0.313-0.761s-0.104-0.551-0.313-0.761l-7.686-7.686
	L49.313,86.201z"/>
</svg>
