<?xml version="1.0" encoding="utf-8"?>
<!-- Generator: Adobe Illustrator 16.0.0, SVG Export Plug-In . SVG Version: 6.00 Build 0)  -->
<!DOCTYPE svg PUBLIC "-//W3C//DTD SVG 1.1//EN" "http://www.w3.org/Graphics/SVG/1.1/DTD/svg11.dtd">
<svg version="1.1" id="Layer_1" xmlns="http://www.w3.org/2000/svg" xmlns:xlink="http://www.w3.org/1999/xlink" x="0px" y="0px"
	 width="49px" height="48px" viewBox="0 0 49 48" enable-background="new 0 0 49 48" xml:space="preserve">
<g>
	<rect fill="none" width="49" height="48"/>
	<g>
		<path fill="#BF9138" d="M45.309,4H37V1.5C37,0.671,36.328,0,35.5,0S34,0.671,34,1.5V4h-8V1.5C26,0.671,25.328,0,24.5,0
			C23.671,0,23,0.671,23,1.5V4h-9V1.5C14,0.671,13.329,0,12.5,0S11,0.671,11,1.5V4H3.691C1.652,4,0,6.034,0,8.068V44.42
			C0,46.453,1.652,48,3.691,48h41.615C47.348,48,49,46.453,49,44.42V8.068C49,6.034,47.348,4,45.309,4z M46,44.42
			c0,0.381-0.311,0.58-0.691,0.58H3.691C3.311,45,3,44.801,3,44.42V8.068C3,7.688,3.186,7,3.566,7H11v2.5c0,0.829,0.671,1.5,1.5,1.5
			S14,10.329,14,9.5V7h9v2.5c0,0.829,0.671,1.5,1.5,1.5c0.828,0,1.5-0.671,1.5-1.5V7h8v2.5c0,0.829,0.672,1.5,1.5,1.5
			S37,10.329,37,9.5V7h8.309C45.689,7,46,7.688,46,8.068V44.42z"/>
		<rect x="22" y="17" fill="#BF9138" width="5" height="4"/>
		<rect x="22" y="26" fill="#BF9138" width="5" height="4"/>
		<rect x="22" y="35" fill="#BF9138" width="5" height="4"/>
		<rect x="11" y="17" fill="#BF9138" width="5" height="4"/>
		<rect x="11" y="26" fill="#BF9138" width="5" height="4"/>
		<rect x="11" y="35" fill="#BF9138" width="5" height="4"/>
		<rect x="33" y="17" fill="#BF9138" width="5" height="4"/>
		<rect x="33" y="26" fill="#BF9138" width="5" height="4"/>
		<rect x="33" y="35" fill="#BF9138" width="5" height="4"/>
	</g>
</g>
</svg>
