<?xml version="1.0" encoding="utf-8"?>
<!-- Generator: Adobe Illustrator 16.0.0, SVG Export Plug-In . SVG Version: 6.00 Build 0)  -->
<!DOCTYPE svg PUBLIC "-//W3C//DTD SVG 1.1//EN" "http://www.w3.org/Graphics/SVG/1.1/DTD/svg11.dtd">
<svg version="1.1" id="Слой_2" xmlns="http://www.w3.org/2000/svg" xmlns:xlink="http://www.w3.org/1999/xlink" x="0px" y="0px"
	 width="22px" height="20px" viewBox="0 0 22 20" enable-background="new 0 0 22 20" xml:space="preserve">
<path fill="#BF9138" d="M19.285,11.623c0.34,0,0.632-0.229,0.727-0.563l1.963-7.313c0.061-0.229,0.014-0.479-0.129-0.67
	c-0.144-0.189-0.363-0.305-0.599-0.305H5.389L4.85,0.581C4.764,0.238,4.462,0,4.118,0H0.755C0.336,0,0,0.345,0,0.771
	s0.338,0.77,0.754,0.77h2.777l3.111,12.631c-0.906,0.549-1.521,1.543-1.521,2.693C5.121,18.594,6.494,20,8.189,20
	c1.687,0,3.058-1.395,3.065-3.121h3.459C14.723,18.604,16.094,20,17.779,20c1.691,0,3.068-1.404,3.068-3.135
	s-1.375-3.135-3.068-3.135c-1.146,0-2.141,0.65-2.663,1.605h-4.263c-0.527-0.955-1.518-1.605-2.666-1.605
	c-0.033,0-0.065,0.008-0.103,0.01l-0.517-2.111h11.718L19.285,11.623L19.285,11.623z M17.781,15.264
	c0.859,0,1.562,0.717,1.562,1.598s-0.702,1.596-1.562,1.596c-0.861,0-1.563-0.715-1.563-1.596S16.92,15.264,17.781,15.264z
	 M9.752,16.859c0,0.879-0.7,1.596-1.561,1.596c-0.862,0-1.563-0.717-1.563-1.596s0.701-1.596,1.563-1.596
	C9.051,15.264,9.752,15.979,9.752,16.859z M20.262,4.308l-1.55,5.772H7.189L5.768,4.308H20.262z"/>
<line id="XMLID_18_" display="none" fill="none" stroke="#000000" stroke-width="6" stroke-miterlimit="10" x1="476.615" y1="364.02" x2="476.615" y2="178.156"/>
<line id="XMLID_24_" display="none" fill="none" stroke="#000000" stroke-width="6" stroke-miterlimit="10" x1="540.002" y1="364.02" x2="569.119" y2="178.156"/>
<line id="XMLID_25_" display="none" fill="none" stroke="#000000" stroke-width="6" stroke-miterlimit="10" x1="411.951" y1="364.02" x2="382.83" y2="178.156"/>
</svg>
