<?xml version="1.0" encoding="utf-8"?>
<!-- Generator: Adobe Illustrator 16.0.0, SVG Export Plug-In . SVG Version: 6.00 Build 0)  -->
<!DOCTYPE svg PUBLIC "-//W3C//DTD SVG 1.1//EN" "http://www.w3.org/Graphics/SVG/1.1/DTD/svg11.dtd">
<svg version="1.1" id="Слой_2" xmlns="http://www.w3.org/2000/svg" xmlns:xlink="http://www.w3.org/1999/xlink" x="0px" y="0px"
	 width="66px" height="88px" viewBox="387.446 243.14 66 88" enable-background="new 387.446 243.14 66 88" xml:space="preserve">
<path fill="#ABABAB" d="M426.059,305.327c0.347,0,0.647-0.229,0.742-0.563l2.005-7.314c0.063-0.229,0.016-0.479-0.131-0.67
	c-0.146-0.188-0.371-0.303-0.611-0.303h-16.21l-0.552-2.194c-0.086-0.341-0.395-0.581-0.747-0.581h-3.438
	c-0.428,0-0.771,0.347-0.771,0.771s0.345,0.769,0.771,0.769h2.839l3.181,12.635c-0.926,0.547-1.556,1.544-1.556,2.691
	c0,1.729,1.404,3.136,3.136,3.136c1.724,0,3.126-1.396,3.134-3.121h3.535c0.008,1.726,1.41,3.121,3.134,3.121
	c1.729,0,3.136-1.403,3.136-3.136c0-1.729-1.406-3.135-3.136-3.135c-1.173,0-2.188,0.655-2.723,1.609h-4.358
	c-0.538-0.954-1.55-1.609-2.723-1.609c-0.035,0-0.067,0.009-0.104,0.011l-0.529-2.111h11.978L426.059,305.327L426.059,305.327z
	 M424.521,308.969c0.88,0,1.597,0.717,1.597,1.597c0,0.881-0.717,1.597-1.597,1.597c-0.881,0-1.598-0.716-1.598-1.597
	S423.64,308.969,424.521,308.969z M416.315,310.563c0,0.881-0.716,1.597-1.597,1.597c-0.88,0-1.597-0.716-1.597-1.597
	c0-0.88,0.717-1.597,1.597-1.597C415.598,308.969,416.315,309.682,416.315,310.563z M427.056,298.011l-1.584,5.773h-11.777
	l-1.455-5.773H427.056z"/>
<path fill="#BF9138" d="M426.059,275.456c0.347,0,0.647-0.229,0.742-0.563l2.005-7.314c0.063-0.229,0.016-0.479-0.131-0.67
	c-0.146-0.19-0.371-0.303-0.611-0.303h-16.21l-0.552-2.194c-0.086-0.341-0.395-0.581-0.747-0.581h-3.438
	c-0.428,0-0.771,0.345-0.771,0.771c0,0.426,0.345,0.769,0.771,0.769h2.839l3.181,12.634c-0.926,0.546-1.556,1.543-1.556,2.692
	c0,1.729,1.404,3.136,3.136,3.136c1.724,0,3.126-1.396,3.134-3.121h3.535c0.008,1.726,1.41,3.121,3.134,3.121
	c1.729,0,3.136-1.405,3.136-3.136c0-1.729-1.406-3.135-3.136-3.135c-1.173,0-2.188,0.653-2.723,1.608h-4.358
	c-0.538-0.955-1.55-1.608-2.723-1.608c-0.035,0-0.067,0.009-0.104,0.011l-0.529-2.111h11.978L426.059,275.456L426.059,275.456z
	 M424.521,279.096c0.88,0,1.597,0.717,1.597,1.597c0,0.881-0.717,1.597-1.597,1.597c-0.881,0-1.598-0.716-1.598-1.597
	S423.64,279.096,424.521,279.096z M416.315,280.692c0,0.881-0.716,1.597-1.597,1.597c-0.88,0-1.597-0.716-1.597-1.597
	c0-0.88,0.717-1.597,1.597-1.597C415.598,279.096,416.315,279.811,416.315,280.692z M427.056,268.14l-1.584,5.773h-11.777
	l-1.455-5.773H427.056z"/>
<line id="XMLID_18_" display="none" fill="none" stroke="#000000" stroke-width="6" stroke-miterlimit="10" x1="476.615" y1="364.02" x2="476.615" y2="178.156"/>
<line id="XMLID_24_" display="none" fill="none" stroke="#000000" stroke-width="6" stroke-miterlimit="10" x1="540.001" y1="364.02" x2="569.119" y2="178.156"/>
<line id="XMLID_25_" display="none" fill="none" stroke="#000000" stroke-width="6" stroke-miterlimit="10" x1="411.951" y1="364.02" x2="382.83" y2="178.156"/>
</svg>
