<?xml version="1.0" encoding="utf-8"?>
<!-- Generator: Adobe Illustrator 16.0.0, SVG Export Plug-In . SVG Version: 6.00 Build 0)  -->
<!DOCTYPE svg PUBLIC "-//W3C//DTD SVG 1.1//EN" "http://www.w3.org/Graphics/SVG/1.1/DTD/svg11.dtd">
<svg version="1.1" id="Слой_2" xmlns="http://www.w3.org/2000/svg" xmlns:xlink="http://www.w3.org/1999/xlink" x="0px" y="0px"
	 width="29px" height="26px" viewBox="0 0 29 26" enable-background="new 0 0 29 26" xml:space="preserve">
<g>
	<rect fill="none" width="29" height="26"/>
	<path id="header-cart-svg" fill="#BF9138" d="M25.422,15.119c0.447,0,0.84-0.301,0.957-0.736l2.586-9.51c0.082-0.301,0.02-0.623-0.168-0.871
		c-0.189-0.248-0.48-0.393-0.791-0.393H7.102L6.391,0.755C6.279,0.314,5.88,0,5.427,0H0.992C0.443,0,0,0.447,0,1
		c0,0.555,0.443,1,0.992,1h3.66l4.104,16.424c-1.193,0.709-2.005,2.006-2.005,3.5c0,2.248,1.813,4.076,4.043,4.076
		c2.224,0,4.031-1.816,4.041-4.057h4.56C19.402,24.182,21.211,26,23.436,26c2.23,0,4.045-1.828,4.045-4.076
		c0-2.246-1.813-4.074-4.045-4.074c-1.513,0-2.818,0.853-3.513,2.096h-5.618c-0.693-1.243-2-2.096-3.514-2.096
		c-0.044,0-0.085,0.012-0.131,0.014L9.975,15.12L25.422,15.119L25.422,15.119z M23.438,19.852c1.137,0,2.061,0.933,2.061,2.076
		c0,1.145-0.926,2.074-2.061,2.074c-1.136,0-2.06-0.932-2.06-2.074C21.378,20.783,22.302,19.852,23.438,19.852z M12.855,21.926
		c0,1.146-0.924,2.076-2.061,2.076c-1.135,0-2.061-0.932-2.061-2.076c0-1.143,0.926-2.074,2.061-2.074
		C11.932,19.852,12.855,20.781,12.855,21.926z M26.708,5.609l-2.042,7.51H9.477l-1.875-7.51H26.708z"/>
</g>
<line id="XMLID_18_" display="none" fill="none" stroke="#000000" stroke-width="6" stroke-miterlimit="10" x1="476.617" y1="364.02" x2="476.617" y2="178.156"/>
<line id="XMLID_24_" display="none" fill="none" stroke="#000000" stroke-width="6" stroke-miterlimit="10" x1="540.002" y1="364.02" x2="569.121" y2="178.156"/>
<line id="XMLID_25_" display="none" fill="none" stroke="#000000" stroke-width="6" stroke-miterlimit="10" x1="411.951" y1="364.02" x2="382.83" y2="178.156"/>
</svg>
