<?xml version="1.0" encoding="utf-8"?>
<!-- Generator: Adobe Illustrator 16.0.0, SVG Export Plug-In . SVG Version: 6.00 Build 0)  -->
<!DOCTYPE svg PUBLIC "-//W3C//DTD SVG 1.1//EN" "http://www.w3.org/Graphics/SVG/1.1/DTD/svg11.dtd">
<svg version="1.1" id="Слой_1" xmlns="http://www.w3.org/2000/svg" xmlns:xlink="http://www.w3.org/1999/xlink" x="0px" y="0px"
	 width="16px" height="16px" viewBox="0 0 16 16" enable-background="new 0 0 16 16" xml:space="preserve">
<rect fill="none" width="16" height="16"/>
<g>
	<g>
		<path fill="#FFFFFF" d="M16,15c0,0.553-0.447,1-1,1H1c-0.552,0-1-0.447-1-1V1c0-0.552,0.448-1,1-1h14c0.553,0,1,0.448,1,1V15z"/>
		<path fill="#BE9134" d="M15,1v14H1V1H15 M15,0H1C0.448,0,0,0.448,0,1v14c0,0.553,0.448,1,1,1h14c0.553,0,1-0.447,1-1V1
			C16,0.448,15.553,0,15,0L15,0z"/>
	</g>
	<path fill="#BE9134" d="M6.38,12.852c-0.287,0-0.562-0.124-0.751-0.341L2.358,8.785C1.994,8.37,2.035,7.738,2.45,7.374
		C2.865,7.009,3.497,7.05,3.861,7.466l2.467,2.81l6.179-8.063c0.337-0.438,0.964-0.521,1.402-0.186
		c0.438,0.336,0.521,0.964,0.186,1.402l-6.921,9.03c-0.182,0.237-0.461,0.381-0.761,0.391C6.402,12.852,6.392,12.852,6.38,12.852z"
		/>
</g>
</svg>
