<?xml version="1.0" encoding="utf-8"?>
<!-- Generator: Adobe Illustrator 16.0.0, SVG Export Plug-In . SVG Version: 6.00 Build 0)  -->
<!DOCTYPE svg PUBLIC "-//W3C//DTD SVG 1.1//EN" "http://www.w3.org/Graphics/SVG/1.1/DTD/svg11.dtd">
<svg version="1.1" id="Слой_1" xmlns="http://www.w3.org/2000/svg" xmlns:xlink="http://www.w3.org/1999/xlink" x="0px" y="0px"
	 width="16px" height="16px" viewBox="0 0 16 16" enable-background="new 0 0 16 16" xml:space="preserve">
<g>
	<rect fill="none" width="16" height="16"/>
	<path fill="#FFFFFF" d="M16,15c0,0.553-0.447,1-1,1H1c-0.552,0-1-0.447-1-1V1c0-0.552,0.448-1,1-1h14c0.553,0,1,0.448,1,1V15z"/>
	<path fill="#ABABAB" d="M15,1v14H1V1H15 M15,0H1C0.448,0,0,0.448,0,1v14c0,0.553,0.448,1,1,1h14c0.553,0,1-0.447,1-1V1
		C16,0.448,15.553,0,15,0L15,0z"/>
</g>
</svg>
