<?xml version="1.0" encoding="utf-8"?>
<!-- Generator: Adobe Illustrator 16.0.0, SVG Export Plug-In . SVG Version: 6.00 Build 0)  -->
<!DOCTYPE svg PUBLIC "-//W3C//DTD SVG 1.1//EN" "http://www.w3.org/Graphics/SVG/1.1/DTD/svg11.dtd">
<svg version="1.1" id="Слой_1" xmlns="http://www.w3.org/2000/svg" xmlns:xlink="http://www.w3.org/1999/xlink" x="0px" y="0px"
	 width="80.74px" height="64.58px" viewBox="0 0 80.74 64.58" enable-background="new 0 0 80.74 64.58" xml:space="preserve">
<g>
	<path fill="#BE9134" d="M77.35,49.333c0,0-5.955-4.115-15.171-5.759v-4.299c2.73-2.29,5.012-5.77,6.152-9.924
		c1.131-0.822,1.907-2.343,2.16-4.365c0.19-0.812,0.471-2.723-0.656-4.146c-0.191-0.241-0.414-0.443-0.654-0.622l0.164-0.197
		c3.899-4.672,2.151-9.226-0.203-11.501c-2.829-6.115-10.893-6.822-11.246-6.85l-0.039-0.003l-0.039-0.002
		c-0.491-0.024-0.98-0.037-1.454-0.037c-2.954,0-5.198,0.482-6.854,1.082C47.832,1.588,44.457,0,38.758,0
		c-0.535,0-1.087,0.014-1.642,0.041l-0.044,0.002l-0.045,0.004c-0.247,0.02-3.832,0.337-7.284,2.212
		c-1.447-0.371-3.213-0.631-5.366-0.631c-0.474,0-0.963,0.013-1.454,0.037l-0.039,0.002L22.845,1.67
		c-0.354,0.027-8.417,0.734-11.246,6.85c-2.354,2.275-4.103,6.829-0.203,11.501l0.164,0.197c-0.24,0.179-0.463,0.381-0.654,0.622
		c-1.127,1.424-0.847,3.335-0.656,4.146c0.253,2.022,1.029,3.543,2.16,4.365c1.141,4.154,3.422,7.634,6.152,9.924v4.299
		c-9.216,1.644-15.171,5.759-15.171,5.759s-4.27,2.81-3.227,9.493h11.559c-0.458,1.528-0.666,3.433-0.303,5.754h28.575h0.953h28.575
		c0.362-2.321,0.155-4.226-0.303-5.754h11.355C81.619,52.143,77.35,49.333,77.35,49.333z M67.87,24.534c0,0-0.316,2.926-1.673,2.926
		c-0.044,0-0.089-0.002-0.135-0.009c-1.383,6.564-5.934,12.195-11.256,12.195c-0.971,0-1.916-0.211-2.823-0.577
		c1.758-2.44,3.09-5.314,3.886-8.245c1.59-1.19,2.215-3.123,2.352-3.611l0.013-0.044l0.011-0.043
		c0.442-1.796,0.825-3.346-0.188-4.822c-0.159-0.232-0.336-0.432-0.523-0.607c0.937-1.262,1.849-3.323,1.896-5.981
		c0.041,0.001,0.078,0.002,0.119,0.002c4.138,0.037,4.981,2.578,5.12,3.158l0.849,5.733l1.993-2.39
		C68.354,22.767,67.87,24.534,67.87,24.534z M40.515,42.925c-6.008,0-11.147-6.357-12.708-13.769
		c-0.052,0.007-0.103,0.01-0.152,0.01c-1.531,0-1.888-3.304-1.888-3.304s-0.547-1.995,0.406-2.614l2.25,2.697l0.959-6.473
		c0.156-0.655,1.109-3.523,5.78-3.565c6.518-0.06,9.96-0.692,12.001-1.495c1.508,1.21,3.869,3.529,4.695,6.692l1.317,5.042
		l2.318-2.311c0.373,0.41,0.197,1.133-0.168,2.614c0,0-0.609,2.173-2.06,2.4C51.693,36.233,46.508,42.925,40.515,42.925z
		 M46.984,43.907v6.068c-0.189,0.772-2.328,2.213-5.897,2.213s-5.788-1.439-5.977-2.212L35.092,49.9v-5.414
		c1.723,0.862,3.553,1.346,5.423,1.346C42.867,45.832,45.042,45.119,46.984,43.907z M31.663,42.024v3.867
		c-0.168,0.684-2.062,1.959-5.223,1.959s-5.127-1.274-5.294-1.958l-0.017-0.067v-4.796c1.525,0.764,3.146,1.192,4.804,1.192
		c1.692,0,3.271-0.439,4.729-1.173C30.989,41.391,31.322,41.715,31.663,42.024z M49.984,46.819v-5.361
		c0.098-0.1,0.187-0.209,0.282-0.311c1.406,0.675,2.921,1.074,4.54,1.074c1.657,0,3.278-0.429,4.804-1.192v4.796l-0.017,0.067
		c-0.167,0.684-2.133,1.958-5.294,1.958C52.334,47.851,50.859,47.357,49.984,46.819z M56.364,4.203c0.42,0,0.859,0.011,1.315,0.034
		c0,0,7.234,0.57,9.23,5.794c0,0,4.428,3.506,0.369,8.369c0,0-0.968-5.196-7.707-5.259c-0.127-0.001-0.24-0.005-0.364-0.007
		c-0.121-0.649-0.288-1.322-0.523-2.021c-0.158-2.31-1.346-5.151-4.011-6.847C55.203,4.228,55.763,4.203,56.364,4.203z
		 M37.271,2.945c0.516-0.025,1.011-0.038,1.485-0.038c7.213,0,9.816,2.802,9.816,2.802c0.188-0.01,0.371-0.014,0.55-0.014
		c6.58,0,6.58,5.953,6.58,5.953c1.835,4.977-0.238,7.917-0.802,8.591H54.72c-1.641-5.96-7.342-9.274-7.342-9.274
		c-1.055,0.843-3.541,1.955-12.244,2.034c-7.608,0.07-8.701,5.938-8.701,5.938c-4.583-5.491,0.417-9.449,0.417-9.449
		C29.103,3.59,37.271,2.945,37.271,2.945z M13.83,10.031c1.996-5.224,9.23-5.794,9.23-5.794c0.456-0.023,0.896-0.034,1.315-0.034
		c0.907,0,1.708,0.061,2.455,0.146c-0.989,0.934-1.865,2.057-2.5,3.432c-1.304,1.26-2.439,3.142-2.741,5.354
		c-0.143,0.002-0.274,0.006-0.421,0.007c-6.739,0.063-7.707,5.259-7.707,5.259C9.402,13.537,13.83,10.031,13.83,10.031z
		 M14.678,27.451c-0.046,0.007-0.091,0.009-0.135,0.009c-1.356,0-1.673-2.926-1.673-2.926s-0.483-1.768,0.36-2.315l1.993,2.39
		l0.849-5.733c0.139-0.58,0.982-3.121,5.12-3.158c0.153-0.001,0.295-0.005,0.443-0.007c0.273,1.614,1.022,3.327,2.465,5.056
		l0.186,0.223c-0.271,0.202-0.522,0.431-0.738,0.703c-1.272,1.606-0.957,3.765-0.741,4.682c0.286,2.283,1.161,4.001,2.439,4.928
		c0.798,2.907,2.091,5.519,3.692,7.702c-0.962,0.413-1.97,0.644-3.005,0.644C20.611,39.646,16.061,34.016,14.678,27.451z
		 M2.675,56.251c0.196-3.262,2.09-4.699,2.24-4.81l0.016-0.01c0.067-0.047,5.433-3.658,13.631-5.23v0.284
		c0.374,1.53,2.067,2.804,4.386,3.459c-4.958,1.905-7.885,3.918-7.885,3.918s-1.136,0.756-2.17,2.389H2.675z M14.255,61.673
		c0.221-3.683,2.359-5.307,2.529-5.431l0.018-0.011c0.076-0.054,6.133-4.13,15.39-5.905v0.32c0.614,2.515,4.358,4.45,8.896,4.45
		c4.539,0,8.885-1.866,8.897-4.45c0-0.021,0-0.053,0-0.079c4.859,1.07,9.614,2.963,14.213,5.704
		c0.336,0.259,2.281,1.899,2.491,5.401H14.255z M68.052,56.251c-1.035-1.633-2.171-2.389-2.171-2.389
		c-2.709-1.624-5.381-2.92-7.996-3.944c2.271-0.663,3.925-1.923,4.294-3.433v-0.284c8.198,1.572,13.563,5.184,13.631,5.23
		l0.016,0.01c0.15,0.11,2.044,1.548,2.24,4.81H68.052z"/>
	<circle fill="#BE9134" cx="60.386" cy="23.402" r="1.5"/>
	<ellipse fill="#BE9134" cx="45.392" cy="25.25" rx="1.687" ry="1.635"/>
	<ellipse fill="#BE9134" cx="35.553" cy="25.25" rx="1.688" ry="1.635"/>
	<circle fill="#BE9134" cx="20.354" cy="23.402" r="1.5"/>
</g>
</svg>
