<?xml version="1.0" encoding="utf-8"?>
<!-- Generator: Adobe Illustrator 16.0.0, SVG Export Plug-In . SVG Version: 6.00 Build 0)  -->
<!DOCTYPE svg PUBLIC "-//W3C//DTD SVG 1.1//EN" "http://www.w3.org/Graphics/SVG/1.1/DTD/svg11.dtd">
<svg version="1.1" id="Слой_1" xmlns="http://www.w3.org/2000/svg" xmlns:xlink="http://www.w3.org/1999/xlink" x="0px" y="0px"
	 width="65px" height="65px" viewBox="0 0 65 65" enable-background="new 0 0 65 65" xml:space="preserve">
<g>
	<rect fill="none" width="65" height="65"/>
	<path fill="#BF9138" d="M59.286,27.003c-2.667,0-4.89,1.898-5.392,4.417h-6.92c-0.127-3.315-1.358-6.353-3.355-8.736l4.641-4.641
		c2.146,1.529,5.146,1.337,7.071-0.59c2.147-2.147,2.147-5.63,0-7.778c-2.147-2.146-5.63-2.146-7.778,0
		c-1.885,1.887-2.113,4.8-0.688,6.937l-4.641,4.638c-2.32-2.107-5.322-3.472-8.637-3.719v-6.419
		c2.518-0.503,4.416-2.727,4.416-5.392c0-3.038-2.463-5.5-5.5-5.5s-5.5,2.462-5.5,5.5c0,2.725,1.982,4.979,4.584,5.417v6.385
		c-3.441,0.217-6.553,1.632-8.931,3.839l-4.615-4.615c1.529-2.146,1.337-5.145-0.59-7.072c-2.148-2.147-5.63-2.146-7.778,0
		c-2.146,2.147-2.146,5.631,0,7.778c1.886,1.885,4.799,2.114,6.937,0.69l4.667,4.667c-1.936,2.364-3.123,5.353-3.247,8.607h-6.92
		c-0.504-2.517-2.727-4.417-5.393-4.417c-3.038,0-5.5,2.463-5.5,5.5s2.462,5.5,5.5,5.5c2.726,0,4.98-1.982,5.417-4.584h6.939
		c0.314,3.175,1.668,6.039,3.7,8.279l-5.166,5.166c-2.138-1.426-5.051-1.195-6.937,0.688c-2.146,2.147-2.146,5.632,0,7.777
		c2.148,2.146,5.63,2.147,7.778,0c1.927-1.927,2.119-4.925,0.59-7.072l5.167-5.166c2.298,1.925,5.201,3.138,8.376,3.337v7.439
		c-2.6,0.438-4.583,2.691-4.583,5.416c0,3.039,2.463,5.5,5.5,5.5s5.5-2.461,5.5-5.5c0-2.666-1.896-4.889-4.417-5.393v-7.471
		c3.052-0.229,5.848-1.391,8.082-3.221l5.195,5.193c-1.426,2.139-1.195,5.051,0.688,6.938c2.148,2.146,5.631,2.146,7.778,0
		c2.147-2.148,2.147-5.631,0-7.778c-1.927-1.927-4.925-2.118-7.071-0.591l-5.143-5.141c2.095-2.26,3.49-5.172,3.813-8.402h6.939
		c0.439,2.604,2.695,4.586,5.419,4.586c3.038,0,5.5-2.463,5.5-5.5C64.784,29.463,62.324,27.003,59.286,27.003z M32.503,42.478
		c-5.79,0-10.5-4.711-10.5-10.5c0-5.791,4.71-10.5,10.5-10.5s10.5,4.709,10.5,10.5C43.003,37.767,38.292,42.478,32.503,42.478z"/>
</g>
</svg>
