<?xml version="1.0" encoding="utf-8"?>
<!-- Generator: Adobe Illustrator 16.0.0, SVG Export Plug-In . SVG Version: 6.00 Build 0)  -->
<!DOCTYPE svg PUBLIC "-//W3C//DTD SVG 1.1//EN" "http://www.w3.org/Graphics/SVG/1.1/DTD/svg11.dtd">
<svg version="1.1" id="Слой_1" xmlns="http://www.w3.org/2000/svg" xmlns:xlink="http://www.w3.org/1999/xlink" x="0px" y="0px"
	 width="65px" height="65px" viewBox="0 0 65 65" enable-background="new 0 0 65 65" xml:space="preserve">
<path fill="#BF9138" d="M59.285,27.002c-2.666,0-4.889,1.897-5.391,4.417h-6.92c-0.127-3.316-1.359-6.352-3.355-8.736l4.641-4.641
	c2.146,1.529,5.145,1.337,7.07-0.59c2.148-2.147,2.148-5.63,0-7.778c-2.146-2.146-5.629-2.146-7.777,0
	c-1.885,1.887-2.113,4.8-0.689,6.937l-4.639,4.638c-2.322-2.107-5.322-3.472-8.637-3.719v-6.418
	c2.518-0.503,4.416-2.727,4.416-5.392c0-3.038-2.463-5.5-5.5-5.5c-3.036,0-5.499,2.462-5.499,5.5c0,2.725,1.981,4.979,4.583,5.417
	v6.385c-3.439,0.217-6.552,1.632-8.93,3.839l-4.615-4.615c1.529-2.146,1.338-5.145-0.59-7.072c-2.147-2.147-5.63-2.146-7.777,0
	c-2.147,2.147-2.147,5.631,0,7.778c1.886,1.885,4.799,2.114,6.936,0.69l4.667,4.667c-1.935,2.364-3.123,5.353-3.247,8.607h-6.92
	c-0.503-2.517-2.726-4.417-5.392-4.417c-3.038,0-5.5,2.463-5.5,5.5s2.462,5.5,5.5,5.5c2.725,0,4.979-1.982,5.417-4.584h6.938
	c0.315,3.174,1.668,6.039,3.7,8.279l-5.166,5.166c-2.137-1.426-5.05-1.195-6.936,0.688c-2.147,2.147-2.147,5.632,0,7.777
	c2.147,2.147,5.63,2.147,7.777,0c1.928-1.927,2.119-4.925,0.59-7.071l5.167-5.167c2.299,1.925,5.201,3.138,8.376,3.337v7.439
	C28.982,54.302,27,56.558,27,59.28c0,3.039,2.464,5.5,5.5,5.5c3.038,0,5.5-2.461,5.5-5.5c0-2.666-1.896-4.889-4.418-5.391v-7.475
	c3.051-0.229,5.846-1.391,8.082-3.221l5.195,5.193c-1.424,2.139-1.195,5.051,0.689,6.938c2.148,2.146,5.631,2.146,7.777,0
	c2.148-2.148,2.148-5.631,0-7.778c-1.926-1.927-4.924-2.118-7.07-0.591l-5.143-5.141c2.094-2.258,3.49-5.17,3.813-8.402h6.939
	c0.438,2.602,2.693,4.584,5.416,4.584c3.039,0,5.5-2.463,5.5-5.5C64.783,29.462,62.324,27.002,59.285,27.002z M32.502,42.476
	c-5.789,0-10.5-4.709-10.5-10.5c0-5.789,4.711-10.499,10.5-10.499c5.791,0,10.5,4.71,10.5,10.499
	C43.002,37.767,38.291,42.476,32.502,42.476z"/>
</svg>
