<?xml version="1.0" encoding="utf-8"?>
<!-- Generator: Adobe Illustrator 16.0.0, SVG Export Plug-In . SVG Version: 6.00 Build 0)  -->
<!DOCTYPE svg PUBLIC "-//W3C//DTD SVG 1.1//EN" "http://www.w3.org/Graphics/SVG/1.1/DTD/svg11.dtd">
<svg version="1.1" id="Слой_1" xmlns="http://www.w3.org/2000/svg" xmlns:xlink="http://www.w3.org/1999/xlink" x="0px" y="0px"
	 width="48px" height="48px" viewBox="0 0 48 48" enable-background="new 0 0 48 48" xml:space="preserve">
<g>
	<rect fill="none" width="48" height="48"/>
	<rect fill="none" width="48" height="48"/>
	<path fill="#BF9138" d="M43.913,19.914c-1.981,0-3.636,1.412-4.009,3.283H34.76c-0.096-2.467-1.011-4.722-2.496-6.496l3.451-3.45
		c1.596,1.138,3.824,0.994,5.256-0.438c1.598-1.597,1.598-4.186,0-5.781c-1.596-1.596-4.186-1.596-5.781,0
		c-1.4,1.402-1.57,3.567-0.514,5.156l-3.447,3.447c-1.728-1.565-3.959-2.58-6.422-2.765V8.098c1.871-0.373,3.283-2.026,3.283-4.01
		C28.09,1.83,26.26,0,24,0c-2.256,0-4.088,1.83-4.088,4.088c0,2.027,1.475,3.703,3.408,4.028v4.747
		c-2.557,0.161-4.871,1.212-6.638,2.853l-3.432-3.43c1.136-1.597,0.994-3.826-0.438-5.257c-1.597-1.598-4.186-1.597-5.783,0
		c-1.595,1.596-1.595,4.184,0,5.781c1.403,1.4,3.568,1.571,5.156,0.513l3.471,3.47c-1.439,1.759-2.322,3.979-2.414,6.4H8.098
		c-0.375-1.872-2.027-3.282-4.01-3.282C1.831,19.912,0,21.742,0,24c0,2.259,1.831,4.09,4.089,4.09c2.026,0,3.704-1.476,4.027-3.408
		h5.159c0.233,2.36,1.24,4.489,2.75,6.153l-3.84,3.844c-1.59-1.063-3.753-0.892-5.156,0.511c-1.597,1.598-1.597,4.189,0,5.783
		c1.597,1.596,4.186,1.599,5.781,0c1.434-1.433,1.576-3.66,0.439-5.258l3.84-3.842c1.71,1.431,3.868,2.333,6.228,2.479v5.533
		c-1.934,0.322-3.407,2-3.407,4.024c0,2.259,1.833,4.09,4.089,4.09c2.258,0,4.09-1.831,4.09-4.09c0-1.981-1.409-3.638-3.282-4.01
		v-5.555c2.268-0.169,4.346-1.033,6.008-2.394l3.862,3.858c-1.06,1.592-0.89,3.756,0.513,5.158c1.598,1.596,4.187,1.596,5.783,0
		c1.596-1.598,1.596-4.189,0-5.783c-1.435-1.432-3.662-1.573-5.259-0.438l-3.821-3.823c1.557-1.679,2.594-3.844,2.834-6.246h5.157
		c0.325,1.936,2.003,3.406,4.027,3.406c2.26,0,4.089-1.829,4.089-4.088C48,21.739,46.173,19.914,43.913,19.914z M24.002,31.417
		c-4.305,0-7.807-3.502-7.807-7.808c0-4.305,3.501-7.806,7.807-7.806c4.307,0,7.807,3.501,7.807,7.806
		C31.809,27.915,28.307,31.417,24.002,31.417z"/>
</g>
</svg>
