<?xml version="1.0" encoding="utf-8"?>
<!-- Generator: Adobe Illustrator 16.0.0, SVG Export Plug-In . SVG Version: 6.00 Build 0)  -->
<!DOCTYPE svg PUBLIC "-//W3C//DTD SVG 1.1//EN" "http://www.w3.org/Graphics/SVG/1.1/DTD/svg11.dtd">
<svg version="1.1" id="Layer_1" xmlns="http://www.w3.org/2000/svg" xmlns:xlink="http://www.w3.org/1999/xlink" x="0px" y="0px"
	 width="44px" height="52px" viewBox="0 0 44 52" enable-background="new 0 0 44 52" xml:space="preserve">
<g>
	<rect fill="none" width="44" height="52"/>
	<path fill="#BF9138" d="M21.986,52c-2.795,0-6.814-1.004-9.037-3.209c-0.208-0.145-1.172-0.156-1.809-0.166
		c-1.621-0.021-3.639-0.049-5.379-1.254c-1.449-0.979-1.732-2.238-1.92-3.074c-0.05-0.225-0.127-0.563-0.19-0.637l-0.128-0.07
		c-1.521-0.984-2.104-2.238-2.62-3.344c-0.221-0.473-0.428-0.918-0.707-1.365L0,38.564l0.025-0.373
		c0.303-4.603,6.698-9.81,10.132-12.605c0.487-0.396,0.901-0.732,1.212-1l0.297-0.256l-0.025-0.137l0.063-0.254
		c0.269-1.067,1.104-2.883,1.761-4.021c0.239-0.442,0.086-2.293-0.346-3.315c-2.307-2.262-2.217-4.106-2.167-5.109
		c0.005-0.099,0.011-0.222,0.011-0.311c-0.404-0.507-1.359-1.319-2.204-2.038C6.755,7.438,5.75,6.582,5.99,5.5l0.033-0.148
		l0.07-0.136c2.293-4.376,8.01-5.091,8.252-5.12L15.175,0l0.363,0.746c0.047,0.095,1.047,2.167,1.596,4.922
		c2.022,0.455,3.735,1.765,4.695,3.184c0.958-1.414,2.662-2.721,4.678-3.18c0.507-2.771,1.578-4.855,1.627-4.953l0.372-0.716
		l0.807,0.094c0.242,0.028,5.959,0.743,8.252,5.118l0.07,0.137L37.668,5.5c0.24,1.081-0.766,1.938-2.77,3.644
		c-0.846,0.718-1.799,1.53-2.205,2.037c0,0.089,0.009,0.213,0.013,0.311c0.05,1.002,0.14,2.849-2.166,5.109
		c-0.435,1.021-0.585,2.875-0.331,3.342l0.17,0.355c0.555,1.174,1.244,2.635,1.551,3.555l0.098,0.291l-0.034,0.182l0.298,0.256
		c0.311,0.27,0.729,0.607,1.218,1.008c3.409,2.786,9.755,7.969,10.431,12.508L44,38.518l-0.227,0.361
		c-0.278,0.447-0.487,0.895-0.707,1.365c-0.517,1.104-1.101,2.357-2.621,3.342l-0.192,0.102c-0.067,0.076-0.147,0.42-0.196,0.646
		c-0.188,0.822-0.471,2.066-1.838,3.027c-1.775,1.281-3.949,1.303-5.539,1.318c-0.587,0.004-1.476,0.014-1.697,0.139
		C28.632,51.16,24.661,52,21.986,52z M4.762,41.609c1,0.535,1.215,1.481,1.369,2.182c0.157,0.693,0.27,1.195,0.96,1.662
		c1.164,0.805,2.714,0.824,4.083,0.844c1.346,0.02,2.617,0.037,3.434,0.848c1.672,1.66,4.978,2.529,7.379,2.529
		c2.326,0,5.625-0.791,7.377-2.529c0.771-0.766,1.938-0.774,3.295-0.789c1.41-0.014,3.012-0.028,4.193-0.883
		c0.646-0.451,0.765-0.979,0.918-1.646c0.164-0.736,0.392-1.731,1.472-2.233c0.899-0.609,1.237-1.332,1.698-2.32
		c0.174-0.375,0.367-0.787,0.604-1.211c-0.884-3.611-6.688-8.353-9.524-10.67c-0.225-0.183-0.432-0.353-0.621-0.509
		c-1.426,0.705-3.324,1.056-4.69,0.813L21.83,26.84l-4.875,0.855c-1.365,0.242-3.266-0.107-4.689-0.813
		c-0.189,0.156-0.397,0.324-0.617,0.504c-2.847,2.316-8.673,7.063-9.243,10.625c0.25,0.441,0.449,0.871,0.63,1.26
		C3.5,40.27,3.84,40.996,4.762,41.609z M14.124,24.031c0.372,0.349,1.271,0.97,2.917,1.39l4.787,1.222l4.789-1.222
		c1.607-0.409,2.503-1.011,2.889-1.362c-0.324-0.811-0.849-1.916-1.25-2.769l-0.143-0.302c-0.813-1.492-0.174-4.444,0.404-5.592
		l0.092-0.184l0.147-0.141c1.697-1.6,1.646-2.636,1.606-3.469c-0.026-0.558-0.064-1.311,0.521-1.901
		c0.55-0.676,1.491-1.479,2.488-2.327c0.573-0.49,1.377-1.173,1.798-1.608c-1.393-2.063-3.979-2.899-5.305-3.204
		c-0.372,0.895-0.938,2.473-1.168,4.269l-0.119,0.926l-0.938,0.084c-2.166,0.195-3.85,1.875-4.231,3.012
		c-0.065,0.197-0.257,0.601-0.746,0.812l-0.515,1.02l-0.928-0.923c-0.641-0.191-0.883-0.637-0.975-0.907
		c-0.383-1.137-2.064-2.815-4.23-3.012l-0.912-0.082l-0.141-0.899c-0.277-1.799-0.829-3.382-1.189-4.29
		C12.443,2.885,9.869,3.73,8.486,5.77c0.421,0.436,1.224,1.118,1.798,1.607c0.995,0.849,1.938,1.65,2.489,2.327
		c0.584,0.591,0.547,1.344,0.52,1.9c-0.04,0.833-0.091,1.871,1.605,3.47l0.148,0.141l0.092,0.184c0.578,1.146,1.215,4.1,0.375,5.649
		C14.98,21.979,14.414,23.206,14.124,24.031z"/>
</g>
</svg>
