<?xml version="1.0" encoding="utf-8"?>
<!-- Generator: Adobe Illustrator 16.0.0, SVG Export Plug-In . SVG Version: 6.00 Build 0)  -->
<!DOCTYPE svg PUBLIC "-//W3C//DTD SVG 1.1//EN" "http://www.w3.org/Graphics/SVG/1.1/DTD/svg11.dtd">
<svg version="1.1" id="Layer_1" xmlns="http://www.w3.org/2000/svg" xmlns:xlink="http://www.w3.org/1999/xlink" x="0px" y="0px"
	 width="17px" height="16px" viewBox="55.5 56 17 16" enable-background="new 55.5 56 17 16" xml:space="preserve">
<g>
	<rect x="55.5" y="56" fill="none" width="17" height="16"/>
	<g>
		<polygon fill="#BF9138" points="66.758,64.47 66.758,70.001 57.49,70.001 57.49,58.104 66.974,58.104 66.974,58.669 
			68.748,56.886 68.748,56.105 55.5,56.105 55.5,72 68.748,72 68.748,71.109 68.748,62.521 		"/>
		<g>
			<path fill="#BF9138" d="M64.626,65.729l6.872-6.901l-1.813-1.821l-6.872,6.901c-0.037,0.03-0.065,0.07-0.078,0.12l-0.534,2.039
				c-0.001,0.003-0.001,0.008-0.002,0.012c-0.002,0.008-0.003,0.016-0.004,0.023s-0.001,0.015-0.001,0.022
				c0,0.007,0,0.015,0.001,0.021c0.001,0.009,0.002,0.017,0.004,0.024c0.001,0.004,0.001,0.008,0.002,0.012
				c0,0.003,0.002,0.005,0.003,0.008c0.002,0.008,0.005,0.016,0.009,0.023c0.003,0.006,0.005,0.013,0.009,0.019
				c0.003,0.007,0.008,0.013,0.012,0.019s0.008,0.013,0.012,0.019c0.005,0.006,0.01,0.011,0.016,0.016
				c0.005,0.005,0.01,0.01,0.016,0.015s0.012,0.009,0.018,0.013c0.007,0.005,0.013,0.009,0.019,0.012
				c0.007,0.004,0.013,0.007,0.02,0.009c0.008,0.004,0.015,0.007,0.022,0.009c0.003,0.001,0.005,0.003,0.008,0.003
				c0.004,0.001,0.008,0.001,0.012,0.002c0.008,0.002,0.017,0.003,0.024,0.004s0.015,0.001,0.021,0.001c0.008,0,0.015,0,0.022-0.001
				s0.016-0.002,0.023-0.004c0.004-0.001,0.008-0.001,0.012-0.002l2.03-0.536C64.557,65.795,64.597,65.766,64.626,65.729z
				 M63.021,65.521c-0.053-0.053-0.123-0.073-0.191-0.063l0.311-1.185l1.124,1.129l-1.18,0.312
				C63.094,65.645,63.073,65.573,63.021,65.521z"/>
			<path fill="#BF9138" d="M71.807,58.518l-1.813-1.82L70.688,56c0,0,1.234,0.443,1.813,1.821L71.807,58.518z"/>
		</g>
	</g>
</g>
</svg>
