<?xml version="1.0" encoding="utf-8"?>
<!-- Generator: Adobe Illustrator 16.0.0, SVG Export Plug-In . SVG Version: 6.00 Build 0)  -->
<!DOCTYPE svg PUBLIC "-//W3C//DTD SVG 1.1//EN" "http://www.w3.org/Graphics/SVG/1.1/DTD/svg11.dtd">
<svg version="1.1" id="Слой_1" xmlns="http://www.w3.org/2000/svg" xmlns:xlink="http://www.w3.org/1999/xlink" x="0px" y="0px"
	 width="134px" height="30px" viewBox="0 0 134 30" enable-background="new 0 0 134 30" xml:space="preserve">
<g id="Слой_x0020_1">
	<path fill="#2B2A29" d="M21.814,7.15c0-1.523-0.46-2.727-1.367-3.613c-0.914-0.883-2.19-1.324-3.832-1.324H7.781
		c-1.486,0-2.687,0.441-3.601,1.324C3.268,4.424,2.813,5.625,2.813,7.15H21.814z M0.346,29.09v-2.709h0.596v0.248
		c0.135-0.225,0.372-0.334,0.709-0.334c0.322,0,0.577,0.129,0.764,0.383l0.015,0.02l0.019,0.014c0.056-0.08,0.127-0.156,0.217-0.217
		c0.093-0.063,0.191-0.113,0.306-0.146c0.108-0.036,0.228-0.05,0.347-0.05c0.34,0,0.612,0.108,0.813,0.33
		c0.105,0.119,0.178,0.246,0.219,0.383c0.042,0.138,0.063,0.324,0.063,0.562v1.521H3.762v-1.44c0-0.252-0.037-0.424-0.1-0.521
		c-0.041-0.06-0.096-0.108-0.17-0.146c-0.078-0.037-0.154-0.051-0.24-0.051c-0.195,0-0.346,0.076-0.444,0.232
		c-0.041,0.066-0.067,0.146-0.082,0.228c-0.017,0.088-0.021,0.224-0.021,0.409v1.287H2.053V27.65c0-0.23-0.032-0.396-0.1-0.494
		c-0.101-0.146-0.246-0.221-0.44-0.221c-0.142,0-0.254,0.041-0.336,0.123c-0.067,0.063-0.114,0.15-0.142,0.265
		c-0.021,0.109-0.037,0.271-0.037,0.481v1.289H0.351L0.346,29.09L0.346,29.09z M6.252,26.295c0.267,0,0.511,0.063,0.732,0.19
		c0.217,0.128,0.396,0.302,0.522,0.522c0.127,0.225,0.19,0.465,0.19,0.729c0,0.267-0.063,0.507-0.195,0.724
		c-0.127,0.226-0.301,0.396-0.522,0.527c-0.222,0.127-0.462,0.189-0.722,0.189s-0.5-0.063-0.719-0.194
		c-0.223-0.127-0.396-0.306-0.525-0.526c-0.128-0.22-0.191-0.465-0.191-0.726c0-0.259,0.063-0.495,0.191-0.72
		c0.132-0.217,0.305-0.396,0.525-0.521C5.759,26.358,5.998,26.295,6.252,26.295z M6.252,26.933
		c-0.145,0.006-0.275,0.042-0.395,0.114c-0.123,0.072-0.214,0.174-0.283,0.291c-0.072,0.117-0.104,0.252-0.104,0.396
		c0,0.233,0.077,0.424,0.227,0.579c0.153,0.154,0.336,0.23,0.561,0.23c0.146,0,0.279-0.035,0.402-0.104
		c0.119-0.066,0.215-0.163,0.287-0.287c0.067-0.121,0.104-0.259,0.104-0.404s-0.037-0.281-0.108-0.408
		c-0.072-0.123-0.168-0.224-0.287-0.297c-0.117-0.072-0.244-0.108-0.385-0.108L6.252,26.933L6.252,26.933z M8.099,29.09v-2.709
		h0.593v0.248c0.086-0.123,0.172-0.209,0.252-0.262c0.092-0.05,0.2-0.072,0.334-0.072h0.055v0.629
		C9.199,26.934,9.092,26.961,9,27.01c-0.082,0.043-0.148,0.109-0.199,0.211c-0.036,0.078-0.055,0.214-0.055,0.408v1.461H8.099
		L8.099,29.09z M12.33,28.026h-2.1c0.045,0.118,0.098,0.209,0.15,0.269c0.148,0.168,0.34,0.25,0.576,0.25
		c0.133,0,0.26-0.025,0.373-0.076c0.078-0.036,0.148-0.088,0.218-0.154h0.724c-0.072,0.169-0.156,0.3-0.24,0.396
		c-0.143,0.146-0.306,0.265-0.492,0.347c-0.189,0.086-0.381,0.128-0.576,0.128c-0.254,0-0.49-0.063-0.709-0.191
		c-0.219-0.133-0.391-0.304-0.52-0.521c-0.127-0.225-0.189-0.463-0.189-0.717c0-0.262,0.063-0.51,0.189-0.731
		c0.129-0.224,0.301-0.399,0.52-0.526c0.224-0.135,0.459-0.195,0.718-0.195c0.25,0,0.481,0.063,0.694,0.191
		c0.213,0.127,0.384,0.299,0.51,0.518c0.128,0.216,0.189,0.447,0.189,0.697c0,0.049-0.009,0.137-0.024,0.265L12.33,28.026z
		 M10.221,27.447h1.488c-0.045-0.113-0.094-0.205-0.157-0.264c-0.149-0.17-0.341-0.252-0.577-0.252
		c-0.246,0-0.449,0.092-0.613,0.273C10.303,27.274,10.252,27.353,10.221,27.447z M16.848,28.026h-2.1
		c0.041,0.118,0.096,0.209,0.149,0.269c0.146,0.168,0.335,0.25,0.572,0.25c0.136,0,0.259-0.025,0.377-0.076
		c0.077-0.036,0.149-0.088,0.218-0.154h0.717c-0.066,0.169-0.148,0.3-0.24,0.396c-0.135,0.146-0.305,0.265-0.49,0.347
		c-0.188,0.086-0.383,0.128-0.577,0.128c-0.253,0-0.489-0.063-0.708-0.191c-0.217-0.133-0.393-0.304-0.52-0.521
		c-0.127-0.225-0.189-0.463-0.189-0.717c0-0.262,0.063-0.51,0.193-0.731c0.127-0.224,0.302-0.399,0.52-0.526
		c0.219-0.135,0.459-0.195,0.719-0.195c0.246,0,0.478,0.063,0.69,0.191c0.212,0.127,0.386,0.299,0.513,0.518
		c0.127,0.216,0.192,0.447,0.192,0.697c0,0.049-0.011,0.137-0.028,0.265L16.848,28.026z M14.734,27.447h1.49
		c-0.041-0.113-0.091-0.205-0.154-0.264c-0.148-0.17-0.345-0.252-0.576-0.252c-0.25,0-0.455,0.092-0.619,0.273
		C14.82,27.274,14.771,27.353,14.734,27.447z M18.143,29.09l-1.095-2.709h0.722l0.627,1.781l0.623-1.781h0.725l-1.097,2.709H18.143z
		 M21.354,26.295c0.265,0,0.509,0.063,0.729,0.19c0.221,0.128,0.396,0.302,0.523,0.522c0.127,0.225,0.19,0.465,0.19,0.729
		c0,0.267-0.063,0.507-0.195,0.724c-0.127,0.226-0.299,0.396-0.522,0.527c-0.223,0.127-0.463,0.189-0.721,0.189
		c-0.259,0-0.5-0.063-0.718-0.194c-0.224-0.127-0.396-0.306-0.526-0.526c-0.127-0.22-0.19-0.465-0.19-0.726
		c0-0.259,0.063-0.495,0.19-0.72c0.131-0.217,0.303-0.396,0.526-0.521C20.859,26.358,21.102,26.295,21.354,26.295z M21.354,26.933
		c-0.146,0.006-0.276,0.042-0.399,0.114c-0.119,0.072-0.211,0.174-0.281,0.291c-0.068,0.117-0.102,0.252-0.102,0.396
		c0,0.233,0.078,0.424,0.229,0.579c0.148,0.154,0.336,0.23,0.559,0.23c0.145,0,0.282-0.035,0.4-0.104
		c0.123-0.066,0.218-0.163,0.285-0.287c0.072-0.121,0.105-0.259,0.105-0.404s-0.033-0.281-0.105-0.408
		c-0.071-0.123-0.168-0.224-0.285-0.297c-0.117-0.072-0.246-0.108-0.387-0.108L21.354,26.933L21.354,26.933z M23.201,29.09v-2.709
		h0.601v0.248c0.092-0.104,0.183-0.183,0.282-0.232c0.146-0.066,0.295-0.102,0.459-0.102c0.318,0,0.593,0.125,0.813,0.375
		c0.02,0.021,0.032,0.035,0.036,0.035c0.082,0.113,0.136,0.24,0.169,0.383c0.025,0.142,0.045,0.342,0.045,0.601v1.401h-0.654v-1.277
		c0-0.316-0.037-0.537-0.107-0.655c-0.041-0.065-0.104-0.118-0.184-0.163c-0.082-0.041-0.164-0.06-0.25-0.06
		c-0.09,0-0.183,0.019-0.264,0.063c-0.082,0.043-0.146,0.104-0.191,0.176c-0.041,0.063-0.066,0.146-0.086,0.24
		c-0.014,0.098-0.021,0.246-0.021,0.451v1.225H23.201L23.201,29.09z M28.867,26.381v2.709h-0.595v-0.363
		c-0.077,0.087-0.136,0.148-0.187,0.189s-0.117,0.086-0.205,0.127c-0.174,0.092-0.359,0.139-0.561,0.139
		c-0.25,0-0.472-0.064-0.672-0.188c-0.199-0.129-0.354-0.301-0.468-0.523c-0.114-0.219-0.174-0.469-0.174-0.742
		c0-0.266,0.06-0.51,0.177-0.729c0.118-0.22,0.282-0.393,0.49-0.52c0.206-0.125,0.432-0.188,0.678-0.188
		c0.2,0,0.372,0.041,0.521,0.117c0.076,0.041,0.146,0.082,0.199,0.133c0.058,0.045,0.119,0.117,0.196,0.219v-0.383h0.597v0.002
		H28.867z M28.25,27.748c0-0.16-0.031-0.301-0.1-0.424c-0.063-0.123-0.156-0.222-0.273-0.292c-0.123-0.065-0.254-0.101-0.407-0.101
		c-0.149,0-0.292,0.031-0.415,0.104c-0.123,0.068-0.219,0.17-0.291,0.293c-0.068,0.127-0.104,0.264-0.104,0.422
		c0,0.146,0.035,0.281,0.104,0.405c0.07,0.119,0.168,0.216,0.291,0.282c0.123,0.068,0.26,0.104,0.41,0.104
		c0.148,0,0.285-0.035,0.404-0.104c0.117-0.066,0.213-0.163,0.281-0.286C28.22,28.03,28.25,27.899,28.25,27.748z M33.517,29.09
		v-2.709h0.595v0.248c0.133-0.225,0.369-0.334,0.709-0.334c0.323,0,0.578,0.129,0.76,0.383l0.02,0.02l0.014,0.014
		c0.06-0.08,0.133-0.156,0.224-0.217c0.087-0.063,0.187-0.113,0.3-0.146c0.113-0.036,0.229-0.05,0.35-0.05
		c0.342,0,0.61,0.108,0.812,0.33c0.108,0.119,0.182,0.246,0.223,0.383c0.04,0.138,0.06,0.324,0.06,0.562v1.521h-0.649v-1.44
		c0-0.252-0.032-0.424-0.101-0.521c-0.037-0.06-0.096-0.108-0.168-0.146c-0.073-0.037-0.149-0.051-0.235-0.051
		c-0.2,0-0.351,0.076-0.45,0.232c-0.035,0.066-0.063,0.146-0.076,0.228c-0.015,0.088-0.023,0.224-0.023,0.409v1.287h-0.647V27.65
		c0-0.23-0.036-0.396-0.104-0.494c-0.096-0.146-0.239-0.221-0.437-0.221c-0.146,0-0.254,0.041-0.341,0.123
		c-0.063,0.063-0.109,0.15-0.137,0.265c-0.025,0.109-0.04,0.271-0.04,0.481v1.289h-0.647v-0.002h-0.007V29.09z M39.42,26.295
		c0.27,0,0.51,0.063,0.732,0.19c0.221,0.127,0.396,0.302,0.522,0.522c0.128,0.225,0.188,0.465,0.188,0.729
		c0,0.267-0.063,0.507-0.188,0.724c-0.127,0.226-0.306,0.396-0.522,0.527c-0.224,0.127-0.464,0.189-0.724,0.189
		c-0.258,0-0.5-0.063-0.724-0.194c-0.217-0.127-0.396-0.306-0.521-0.526c-0.132-0.22-0.195-0.465-0.195-0.726
		c0-0.259,0.063-0.495,0.195-0.72c0.127-0.217,0.305-0.396,0.521-0.521C38.929,26.358,39.166,26.295,39.42,26.295z M39.42,26.933
		c-0.141,0.006-0.276,0.042-0.395,0.114c-0.119,0.072-0.215,0.174-0.283,0.291c-0.066,0.117-0.1,0.252-0.1,0.396
		c0,0.233,0.073,0.424,0.227,0.579c0.15,0.154,0.336,0.23,0.561,0.23c0.146,0,0.281-0.035,0.4-0.104
		c0.121-0.066,0.218-0.163,0.285-0.287c0.068-0.121,0.104-0.259,0.104-0.404s-0.037-0.281-0.104-0.408
		c-0.074-0.123-0.168-0.224-0.285-0.297c-0.119-0.072-0.252-0.108-0.387-0.108L39.42,26.933L39.42,26.933z M41.27,29.09v-2.709
		h0.586v0.248c0.086-0.123,0.174-0.209,0.26-0.262c0.084-0.05,0.195-0.072,0.33-0.072h0.051v0.629
		c-0.131,0.01-0.241,0.037-0.328,0.086c-0.086,0.043-0.148,0.109-0.203,0.211c-0.032,0.078-0.053,0.214-0.053,0.408v1.461H41.27
		L41.27,29.09z M45.502,28.026h-2.104c0.046,0.118,0.099,0.209,0.155,0.269c0.145,0.168,0.335,0.25,0.57,0.25
		c0.138,0,0.26-0.025,0.377-0.076c0.076-0.036,0.15-0.088,0.219-0.154h0.718c-0.069,0.169-0.149,0.3-0.241,0.396
		c-0.135,0.146-0.304,0.265-0.49,0.347c-0.186,0.086-0.381,0.128-0.574,0.128c-0.256,0-0.491-0.063-0.71-0.191
		c-0.218-0.133-0.392-0.304-0.519-0.521c-0.127-0.225-0.191-0.463-0.191-0.717c0-0.262,0.064-0.51,0.195-0.731
		c0.127-0.224,0.299-0.399,0.519-0.526c0.218-0.135,0.459-0.195,0.718-0.195c0.245,0,0.477,0.063,0.689,0.191
		c0.213,0.127,0.388,0.299,0.515,0.518c0.127,0.216,0.188,0.447,0.188,0.697c0,0.049-0.008,0.137-0.025,0.265L45.502,28.026z
		 M43.388,27.447h1.489c-0.039-0.113-0.09-0.205-0.152-0.264c-0.15-0.17-0.348-0.252-0.582-0.252c-0.246,0-0.449,0.092-0.613,0.273
		C43.474,27.274,43.424,27.353,43.388,27.447z M49.285,28.213h0.729c-0.045,0.117-0.086,0.213-0.118,0.277
		c-0.036,0.063-0.085,0.133-0.146,0.199c-0.141,0.158-0.305,0.275-0.489,0.363c-0.187,0.088-0.382,0.129-0.582,0.129
		c-0.265,0-0.511-0.064-0.728-0.196c-0.224-0.128-0.399-0.306-0.527-0.526c-0.133-0.224-0.195-0.47-0.195-0.729
		c0-0.26,0.063-0.5,0.189-0.725c0.13-0.219,0.306-0.392,0.523-0.52c0.223-0.128,0.459-0.191,0.717-0.191
		c0.143,0,0.278,0.021,0.41,0.06c0.131,0.041,0.258,0.099,0.377,0.175c0.113,0.072,0.221,0.164,0.313,0.271
		c0.059,0.068,0.107,0.143,0.145,0.205c0.037,0.068,0.074,0.16,0.11,0.279h-0.728c-0.078-0.13-0.17-0.221-0.264-0.271
		c-0.097-0.055-0.214-0.081-0.359-0.081c-0.148,0-0.287,0.032-0.408,0.101c-0.117,0.068-0.209,0.164-0.276,0.282
		c-0.063,0.124-0.103,0.26-0.103,0.414c0,0.237,0.078,0.428,0.229,0.583c0.154,0.154,0.341,0.23,0.572,0.23
		C48.932,28.543,49.132,28.436,49.285,28.213z M51.785,26.295c0.269,0,0.508,0.063,0.732,0.19c0.223,0.128,0.395,0.302,0.521,0.522
		c0.127,0.225,0.189,0.465,0.189,0.729c0,0.267-0.063,0.507-0.189,0.724c-0.127,0.226-0.305,0.396-0.521,0.527
		c-0.225,0.127-0.465,0.189-0.725,0.189c-0.258,0-0.5-0.063-0.723-0.194c-0.218-0.127-0.396-0.306-0.521-0.526
		c-0.133-0.22-0.195-0.465-0.195-0.726c0-0.259,0.063-0.495,0.195-0.72c0.127-0.217,0.305-0.396,0.521-0.521
		C51.295,26.358,51.531,26.295,51.785,26.295z M51.785,26.933c-0.146,0.006-0.276,0.042-0.396,0.114
		c-0.118,0.072-0.214,0.174-0.282,0.291s-0.1,0.252-0.1,0.396c0,0.233,0.072,0.424,0.227,0.579c0.15,0.154,0.336,0.23,0.559,0.23
		c0.146,0,0.277-0.035,0.402-0.104c0.123-0.066,0.217-0.163,0.285-0.287c0.069-0.121,0.104-0.259,0.104-0.404
		s-0.034-0.281-0.104-0.408c-0.072-0.123-0.168-0.224-0.285-0.297c-0.125-0.072-0.252-0.108-0.387-0.108L51.785,26.933
		L51.785,26.933z M53.636,29.09v-3.658h0.644v3.658H53.636z M56.121,26.295c0.265,0,0.511,0.063,0.729,0.19
		c0.223,0.128,0.398,0.302,0.521,0.522c0.131,0.225,0.195,0.465,0.195,0.729c0,0.267-0.068,0.507-0.195,0.724
		c-0.127,0.226-0.305,0.396-0.521,0.527c-0.225,0.127-0.464,0.189-0.725,0.189c-0.258,0-0.5-0.063-0.717-0.194
		c-0.224-0.127-0.396-0.306-0.526-0.526c-0.128-0.22-0.195-0.465-0.195-0.726c0-0.259,0.067-0.495,0.195-0.72
		c0.132-0.217,0.305-0.396,0.526-0.521C55.625,26.358,55.867,26.295,56.121,26.295z M56.121,26.933
		c-0.146,0.006-0.275,0.042-0.398,0.114c-0.119,0.072-0.214,0.174-0.283,0.291c-0.068,0.117-0.1,0.252-0.1,0.396
		c0,0.233,0.072,0.424,0.227,0.579c0.151,0.154,0.338,0.23,0.561,0.23c0.146,0,0.281-0.035,0.4-0.104
		c0.123-0.066,0.217-0.163,0.286-0.287c0.073-0.121,0.104-0.259,0.104-0.404s-0.035-0.281-0.104-0.408
		c-0.073-0.123-0.169-0.224-0.286-0.297c-0.119-0.072-0.25-0.108-0.387-0.108L56.121,26.933L56.121,26.933z M57.967,29.09v-2.709
		h0.587v0.248c0.086-0.123,0.173-0.209,0.258-0.262c0.085-0.05,0.2-0.072,0.332-0.072h0.05v0.629
		c-0.127,0.01-0.236,0.037-0.326,0.086c-0.084,0.043-0.149,0.109-0.201,0.211c-0.035,0.078-0.055,0.214-0.055,0.408v1.461H57.967
		L57.967,29.09z M59.539,29.09v-2.135h-0.228v-0.574h0.228c0.02-0.182,0.051-0.33,0.101-0.439c0.045-0.107,0.106-0.205,0.187-0.281
		c0.076-0.082,0.168-0.143,0.265-0.188c0.101-0.04,0.198-0.063,0.305-0.063h0.032l0.176,0.011v0.646
		c-0.113,0-0.195,0.009-0.248,0.022c-0.056,0.019-0.092,0.045-0.115,0.09c-0.022,0.047-0.037,0.113-0.045,0.205h0.373v0.572h-0.373
		v2.137h-0.656V29.09z M62.65,26.381h0.65v2.709h-0.602v-0.285c-0.045,0.08-0.1,0.145-0.152,0.193
		c-0.146,0.123-0.324,0.184-0.541,0.184c-0.346,0-0.633-0.129-0.854-0.377c-0.104-0.115-0.175-0.233-0.207-0.354
		c-0.035-0.121-0.054-0.301-0.054-0.539v-1.531h0.649v1.334c0,0.252,0.025,0.438,0.082,0.553c0.092,0.188,0.25,0.275,0.473,0.275
		c0.189,0,0.327-0.066,0.418-0.203s0.137-0.342,0.137-0.625V26.381L62.65,26.381z M63.824,29.09v-3.658h0.646v3.658H63.824z
		 M69.158,29.09v-2.709h0.596v0.248c0.135-0.225,0.369-0.334,0.711-0.334c0.322,0,0.576,0.129,0.76,0.383l0.02,0.02l0.014,0.014
		c0.059-0.08,0.133-0.156,0.225-0.217c0.086-0.063,0.186-0.113,0.299-0.146c0.113-0.036,0.227-0.05,0.35-0.05
		c0.342,0,0.609,0.108,0.811,0.33c0.107,0.119,0.182,0.246,0.223,0.383c0.041,0.138,0.061,0.324,0.061,0.562v1.521h-0.648v-1.44
		c0-0.252-0.033-0.424-0.102-0.521c-0.035-0.06-0.096-0.108-0.168-0.146c-0.072-0.037-0.154-0.051-0.236-0.051
		c-0.199,0-0.352,0.076-0.449,0.232c-0.037,0.066-0.063,0.146-0.078,0.228c-0.014,0.088-0.02,0.224-0.02,0.409v1.287h-0.65V27.65
		c0-0.23-0.037-0.396-0.104-0.494c-0.098-0.146-0.24-0.221-0.438-0.221c-0.146,0-0.254,0.041-0.342,0.123
		c-0.063,0.063-0.109,0.15-0.135,0.265c-0.027,0.109-0.041,0.271-0.041,0.481v1.289h-0.648v-0.002h-0.008V29.09z M75.063,26.295
		c0.268,0,0.51,0.063,0.73,0.19c0.225,0.128,0.396,0.302,0.521,0.522c0.129,0.225,0.189,0.465,0.189,0.729
		c0,0.267-0.063,0.507-0.189,0.724c-0.127,0.226-0.305,0.396-0.521,0.527c-0.223,0.127-0.465,0.189-0.723,0.189
		c-0.26,0-0.5-0.063-0.723-0.194c-0.221-0.127-0.396-0.306-0.523-0.526c-0.133-0.22-0.195-0.465-0.195-0.726
		c0-0.259,0.063-0.495,0.195-0.72c0.129-0.217,0.305-0.396,0.523-0.521C74.572,26.358,74.809,26.295,75.063,26.295z M75.063,26.933
		c-0.146,0.006-0.277,0.042-0.396,0.114c-0.117,0.072-0.213,0.174-0.279,0.291c-0.068,0.117-0.102,0.252-0.102,0.396
		c0,0.233,0.072,0.424,0.227,0.579c0.15,0.154,0.338,0.23,0.563,0.23c0.145,0,0.277-0.035,0.4-0.104
		c0.121-0.066,0.217-0.163,0.285-0.287c0.068-0.121,0.104-0.259,0.104-0.404s-0.035-0.281-0.104-0.408
		c-0.072-0.123-0.168-0.224-0.285-0.297c-0.123-0.072-0.252-0.108-0.389-0.108L75.063,26.933L75.063,26.933z M76.912,29.09v-2.709
		h0.586v0.248c0.086-0.123,0.174-0.209,0.26-0.262c0.084-0.05,0.195-0.072,0.33-0.072h0.051v0.629
		c-0.133,0.01-0.24,0.037-0.326,0.086c-0.086,0.043-0.15,0.109-0.203,0.211c-0.033,0.078-0.053,0.214-0.053,0.408v1.461H76.912
		L76.912,29.09z M81.143,28.026h-2.104c0.045,0.118,0.096,0.209,0.154,0.269c0.145,0.168,0.336,0.25,0.57,0.25
		c0.139,0,0.262-0.025,0.379-0.076c0.076-0.036,0.148-0.088,0.219-0.154h0.717c-0.068,0.169-0.148,0.3-0.24,0.396
		c-0.137,0.146-0.305,0.265-0.49,0.347c-0.188,0.086-0.383,0.128-0.576,0.128c-0.254,0-0.49-0.063-0.711-0.191
		c-0.219-0.133-0.393-0.304-0.52-0.521c-0.127-0.225-0.188-0.463-0.188-0.717c0-0.262,0.063-0.51,0.188-0.731
		c0.133-0.224,0.307-0.399,0.523-0.526c0.217-0.135,0.459-0.195,0.715-0.195c0.25,0,0.48,0.063,0.695,0.191
		c0.213,0.127,0.387,0.299,0.514,0.518c0.127,0.216,0.189,0.447,0.189,0.697c0,0.049-0.01,0.137-0.025,0.265L81.143,28.026z
		 M79.029,27.447h1.492c-0.041-0.113-0.098-0.205-0.154-0.264c-0.15-0.17-0.346-0.252-0.582-0.252c-0.246,0-0.449,0.092-0.613,0.273
		C79.111,27.274,79.066,27.353,79.029,27.447z M84.701,27.125H84.07c-0.031-0.127-0.115-0.191-0.26-0.191
		c-0.072,0-0.137,0.02-0.184,0.061c-0.045,0.039-0.066,0.098-0.066,0.163c0,0.063,0.025,0.114,0.072,0.15
		c0.045,0.034,0.135,0.071,0.25,0.104l0.031,0.01h0.016c0.301,0.088,0.52,0.189,0.65,0.318c0.131,0.127,0.199,0.292,0.199,0.5
		c0,0.174-0.047,0.332-0.135,0.477c-0.092,0.146-0.209,0.259-0.363,0.345c-0.148,0.083-0.316,0.124-0.494,0.124
		c-0.133,0-0.254-0.021-0.371-0.069c-0.119-0.045-0.223-0.112-0.318-0.2c-0.076-0.076-0.141-0.172-0.195-0.285
		c-0.045-0.092-0.072-0.219-0.082-0.389h0.66c0.051,0.205,0.168,0.307,0.344,0.307c0.088,0,0.16-0.021,0.219-0.067
		c0.057-0.052,0.082-0.114,0.082-0.188c0-0.076-0.025-0.14-0.086-0.186c-0.059-0.051-0.17-0.1-0.32-0.154c-0.004,0-0.008,0-0.018,0
		c-0.004-0.006-0.01-0.006-0.01-0.006l-0.025-0.008l-0.115-0.036c-0.203-0.063-0.361-0.166-0.473-0.297
		c-0.113-0.132-0.168-0.287-0.168-0.47c0-0.148,0.041-0.291,0.119-0.422c0.082-0.129,0.189-0.229,0.33-0.305
		c0.137-0.074,0.293-0.111,0.451-0.111c0.168,0,0.313,0.033,0.441,0.105c0.133,0.066,0.236,0.168,0.314,0.291
		C84.646,26.819,84.691,26.965,84.701,27.125z M87.803,28.026h-2.098c0.045,0.118,0.094,0.209,0.148,0.269
		c0.145,0.168,0.34,0.25,0.57,0.25c0.139,0,0.262-0.025,0.377-0.076c0.078-0.036,0.15-0.088,0.221-0.154h0.717
		c-0.068,0.169-0.15,0.3-0.24,0.396c-0.137,0.146-0.301,0.265-0.492,0.347c-0.186,0.086-0.377,0.128-0.576,0.128
		c-0.254,0-0.488-0.063-0.709-0.191c-0.213-0.133-0.393-0.304-0.514-0.521c-0.133-0.225-0.189-0.463-0.189-0.717
		c0-0.262,0.063-0.51,0.189-0.731c0.127-0.224,0.299-0.399,0.52-0.526c0.219-0.135,0.459-0.195,0.719-0.195
		c0.244,0,0.477,0.063,0.688,0.191c0.221,0.127,0.389,0.299,0.516,0.518c0.127,0.216,0.189,0.447,0.189,0.697
		c0,0.049-0.01,0.137-0.025,0.265L87.803,28.026z M85.693,27.447h1.494c-0.045-0.113-0.098-0.205-0.158-0.264
		c-0.15-0.17-0.342-0.252-0.578-0.252c-0.25,0-0.455,0.092-0.613,0.273C85.779,27.274,85.729,27.353,85.693,27.447z M88.004,29.09
		l0.963-1.397l-0.846-1.312h0.76l0.475,0.744l0.459-0.744h0.754l-0.832,1.312l0.963,1.397H89.9l-0.545-0.873l-0.551,0.873H88.004z
		 M91.254,30l0.5-1.164l-0.984-2.455h0.729l0.623,1.734l0.65-1.734h0.732L91.951,30H91.254L91.254,30z M98,29.09v-2.709h0.596v0.248
		c0.133-0.225,0.367-0.334,0.709-0.334c0.322,0,0.572,0.129,0.76,0.383l0.014,0.02l0.021,0.014c0.055-0.08,0.133-0.156,0.217-0.217
		c0.092-0.063,0.189-0.113,0.305-0.146c0.113-0.036,0.229-0.05,0.352-0.05c0.342,0,0.607,0.108,0.811,0.33
		c0.104,0.119,0.182,0.246,0.223,0.383c0.039,0.138,0.059,0.324,0.059,0.562v1.521h-0.648v-1.44c0-0.252-0.031-0.424-0.1-0.521
		c-0.041-0.06-0.098-0.108-0.168-0.146c-0.072-0.038-0.154-0.051-0.242-0.051c-0.195,0-0.346,0.076-0.445,0.232
		c-0.039,0.066-0.063,0.146-0.076,0.228c-0.014,0.088-0.021,0.224-0.021,0.409v1.287h-0.648V27.65c0-0.23-0.037-0.396-0.104-0.494
		c-0.102-0.146-0.244-0.221-0.438-0.221c-0.146,0-0.26,0.041-0.342,0.123c-0.066,0.063-0.107,0.15-0.135,0.265
		c-0.027,0.109-0.041,0.271-0.041,0.481v1.289H98.01v-0.002H98V29.09z M103.902,26.295c0.268,0,0.508,0.063,0.729,0.19
		c0.225,0.128,0.396,0.302,0.523,0.522c0.129,0.225,0.189,0.465,0.189,0.729c0,0.267-0.063,0.507-0.189,0.724
		c-0.133,0.226-0.305,0.396-0.527,0.527c-0.217,0.127-0.457,0.189-0.721,0.189c-0.26,0-0.496-0.063-0.719-0.194
		c-0.217-0.127-0.396-0.306-0.523-0.526c-0.131-0.22-0.195-0.465-0.195-0.726c0-0.259,0.064-0.495,0.195-0.72
		c0.129-0.217,0.305-0.396,0.523-0.521C103.412,26.358,103.648,26.295,103.902,26.295z M103.902,26.933
		c-0.146,0.006-0.277,0.042-0.396,0.114s-0.213,0.174-0.281,0.291c-0.066,0.117-0.104,0.252-0.104,0.396
		c0,0.233,0.076,0.424,0.227,0.579c0.154,0.154,0.342,0.23,0.561,0.23c0.148,0,0.281-0.035,0.404-0.104
		c0.123-0.066,0.219-0.163,0.287-0.287c0.068-0.121,0.104-0.259,0.104-0.404s-0.037-0.281-0.109-0.408
		c-0.066-0.123-0.162-0.224-0.287-0.297c-0.117-0.072-0.244-0.108-0.383-0.108L103.902,26.933L103.902,26.933z M105.748,29.09
		v-2.709h0.592v0.248c0.086-0.123,0.174-0.209,0.26-0.262c0.086-0.05,0.193-0.072,0.33-0.072h0.051v0.629
		c-0.131,0.01-0.24,0.037-0.326,0.086c-0.086,0.043-0.154,0.109-0.205,0.211c-0.037,0.078-0.051,0.214-0.051,0.408v1.461H105.748
		L105.748,29.09z M109.982,28.026h-2.104c0.045,0.118,0.098,0.209,0.152,0.269c0.146,0.168,0.338,0.25,0.574,0.25
		c0.135,0,0.258-0.025,0.371-0.076c0.076-0.036,0.152-0.088,0.223-0.154h0.717c-0.07,0.169-0.146,0.3-0.24,0.396
		c-0.141,0.146-0.305,0.265-0.488,0.347c-0.189,0.086-0.383,0.128-0.578,0.128c-0.252,0-0.488-0.063-0.707-0.191
		c-0.219-0.133-0.395-0.304-0.521-0.521c-0.127-0.225-0.188-0.463-0.188-0.717c0-0.262,0.063-0.51,0.188-0.731
		c0.135-0.224,0.307-0.399,0.523-0.526c0.217-0.135,0.459-0.195,0.715-0.195c0.248,0,0.48,0.063,0.693,0.191
		c0.213,0.127,0.387,0.299,0.514,0.518c0.127,0.216,0.191,0.447,0.191,0.697c0,0.049-0.012,0.137-0.027,0.265L109.982,28.026z
		 M107.869,27.447h1.492c-0.041-0.113-0.098-0.205-0.154-0.264c-0.148-0.17-0.346-0.252-0.582-0.252
		c-0.246,0-0.449,0.092-0.613,0.273C107.951,27.274,107.906,27.353,107.869,27.447z M113.768,28.213h0.729
		c-0.047,0.117-0.088,0.213-0.123,0.277c-0.033,0.063-0.082,0.133-0.141,0.199c-0.143,0.158-0.307,0.275-0.49,0.363
		c-0.188,0.088-0.383,0.129-0.586,0.129c-0.26,0-0.506-0.064-0.723-0.196c-0.225-0.128-0.4-0.306-0.531-0.526
		c-0.129-0.224-0.191-0.47-0.191-0.729c0-0.26,0.063-0.5,0.191-0.725c0.127-0.219,0.299-0.392,0.521-0.52
		c0.225-0.128,0.459-0.191,0.719-0.191c0.137,0,0.27,0.021,0.406,0.06c0.135,0.043,0.254,0.099,0.371,0.175
		c0.119,0.072,0.225,0.164,0.32,0.271c0.059,0.068,0.107,0.143,0.145,0.205c0.035,0.068,0.072,0.16,0.109,0.279h-0.729
		c-0.082-0.13-0.168-0.221-0.264-0.271c-0.096-0.055-0.219-0.081-0.357-0.081c-0.154,0-0.291,0.032-0.408,0.101
		c-0.119,0.068-0.211,0.164-0.277,0.282c-0.066,0.124-0.1,0.26-0.1,0.414c0,0.237,0.076,0.428,0.227,0.583
		c0.15,0.154,0.34,0.23,0.568,0.23C113.414,28.543,113.613,28.436,113.768,28.213z M116.268,26.295c0.27,0,0.51,0.063,0.73,0.19
		s0.396,0.302,0.521,0.522c0.129,0.225,0.189,0.465,0.189,0.729c0,0.267-0.063,0.507-0.189,0.724
		c-0.131,0.226-0.305,0.396-0.525,0.527c-0.219,0.127-0.459,0.189-0.723,0.189c-0.262,0-0.496-0.063-0.721-0.194
		c-0.217-0.127-0.395-0.306-0.52-0.526c-0.133-0.22-0.197-0.465-0.197-0.726c0-0.259,0.064-0.495,0.197-0.72
		c0.127-0.217,0.305-0.396,0.52-0.521C115.777,26.358,116.014,26.295,116.268,26.295z M116.268,26.933
		c-0.146,0.006-0.277,0.042-0.396,0.114c-0.117,0.072-0.213,0.174-0.281,0.291c-0.066,0.117-0.104,0.252-0.104,0.396
		c0,0.233,0.076,0.424,0.227,0.579c0.154,0.154,0.34,0.23,0.561,0.23c0.148,0,0.281-0.035,0.404-0.104
		c0.123-0.066,0.219-0.163,0.287-0.287c0.068-0.121,0.104-0.259,0.104-0.404s-0.035-0.281-0.109-0.408
		c-0.066-0.123-0.164-0.224-0.287-0.297c-0.117-0.072-0.244-0.108-0.381-0.108L116.268,26.933L116.268,26.933z M118.113,29.09
		v-2.709h0.6v0.248c0.094-0.104,0.189-0.183,0.283-0.232c0.146-0.066,0.299-0.102,0.459-0.102c0.316,0,0.59,0.125,0.813,0.375
		c0.021,0.021,0.037,0.035,0.037,0.035c0.08,0.113,0.135,0.24,0.168,0.383c0.031,0.142,0.045,0.342,0.045,0.601v1.401h-0.648v-1.277
		c0-0.316-0.035-0.537-0.109-0.655c-0.045-0.065-0.104-0.118-0.186-0.163c-0.078-0.041-0.164-0.06-0.25-0.06
		c-0.092,0-0.178,0.019-0.26,0.063c-0.086,0.045-0.148,0.104-0.189,0.176c-0.041,0.063-0.072,0.146-0.086,0.24
		c-0.02,0.098-0.021,0.246-0.021,0.451v1.225H118.113L118.113,29.09z M121.051,29.09v-2.135h-0.227v-0.574h0.227
		c0.021-0.182,0.055-0.33,0.104-0.439c0.049-0.107,0.105-0.205,0.186-0.281c0.078-0.082,0.168-0.143,0.264-0.188
		c0.102-0.04,0.201-0.063,0.305-0.063h0.033l0.176,0.011v0.646c-0.113,0-0.195,0.009-0.25,0.022
		c-0.055,0.019-0.092,0.045-0.113,0.09c-0.021,0.047-0.037,0.113-0.045,0.205h0.371v0.572h-0.371v2.137h-0.658V29.09z
		 M122.408,29.09v-2.709h0.648v2.709H122.408z M122.408,26.067v-0.591h0.648v0.591H122.408z M126.316,25.432v3.658h-0.604v-0.363
		c-0.066,0.087-0.123,0.148-0.174,0.189c-0.045,0.045-0.105,0.086-0.186,0.127c-0.172,0.092-0.359,0.139-0.557,0.139
		c-0.238,0-0.463-0.064-0.668-0.196c-0.205-0.127-0.369-0.306-0.488-0.522c-0.117-0.225-0.184-0.467-0.184-0.725
		c0-0.26,0.064-0.501,0.188-0.725c0.123-0.223,0.287-0.395,0.5-0.526c0.209-0.128,0.438-0.19,0.682-0.19
		c0.164,0,0.322,0.031,0.482,0.102c0.115,0.057,0.229,0.143,0.35,0.264v-1.229L126.316,25.432L126.316,25.432z M125.701,27.748
		c0-0.115-0.018-0.223-0.057-0.318c-0.043-0.1-0.104-0.188-0.178-0.26c-0.07-0.076-0.152-0.133-0.254-0.176
		c-0.1-0.043-0.205-0.062-0.313-0.062c-0.143,0-0.27,0.036-0.393,0.108s-0.217,0.17-0.291,0.293
		c-0.072,0.123-0.104,0.254-0.104,0.396c0,0.149,0.031,0.287,0.104,0.407c0.068,0.125,0.164,0.225,0.287,0.298
		c0.123,0.071,0.254,0.108,0.4,0.108c0.139,0,0.27-0.037,0.395-0.108c0.123-0.073,0.225-0.169,0.295-0.298
		C125.67,28.017,125.701,27.885,125.701,27.748z M129.48,28.026h-2.105c0.047,0.118,0.096,0.209,0.15,0.269
		c0.146,0.168,0.34,0.25,0.576,0.25c0.133,0,0.26-0.025,0.373-0.076c0.074-0.036,0.148-0.088,0.221-0.154h0.719
		c-0.072,0.169-0.148,0.3-0.24,0.396c-0.141,0.146-0.305,0.265-0.49,0.347c-0.188,0.086-0.383,0.128-0.576,0.128
		c-0.254,0-0.49-0.063-0.709-0.191c-0.221-0.133-0.393-0.304-0.521-0.521c-0.127-0.225-0.188-0.463-0.188-0.717
		c0-0.262,0.063-0.51,0.188-0.731c0.133-0.224,0.307-0.399,0.523-0.526c0.219-0.135,0.455-0.195,0.715-0.195
		c0.25,0,0.48,0.063,0.695,0.191c0.213,0.127,0.385,0.299,0.514,0.518c0.127,0.216,0.191,0.447,0.191,0.697
		c0,0.049-0.012,0.137-0.027,0.265L129.48,28.026z M127.365,27.447h1.492c-0.043-0.113-0.1-0.205-0.154-0.264
		c-0.154-0.17-0.346-0.252-0.582-0.252c-0.246,0-0.449,0.092-0.613,0.273C127.447,27.274,127.402,27.353,127.365,27.447z
		 M129.938,29.09v-2.709h0.602v0.248c0.086-0.104,0.182-0.183,0.281-0.232c0.141-0.066,0.295-0.102,0.459-0.102
		c0.318,0,0.586,0.125,0.813,0.375c0.02,0.021,0.031,0.035,0.031,0.035c0.082,0.113,0.143,0.24,0.168,0.383
		c0.031,0.142,0.045,0.342,0.045,0.601v1.401h-0.646v-1.277c0-0.316-0.037-0.537-0.109-0.655c-0.041-0.065-0.104-0.118-0.182-0.163
		c-0.082-0.041-0.164-0.06-0.25-0.06c-0.1,0-0.184,0.019-0.266,0.063s-0.146,0.104-0.189,0.176c-0.041,0.063-0.068,0.146-0.086,0.24
		c-0.016,0.098-0.023,0.246-0.023,0.451v1.225H129.938L129.938,29.09z M132.961,29.09v-2.135h-0.316v-0.574h0.316v-0.91h0.648v0.91
		H134v0.574h-0.391v2.135H132.961z M17.748,18.355H8.285C2.765,18.355,0,16.071,0,11.502V6.709c0-1.793,0.701-3.332,2.109-4.605
		C3.65,0.701,5.681,0,8.209,0h8.131c2.656,0,4.73,0.637,6.217,1.918c1.381,1.178,2.072,2.68,2.072,4.496v2.949H2.814v1.77
		c0,1.767,0.51,3.072,1.527,3.904c0.881,0.736,2.163,1.106,3.831,1.106h9.185c1.486,0,2.6-0.313,3.344-0.938
		c0.742-0.627,1.115-1.418,1.115-2.379v-0.369h2.813v0.369c0,1.401-0.48,2.607-1.445,3.612
		C21.955,17.717,20.146,18.355,17.748,18.355z M47.927,0.073L39.17,15.406h-0.588L29.826,0.073h-3.127l10.672,18.209h3.014
		l10.67-18.209H47.927L47.927,0.073z M52.777,7.15c0-2.212,0.635-3.918,1.912-5.125c1.436-1.348,3.613-2.023,6.53-2.023h7.737
		c3,0,5.199,0.715,6.607,2.139C76.787,3.369,77.4,5.039,77.4,7.151v3.981c0,2.111-0.621,3.795-1.877,5.047
		c-1.459,1.453-3.648,2.177-6.566,2.177H61.22c-2.84,0-4.958-0.608-6.354-1.827c-1.395-1.214-2.09-3.018-2.09-5.396V9.142V7.152
		h0.002V7.15z M55.589,11.131c0,3.34,1.938,5.012,5.825,5.012h7.348c1.828,0,3.256-0.409,4.281-1.234
		c1.031-0.822,1.545-2.084,1.545-3.777V7.15c0-1.598-0.504-2.816-1.504-3.668c-1.004-0.848-2.443-1.271-4.322-1.271h-7.348
		c-1.955,0-3.414,0.393-4.381,1.178c-0.963,0.789-1.444,2.039-1.444,3.761V11.131L55.589,11.131z M89.836,0.073h7.426
		c2.973,0,5.178,0.751,6.607,2.249c1.23,1.28,1.836,3.059,1.836,5.344v10.58h-2.813V7.297c0-1.57-0.51-2.797-1.525-3.683
		c-1.016-0.888-2.383-1.329-4.104-1.329h-7.428c-1.668,0-3.021,0.442-4.064,1.329c-1.041,0.882-1.564,2.111-1.564,3.683v10.949
		h-2.813V0.074h2.813v2.949c0.313-0.665,0.641-1.156,0.979-1.475C86.252,0.565,87.799,0.073,89.836,0.073z M109.852,11.424
		c0-1.301,0.467-2.32,1.414-3.058c1.045-0.812,2.584-1.215,4.627-1.215h11.307c1.357,0,2.348,0.231,2.979,0.701
		c0.211,0.146,0.393,0.392,0.551,0.737V6.082c0-1.104-0.354-1.988-1.064-2.654c-0.83-0.758-2.053-1.143-3.646-1.143h-7.502
		c-1.99,0-3.393,0.396-4.205,1.18c-0.264,0.244-0.459,0.642-0.586,1.178v0.664h-2.896V4.643c-0.285-1.055,0.287-2.111,1.723-3.167
		c1.25-0.933,2.996-1.401,5.236-1.401h8.484c2.525,0,4.389,0.563,5.59,1.698c1.123,1.056,1.682,2.626,1.682,4.714v11.796h-2.813
		v-1.476c-0.314,0.341-0.586,0.587-0.822,0.736c-0.756,0.492-1.627,0.738-2.619,0.738h-10.947c-2.137,0-3.754-0.38-4.85-1.125
		c-1.092-0.751-1.641-1.925-1.641-3.521V11.424L109.852,11.424z M116.908,9.361c-1.699,0-2.836,0.205-3.395,0.609
		c-0.566,0.406-0.852,1.088-0.852,2.043v1.33c0,0.884,0.277,1.521,0.832,1.916c0.678,0.492,1.818,0.736,3.414,0.736h9.574
		c2.832,0,4.246-1.104,4.246-3.316c0-1.129-0.355-1.967-1.064-2.508c-0.705-0.543-1.764-0.811-3.182-0.811H116.908z"/>
</g>
</svg>
