<?xml version="1.0" encoding="utf-8"?>
<!-- Generator: Adobe Illustrator 16.0.0, SVG Export Plug-In . SVG Version: 6.00 Build 0)  -->
<!DOCTYPE svg PUBLIC "-//W3C//DTD SVG 1.1//EN" "http://www.w3.org/Graphics/SVG/1.1/DTD/svg11.dtd">
<svg version="1.1" id="Слой_1" xmlns="http://www.w3.org/2000/svg" xmlns:xlink="http://www.w3.org/1999/xlink" x="0px" y="0px"
	 width="24px" height="19px" viewBox="0 0 24 19" enable-background="new 0 0 24 19" xml:space="preserve">
<path fill="#BBBBBB" d="M23.889,9.074c-1.24-2.201-2.914-3.974-4.852-5.225l2.029-2.04c0.461-0.461,0.517-1.153,0.125-1.546
	c-0.392-0.394-1.078-0.338-1.539,0.125l-2.45,2.463C15.577,2.13,13.817,1.747,12,1.747c-4.857,0-9.303,2.739-11.889,7.328
	c-0.233,0.415-0.089,0.94,0.323,1.175c0.41,0.236,0.935,0.089,1.168-0.325C3.881,5.882,7.769,3.47,12,3.47
	c1.34,0,2.639,0.265,3.867,0.722l-1.639,1.646c-0.651-0.4-1.41-0.646-2.229-0.646c-2.363,0-4.286,1.933-4.286,4.307
	c0,0.823,0.243,1.585,0.643,2.24l-2.143,2.153c-0.975-0.588-1.887-1.319-2.705-2.2c-0.325-0.347-0.866-0.365-1.212-0.041
	c-0.346,0.324-0.364,0.871-0.041,1.219c0.828,0.891,1.746,1.639,2.719,2.267l-2.043,2.054c-0.459,0.463-0.516,1.155-0.125,1.548
	c0.391,0.393,1.08,0.336,1.54-0.127l2.456-2.468c1.634,0.727,3.391,1.109,5.197,1.109c4.856,0,9.304-2.742,11.89-7.328
	C24.038,9.66,24.038,9.338,23.889,9.074z M14.571,9.499c0,1.424-1.152,2.583-2.57,2.583c-0.342,0-0.667-0.069-0.965-0.191
	l3.345-3.361C14.501,8.829,14.571,9.156,14.571,9.499z M9.43,9.499c0-1.424,1.154-2.583,2.571-2.583c0.342,0,0.667,0.07,0.966,0.192
	L9.622,10.47C9.5,10.169,9.43,9.842,9.43,9.499z M12,15.528c-1.334,0-2.636-0.254-3.872-0.716l1.644-1.653
	c0.651,0.4,1.41,0.647,2.229,0.647c2.362,0,4.286-1.933,4.286-4.307c0-0.822-0.243-1.585-0.643-2.239l2.146-2.16
	c1.717,1.033,3.216,2.525,4.355,4.398C19.842,13.285,16.083,15.528,12,15.528z"/>
</svg>
