<?xml version="1.0" encoding="utf-8"?>
<!-- Generator: Adobe Illustrator 16.0.0, SVG Export Plug-In . SVG Version: 6.00 Build 0)  -->
<!DOCTYPE svg PUBLIC "-//W3C//DTD SVG 1.1//EN" "http://www.w3.org/Graphics/SVG/1.1/DTD/svg11.dtd">
<svg version="1.1" id="Слой_1" xmlns="http://www.w3.org/2000/svg" xmlns:xlink="http://www.w3.org/1999/xlink" x="0px" y="0px"
	 width="24px" height="15px" viewBox="0 0 24 15" enable-background="new 0 0 24 15" xml:space="preserve">
<g>
	<g>
		<path fill="#BBBBBB" d="M12,15c-3.656,0-7.115-1.505-9.743-4.239c-0.323-0.337-0.305-0.864,0.041-1.178
			C2.645,9.27,3.187,9.288,3.51,9.624c2.3,2.393,5.314,3.71,8.49,3.71c4.083,0,7.842-2.17,10.148-5.833
			C19.841,3.837,16.083,1.667,12,1.667C7.769,1.667,3.881,4,1.604,7.912c-0.233,0.4-0.758,0.544-1.168,0.314
			C0.022,8-0.122,7.491,0.112,7.089C2.697,2.651,7.144,0,12,0c4.857,0,9.303,2.65,11.889,7.09c0.148,0.255,0.148,0.566,0,0.821
			C21.303,12.348,16.858,15,12,15z"/>
	</g>
	<g>
		<path fill="#BBBBBB" d="M12,11.667c-2.363,0-4.286-1.869-4.286-4.167S9.637,3.333,12,3.333c2.363,0,4.286,1.87,4.286,4.168
			S14.364,11.667,12,11.667z M12,5C10.583,5,9.43,6.123,9.43,7.5C9.43,8.879,10.583,10,12,10c1.418,0,2.57-1.12,2.57-2.499
			C14.571,6.123,13.418,5,12,5z"/>
	</g>
</g>
</svg>
