<?xml version="1.0" encoding="utf-8"?>
<!-- Generator: Adobe Illustrator 16.0.0, SVG Export Plug-In . SVG Version: 6.00 Build 0)  -->
<!DOCTYPE svg PUBLIC "-//W3C//DTD SVG 1.1//EN" "http://www.w3.org/Graphics/SVG/1.1/DTD/svg11.dtd">
<svg version="1.1" id="Layer_1" xmlns="http://www.w3.org/2000/svg" xmlns:xlink="http://www.w3.org/1999/xlink" x="0px" y="0px"
	 width="91px" height="94px" viewBox="0 0 91 94" enable-background="new 0 0 91 94" xml:space="preserve">
<g>
	<g>
		<path fill="#BF9138" d="M45.5,31.428c-3.656,0-7.115-1.548-9.743-4.36c-0.323-0.346-0.305-0.889,0.041-1.211
			c0.346-0.322,0.888-0.305,1.212,0.041c2.3,2.461,5.314,3.816,8.49,3.816c4.083,0,7.842-2.232,10.148-6
			c-2.308-3.767-6.065-6-10.148-6c-4.232,0-8.119,2.401-10.397,6.423c-0.233,0.412-0.758,0.56-1.168,0.323
			c-0.413-0.232-0.557-0.756-0.323-1.169C36.196,18.726,40.643,16,45.5,16s9.303,2.726,11.889,7.292
			c0.148,0.263,0.148,0.583,0,0.845C54.803,28.7,50.356,31.428,45.5,31.428z"/>
	</g>
	<g>
		<path fill="#BF9138" d="M45.5,28c-2.363,0-4.286-1.923-4.286-4.286s1.922-4.286,4.286-4.286c2.363,0,4.286,1.923,4.286,4.286
			S47.862,28,45.5,28z M45.5,21.143c-1.417,0-2.571,1.154-2.571,2.571c0,1.418,1.154,2.57,2.571,2.57c1.418,0,2.57-1.152,2.57-2.57
			C48.069,22.297,46.918,21.143,45.5,21.143z"/>
	</g>
</g>
<g>
	<g>
		<path fill="#BCBCBC" d="M46,54.714c-3.656,0-7.115-1.548-9.743-4.36c-0.323-0.346-0.305-0.889,0.041-1.211
			c0.346-0.322,0.888-0.305,1.212,0.041C39.81,51.645,42.824,53,46,53c4.083,0,7.842-2.232,10.148-6c-2.307-3.767-6.065-6-10.148-6
			c-4.232,0-8.119,2.401-10.397,6.423c-0.233,0.412-0.758,0.56-1.168,0.323c-0.413-0.232-0.557-0.756-0.323-1.169
			c2.585-4.565,7.031-7.291,11.888-7.291c4.857,0,9.303,2.726,11.889,7.292c0.148,0.263,0.148,0.583,0,0.845
			C55.303,51.986,50.857,54.714,46,54.714z"/>
	</g>
	<g>
		<path fill="#BCBCBC" d="M46,51.286c-2.363,0-4.286-1.923-4.286-4.286c0-2.363,1.922-4.286,4.286-4.286
			c2.363,0,4.286,1.923,4.286,4.286C50.286,49.363,48.363,51.286,46,51.286z M46,44.429c-1.417,0-2.571,1.154-2.571,2.571
			c0,1.418,1.154,2.57,2.571,2.57c1.418,0,2.57-1.152,2.57-2.57C48.57,45.583,47.418,44.429,46,44.429z"/>
	</g>
</g>
<path fill="#BCBCBC" d="M57.889,71.077c-1.24-2.19-2.914-3.954-4.852-5.199l2.029-2.03c0.461-0.459,0.517-1.148,0.125-1.539
	c-0.391-0.392-1.078-0.336-1.539,0.125l-2.45,2.45c-1.626-0.717-3.386-1.098-5.202-1.098c-4.857,0-9.303,2.726-11.889,7.292
	c-0.233,0.413-0.089,0.936,0.323,1.169c0.41,0.235,0.935,0.089,1.168-0.323C37.881,67.9,41.768,65.5,46,65.5
	c1.34,0,2.639,0.264,3.867,0.719l-1.639,1.639c-0.651-0.399-1.41-0.643-2.229-0.643c-2.363,0-4.286,1.924-4.286,4.286
	c0,0.819,0.243,1.578,0.643,2.229l-2.143,2.143c-0.975-0.585-1.887-1.313-2.705-2.189c-0.325-0.345-0.866-0.363-1.212-0.041
	c-0.346,0.323-0.364,0.866-0.041,1.213c0.828,0.886,1.746,1.631,2.719,2.256l-2.043,2.043c-0.459,0.461-0.516,1.15-0.125,1.541
	c0.391,0.39,1.08,0.334,1.54-0.127l2.456-2.455c1.634,0.722,3.391,1.103,5.197,1.103c4.857,0,9.303-2.728,11.889-7.292
	C58.037,71.66,58.037,71.34,57.889,71.077z M48.57,71.5c0,1.418-1.152,2.57-2.57,2.57c-0.342,0-0.667-0.069-0.965-0.19l3.345-3.345
	C48.501,70.833,48.57,71.158,48.57,71.5z M43.429,71.5c0-1.417,1.154-2.57,2.571-2.57c0.342,0,0.667,0.069,0.966,0.191l-3.345,3.345
	C43.499,72.167,43.429,71.842,43.429,71.5z M46,77.5c-1.334,0-2.636-0.253-3.872-0.713l1.644-1.645
	c0.651,0.399,1.41,0.644,2.229,0.644c2.362,0,4.286-1.923,4.286-4.286c0-0.818-0.243-1.577-0.643-2.229l2.147-2.149
	c1.717,1.028,3.216,2.513,4.356,4.377C53.842,75.268,50.083,77.5,46,77.5z"/>
</svg>
