<?xml version="1.0" encoding="utf-8"?>
<!-- Generator: Adobe Illustrator 16.0.0, SVG Export Plug-In . SVG Version: 6.00 Build 0)  -->
<!DOCTYPE svg PUBLIC "-//W3C//DTD SVG 1.1//EN" "http://www.w3.org/Graphics/SVG/1.1/DTD/svg11.dtd">
<svg version="1.1" id="Layer_1" xmlns="http://www.w3.org/2000/svg" xmlns:xlink="http://www.w3.org/1999/xlink" x="0px" y="0px"
	 width="24px" height="15px" viewBox="33.5 39.5 24 15" enable-background="new 33.5 39.5 24 15" xml:space="preserve">
<g>
	<g>
		<path fill="#BF9138" d="M45.5,54.5c-3.656,0-7.115-1.505-9.743-4.239c-0.323-0.336-0.305-0.864,0.041-1.177
			c0.346-0.313,0.888-0.297,1.212,0.039c2.3,2.393,5.314,3.711,8.49,3.711c4.083,0,7.842-2.17,10.148-5.834
			c-2.309-3.663-6.065-5.833-10.148-5.833c-4.232,0-8.119,2.334-10.397,6.245c-0.233,0.401-0.758,0.543-1.168,0.314
			c-0.413-0.226-0.557-0.735-0.323-1.137C36.196,42.151,40.643,39.5,45.5,39.5c4.857,0,9.303,2.651,11.889,7.09
			c0.148,0.256,0.148,0.567,0,0.822C54.803,51.848,50.355,54.5,45.5,54.5z"/>
	</g>
	<g>
		<path fill="#BF9138" d="M45.5,51.167c-2.363,0-4.286-1.869-4.286-4.167c0-2.297,1.922-4.167,4.286-4.167
			c2.363,0,4.286,1.869,4.286,4.167C49.786,49.298,47.861,51.167,45.5,51.167z M45.5,44.5c-1.417,0-2.571,1.122-2.571,2.5
			c0,1.379,1.154,2.499,2.571,2.499c1.418,0,2.57-1.12,2.57-2.499C48.068,45.623,46.918,44.5,45.5,44.5z"/>
	</g>
</g>
</svg>
