<svg id="favorite-svg" xmlns="http://www.w3.org/2000/svg" version="1.1" xmlns:xlink="http://www.w3.org/1999/xlink" xmlns:svgjs="http://svgjs.com/svgjs" width="28" height="25" viewBox="0 0 28 25"><title>favorites icon</title><desc>Created with Avocode.</desc><defs id="SvgjsDefs1009"></defs><path d="M1279.87 30.6668C1282.53 30.6668 1284.6699999999998 32.799499999999995 1284.6699999999998 35.4671C1284.6699999999998 38.133900000000004 1279.4699999999998 44.000600000000006 1273.9999999999998 48.533300000000004C1268.5299999999997 43.867000000000004 1263.3299999999997 38.000600000000006 1263.3299999999997 35.4671C1263.3299999999997 32.7995 1265.4699999999998 30.666800000000002 1268.1299999999997 30.666800000000002C1271.3299999999997 30.666800000000002 1273.9999999999995 34.6667 1273.9999999999995 34.6667C1273.9999999999995 34.6667 1276.5299999999995 30.6668 1279.8699999999994 30.6668C1283.1999999999994 30.6668 1279.8699999999994 30.6668 1279.8699999999994 30.6668ZM1274 31.0665C1272.67 29.2009 1270.53 27.9998 1268.13 27.9998C1264 27.9998 1260.67 31.3338 1260.67 35.4671C1260.67 41.333200000000005 1274 51.999700000000004 1274 51.999700000000004C1274 51.999700000000004 1287.33 41.333200000000005 1287.33 35.4671C1287.33 31.333800000000004 1284 27.9998 1279.87 27.9998C1277.4699999999998 27.9998 1275.33 29.2009 1274 31.0665Z " fill="#bf9138" fill-opacity="1" transform="matrix(1,0,0,1,-1260,-27)"></path></svg>