<?xml version="1.0" encoding="utf-8"?>
<!-- Generator: Adobe Illustrator 16.0.0, SVG Export Plug-In . SVG Version: 6.00 Build 0)  -->
<!DOCTYPE svg PUBLIC "-//W3C//DTD SVG 1.1//EN" "http://www.w3.org/Graphics/SVG/1.1/DTD/svg11.dtd">
<svg version="1.1" id="Слой_1" xmlns="http://www.w3.org/2000/svg" xmlns:xlink="http://www.w3.org/1999/xlink" x="0px" y="0px"
	 width="64px" height="64px" viewBox="0 0 64 64" enable-background="new 0 0 64 64" xml:space="preserve">
<g>
	<path fill="#BB912E" d="M32,4c8.438,0,15.54,2.158,20.539,6.24C57.42,14.226,60,19.93,60,26.735
		c0,12.62-8.595,21.399-22.991,23.486c-2.335,0.34-4.608,2.006-5.933,4.349c-0.242,0.429-0.476,0.919-0.676,1.469
		c-0.562-0.958-0.942-1.861-1.004-2.399l-0.291-3.043l-3.013-0.519C12.052,47.662,4,39.153,4,26.735
		c0-6.805,2.58-12.509,7.461-16.495C16.46,6.158,23.562,4,32,4 M32,0C13.148,0,0,10.134,0,26.735
		c0,14.618,9.714,24.583,25.414,27.285C25.688,56.89,29.778,64,34.756,64c-2.756-6.556,1.011-9.556,2.827-9.819
		C53.778,51.833,64,41.663,64,26.735C64,10.134,50.852,0,32,0L32,0z"/>
</g>
<path fill="#BF9138" d="M37.937,20.667c2.7,0,4.86,2.133,4.86,4.8s-5.264,8.534-10.799,13.066
	C26.462,33.866,21.197,28,21.197,25.467c0-2.667,2.16-4.8,4.86-4.8c3.24,0,5.939,4,5.939,4S34.563,20.667,37.937,20.667 M37.937,18
	c-2.429,0-4.589,1.201-5.938,3.067C30.648,19.201,28.488,18,26.06,18c-4.186,0-7.56,3.334-7.56,7.467C18.5,31.333,32,42,32,42
	s13.5-10.667,13.5-16.533C45.498,21.334,42.123,18,37.937,18L37.937,18z"/>
</svg>
