<?xml version="1.0" encoding="utf-8"?>
<!-- Generator: Adobe Illustrator 16.0.0, SVG Export Plug-In . SVG Version: 6.00 Build 0)  -->
<!DOCTYPE svg PUBLIC "-//W3C//DTD SVG 1.1//EN" "http://www.w3.org/Graphics/SVG/1.1/DTD/svg11.dtd">
<svg version="1.1" id="Layer_1" xmlns="http://www.w3.org/2000/svg" xmlns:xlink="http://www.w3.org/1999/xlink" x="0px" y="0px"
	 width="48px" height="48px" viewBox="3 3 48 48" enable-background="new 3 3 48 48" xml:space="preserve">
<g>
	<circle fill="#252229" cx="27" cy="27" r="24"/>
	<path fill="#BB912E" d="M35,15H19C16.791,15,15,16.791,15,19v16c0,2.209,1.791,4,4.001,4h16c2.209,0,4-1.791,4-4V19
		C39,16.791,37.209,15,35,15z M32.994,17.843h4v4h-4V17.843z M27,22.938c2.209,0,4,1.791,4,4s-1.791,4-4,4c-2.209,0-4-1.791-4-4
		S24.791,22.938,27,22.938z M37,35c0,1.103-0.896,2-2,2H19C17.897,37,17,36.103,17,35V24.833h3.335
		C20.119,25.507,20,26.224,20,26.969c0,3.866,3.135,7,7,7c3.868,0,7-3.134,7-7c0-0.745-0.119-1.462-0.334-2.136H37V35z"/>
</g>
</svg>
