<?xml version="1.0" encoding="utf-8"?>
<!-- Generator: Adobe Illustrator 16.0.0, SVG Export Plug-In . SVG Version: 6.00 Build 0)  -->
<!DOCTYPE svg PUBLIC "-//W3C//DTD SVG 1.1//EN" "http://www.w3.org/Graphics/SVG/1.1/DTD/svg11.dtd">
<svg version="1.1" id="Layer_1" xmlns="http://www.w3.org/2000/svg" xmlns:xlink="http://www.w3.org/1999/xlink" x="0px" y="0px"
	 width="54px" height="54px" viewBox="1.346 1.346 54 54" enable-background="new 1.346 1.346 54 54" xml:space="preserve">
<g>
	<circle fill="#252229" cx="28.346" cy="28.346" r="27"/>
	<path fill="#FFFFFF" d="M36.47,16.277H19.908c-2.881,0-5.221,2.341-5.221,5.217v5.512v11.053c0,2.877,2.341,5.218,5.221,5.218
		h16.563c2.878,0,5.218-2.341,5.218-5.218V27.006v-5.512C41.689,18.617,39.348,16.277,36.47,16.277z M37.969,19.388l0.597-0.001
		v0.594v3.983L34,23.978l-0.015-4.572L37.969,19.388z M24.335,27.006c0.866-1.196,2.268-1.981,3.854-1.981
		c1.587,0,2.989,0.781,3.853,1.981c0.563,0.781,0.903,1.736,0.903,2.771c0,2.62-2.134,4.756-4.756,4.756s-4.751-2.134-4.751-4.756
		C23.438,28.742,23.773,27.787,24.335,27.006z M39.058,38.059c0,1.428-1.16,2.586-2.588,2.586H19.908
		c-1.431,0-2.591-1.158-2.591-2.586V27.006h4.031c-0.349,0.856-0.541,1.791-0.541,2.771c0,4.07,3.308,7.384,7.383,7.384
		c4.075,0,7.384-3.313,7.384-7.384c0-0.98-0.196-1.915-0.545-2.771h4.031v11.053H39.058z"/>
</g>
</svg>
