<?xml version="1.0" encoding="utf-8"?>
<!-- Generator: Adobe Illustrator 16.0.0, SVG Export Plug-In . SVG Version: 6.00 Build 0)  -->
<!DOCTYPE svg PUBLIC "-//W3C//DTD SVG 1.1//EN" "http://www.w3.org/Graphics/SVG/1.1/DTD/svg11.dtd">
<svg version="1.1" id="Слой_1" xmlns="http://www.w3.org/2000/svg" xmlns:xlink="http://www.w3.org/1999/xlink" x="0px" y="0px"
	 width="57px" height="48px" viewBox="0 0 57 48" enable-background="new 0 0 57 48" xml:space="preserve">
<g>
	<path fill="#BF9138" d="M40.561,8.099c0.459-3.111,0.432-6.158-3.141-7.646c0,0-4.499-2.242-8.66,3.246
		c-1.939-1.119-4.123-1.712-6.38-1.712c-4.153,0-8.063,2.017-10.457,5.393c-2.785,3.93-3.101,9.063-0.876,13.287L0.639,35.349
		c-1.11,1.563-0.735,3.737,0.836,4.846l6.533,4.604c0.592,0.416,1.288,0.639,2.011,0.639c1.131,0,2.197-0.551,2.85-1.473
		l0.447-0.631c1.084-1.527,0.754-3.634-0.723-4.764l1.122-1.582c0.567,0.365,1.218,0.561,1.896,0.561
		c1.127,0,2.186-0.545,2.84-1.459c1.111,2.482,2.711,4.744,4.764,6.623C26.941,46.122,31.779,48,36.84,48
		c11.115,0,20.159-9.015,20.159-20.093C56.998,17.976,49.879,9.711,40.561,8.099z M36.627,2.115c2.789,1.269,2.419,3.5,1.993,5.749
		c-0.458-0.032-0.919-0.055-1.386-0.055c-0.148,0-0.299,0.002-0.448,0.004l-0.668,0.015c-0.854,0.015-0.999,0.021-1.943,0.155
		l-0.88,0.125c-0.79-1.291-1.818-2.43-3.039-3.385C33.35,0.734,36.627,2.115,36.627,2.115z M14.949,31.231l1.781,1.258
		c0.254,0.179,0.422,0.443,0.477,0.75c0.052,0.304-0.018,0.609-0.197,0.863l-0.445,0.633c-0.357,0.502-1.112,0.636-1.623,0.277
		l-1.783-1.26L9.354,39.12l1.786,1.256c0.523,0.369,0.648,1.094,0.278,1.615l-0.448,0.633c-0.356,0.502-1.112,0.635-1.621,0.277
		l-6.534-4.603c-0.522-0.368-0.648-1.094-0.278-1.614l10.697-15.092l0.613-0.742l-0.425-0.699
		c-2.162-3.555-2.006-8.043,0.397-11.434c1.959-2.763,5.158-4.412,8.559-4.412c1.809,0,3.555,0.467,5.118,1.346
		c-0.208,0.369-0.414,0.757-0.616,1.173c-0.555-0.243-1.15-0.38-1.766-0.38c-1.407,0-2.727,0.678-3.53,1.811
		c-0.67,0.944-0.924,2.096-0.712,3.243c0.208,1.138,0.85,2.134,1.803,2.806c0.754,0.533,1.639,0.813,2.557,0.813
		c1.408,0,2.726-0.677,3.529-1.81c0.67-0.943,0.924-2.096,0.713-3.242c-0.146-0.812-0.522-1.545-1.066-2.146
		c0.193-0.44,0.395-0.856,0.598-1.237c1.947,1.59,3.248,3.793,3.68,6.289c0.475,2.748-0.153,5.514-1.768,7.789
		c-1.389,1.953-3.396,3.334-5.658,3.983c-0.988,0.218-2.111,0.349-3.387,0.399c-0.548-0.026-1.098-0.082-1.635-0.192l-0.809-0.167
		l-0.424,0.706L14.949,31.231z M25.355,11.847c0.205,0.483,0.65,0.588,1.011,0.588c-0.681,0.446-1.646,0.474-2.349-0.021
		c-0.455-0.32-0.761-0.792-0.856-1.33c-0.099-0.529,0.019-1.059,0.325-1.488c0.367-0.52,0.977-0.83,1.629-0.83
		c0.293,0,0.578,0.066,0.845,0.186c-0.168,0.438-0.334,0.888-0.499,1.367C25.462,10.315,25.174,11.411,25.355,11.847z M36.84,45.681
		c-9.296,0-16.928-7.093-17.753-16.146l1.354-1.907c0.031-0.045,0.049-0.094,0.076-0.14c0.439,0,0.873-0.008,1.301-0.022
		c0.183,0.011,0.363,0.021,0.545,0.021c0.002,0,0.002,0,0.002,0c1.22,0,2.418-0.178,3.564-0.51c2.559-0.593,4.789-1.797,6.453-4.143
		c2.658-3.75,3.715-7.502,2.118-12.555c1.038-0.146,0.88-0.113,2.339-0.146c0.133-0.003,0.264-0.004,0.395-0.004
		c9.664,0,17.438,8.094,17.438,17.777C54.672,37.722,46.688,45.681,36.84,45.681z"/>
	<path fill="#BF9138" d="M41.248,10.672c0,0.001-0.002,0.003-0.002,0.005c0.076,0.034,0.148,0.07,0.225,0.104L41.248,10.672z"/>
	<path fill="#BF9138" d="M40.557,27.765L40.5,27.713c0.645-2.146-0.012-3.649-1.047-4.582c-1.526-1.372-4.084-1.524-6.223,0.841
		c-1.938,2.141-2.098,4.959-0.158,6.702c1.058,0.949,2.639,1.313,4.5,0.539l0.074,0.03c-0.721,2.076-0.459,3.979,1.086,5.367
		c1.791,1.609,4.705,1.439,7.021-1.112c2.104-2.328,2.321-5.437,0.19-7.349C44.458,26.812,42.535,26.784,40.557,27.765z
		 M34.371,29.015c-1.055-0.947-1.28-2.513-0.039-3.884c1.343-1.481,2.884-1.149,3.863-0.271c1.111,0.998,1.135,2.482,0.543,3.855
		C37.086,29.786,35.598,30.114,34.371,29.015z M44.579,34.379c-1.411,1.56-3.351,1.515-4.544,0.341
		c-1.166-1.05-1.413-2.664-0.537-4.466c1.968-1.229,3.617-1.618,5.104-0.28C45.866,31.104,45.924,32.894,44.579,34.379z"/>
</g>
</svg>
