<?xml version="1.0" encoding="utf-8"?>
<!-- Generator: Adobe Illustrator 16.0.0, SVG Export Plug-In . SVG Version: 6.00 Build 0)  -->
<!DOCTYPE svg PUBLIC "-//W3C//DTD SVG 1.1//EN" "http://www.w3.org/Graphics/SVG/1.1/DTD/svg11.dtd">
<svg version="1.1" id="Слой_1" xmlns="http://www.w3.org/2000/svg" xmlns:xlink="http://www.w3.org/1999/xlink" x="0px" y="0px"
	 width="76px" height="64px" viewBox="0 0 76 64" enable-background="new 0 0 76 64" xml:space="preserve">
<g>
	<rect fill="none" width="76" height="64"/>
	<g>
		<path fill="#BF9138" d="M54.082,10.798c0.611-4.15,0.572-8.21-4.188-10.194c0,0-6-2.989-11.547,4.327
			C35.762,3.439,32.85,2.65,29.84,2.65c-5.539,0-10.751,2.688-13.943,7.189c-3.713,5.238-4.134,12.083-1.167,17.715L0.852,47.13
			c-1.481,2.089-0.981,4.985,1.114,6.464l8.711,6.135c0.79,0.557,1.717,0.853,2.683,0.853c1.509,0,2.93-0.733,3.8-1.963l0.597-0.841
			c1.444-2.037,1.004-4.846-0.964-6.353l1.496-2.108c0.755,0.486,1.625,0.746,2.527,0.746c1.503,0,2.914-0.728,3.785-1.943
			c1.483,3.311,3.615,6.324,6.353,8.828C35.92,61.496,42.373,64,49.121,64C63.939,64,76,51.98,76,37.211
			C76,23.968,66.507,12.947,54.082,10.798z M48.837,2.82c3.72,1.691,3.226,4.667,2.66,7.665c-0.61-0.043-1.229-0.073-1.851-0.073
			c-0.196,0-0.396,0.002-0.599,0.007l-0.894,0.018c-1.137,0.02-1.332,0.029-2.592,0.208l-1.174,0.166
			c-1.052-1.722-2.424-3.242-4.05-4.515C44.469,0.979,48.837,2.82,48.837,2.82z M19.933,41.643l2.377,1.676
			c0.338,0.238,0.563,0.594,0.633,1c0.07,0.406-0.022,0.815-0.262,1.154l-0.596,0.842c-0.477,0.668-1.484,0.848-2.162,0.371
			l-2.379-1.679l-5.072,7.156l2.381,1.674c0.697,0.492,0.863,1.459,0.371,2.153l-0.597,0.842c-0.476,0.67-1.484,0.848-2.161,0.371
			l-8.711-6.137c-0.698-0.492-0.864-1.459-0.372-2.153l14.264-20.125l0.817-0.989l-0.565-0.932
			c-2.882-4.741-2.675-10.723,0.529-15.244c2.612-3.684,6.878-5.883,11.412-5.883c2.411,0,4.741,0.622,6.825,1.793
			c-0.278,0.493-0.552,1.009-0.822,1.565c-0.739-0.324-1.534-0.506-2.354-0.506c-1.875,0-3.634,0.902-4.704,2.413
			c-0.894,1.258-1.232,2.794-0.951,4.324c0.277,1.518,1.132,2.847,2.404,3.743c1.006,0.709,2.186,1.082,3.41,1.082
			c1.875,0,3.636-0.899,4.705-2.411c0.894-1.26,1.231-2.796,0.949-4.325c-0.195-1.082-0.697-2.06-1.424-2.861
			c0.262-0.588,0.523-1.143,0.797-1.65c2.598,2.119,4.332,5.056,4.906,8.386c0.632,3.663-0.204,7.35-2.355,10.383
			c-1.849,2.604-4.529,4.447-7.545,5.313c-1.318,0.289-2.814,0.463-4.517,0.531c-0.732-0.035-1.464-0.106-2.18-0.258l-1.078-0.223
			L25.34,33.98L19.933,41.643z M33.811,15.793c0.271,0.646,0.867,0.785,1.347,0.785c-0.907,0.595-2.193,0.631-3.132-0.03
			c-0.606-0.427-1.012-1.057-1.144-1.773c-0.129-0.705,0.024-1.41,0.435-1.986c0.488-0.692,1.303-1.105,2.172-1.105
			c0.392,0,0.771,0.088,1.127,0.246c-0.227,0.582-0.446,1.184-0.665,1.823C33.95,13.751,33.566,15.213,33.811,15.793z
			 M49.121,60.904c-12.395,0-22.571-9.454-23.672-21.523l1.805-2.545c0.042-0.059,0.066-0.123,0.104-0.184
			c0.586,0,1.162-0.012,1.735-0.031c0.242,0.012,0.483,0.025,0.727,0.025c0.001,0,0.001,0,0.001,0c1.626,0,3.225-0.237,4.753-0.681
			c3.414-0.788,6.389-2.396,8.604-5.523c3.545-5,4.953-10.002,2.824-16.738c1.385-0.196,1.174-0.151,3.119-0.196
			c0.176-0.004,0.352-0.006,0.523-0.006c12.887,0,23.252,10.792,23.252,23.707C72.898,50.296,62.254,60.904,49.121,60.904z"/>
		<path fill="#BF9138" d="M54.999,14.229c0,0.002-0.001,0.004-0.001,0.007c0.102,0.045,0.197,0.093,0.297,0.139L54.999,14.229z"/>
		<path fill="#BF9138" d="M54.075,37.02l-0.073-0.066c0.857-2.862-0.016-4.869-1.396-6.11c-2.033-1.828-5.446-2.035-8.297,1.118
			c-2.584,2.855-2.797,6.614-0.211,8.939c1.407,1.265,3.519,1.752,6,0.718l0.1,0.042c-0.959,2.771-0.609,5.306,1.449,7.158
			c2.388,2.146,6.274,1.918,9.359-1.485c2.805-3.104,3.096-7.247,0.256-9.797C59.277,35.748,56.716,35.713,54.075,37.02z
			 M45.83,38.686c-1.407-1.264-1.708-3.35-0.053-5.176c1.789-1.979,3.845-1.536,5.152-0.359c1.479,1.33,1.512,3.312,0.721,5.142
			C49.45,39.715,47.463,40.15,45.83,38.686z M59.441,45.837c-1.883,2.078-4.469,2.021-6.06,0.453
			c-1.556-1.396-1.886-3.554-0.718-5.953c2.623-1.637,4.824-2.157,6.807-0.374C61.157,41.475,61.23,43.857,59.441,45.837z"/>
	</g>
</g>
</svg>
