<?xml version="1.0" encoding="utf-8"?>
<!-- Generator: Adobe Illustrator 16.0.0, SVG Export Plug-In . SVG Version: 6.00 Build 0)  -->
<!DOCTYPE svg PUBLIC "-//W3C//DTD SVG 1.1//EN" "http://www.w3.org/Graphics/SVG/1.1/DTD/svg11.dtd">
<svg version="1.1" id="Layer_1" xmlns="http://www.w3.org/2000/svg" xmlns:xlink="http://www.w3.org/1999/xlink" x="0px" y="0px"
	 width="58px" height="46px" viewBox="0 0 58 46" enable-background="new 0 0 58 46" xml:space="preserve">
<rect fill="none" width="58" height="46"/>
<path fill="#BF9138" d="M57.998,1.3c0-0.718-0.68-1.3-1.402-1.3H37.249c-4.854,0-6.665,1.789-7.114,2.352l-0.123,0.17v0.002
	l-0.385,0.522l0,0c-0.516,0.702-0.962,0.403-1.176,0.173l-0.732-0.908l-0.361-0.435C26.749,1.243,25.161,0,22.018,0H1.403
	C0.681,0,0,0.583,0,1.3v39.03c0,0.775,0.633,1.404,1.414,1.404h16.538c6.002,0,8.616,2.252,9.401,3.113l0.447,0.551h0.002
	c0,0,1.199,1.352,2.463,0l0,0l0.264-0.305l0,0l0.005-0.003l0.336-0.39c0.01-0.014,0.09-0.104,0.205-0.223
	c1.002-0.967,3.505-2.746,8.399-2.746h17.111c0.781,0,1.414-0.629,1.414-1.405V1.3H57.998z M54.988,37.625
	c0,0.624-0.522,1.126-1.176,1.126H38.62c-6.161,0-8.295,2.377-8.295,2.377l-0.462,0.522l-0.122,0.166l0,0
	c-0.742,0.822-1.337,0.008-1.341,0.004l-0.715-0.756c-0.649-0.646-3.459-2.313-8.572-2.313H4.184c-0.649,0-1.174-0.505-1.174-1.126
	V3.887c0-0.623,0.524-1.127,1.174-1.127h17.317c5.979,0,5.849,4.859,5.909,6.418v23.966c0,1.705,0.818,2.025,1.277,2.071h0.687
	c0.469-0.047,1.216-0.323,1.216-1.653V9.379l-0.006,0.249c0.07-1.95,0.075-6.868,5.788-6.868h17.438c0.65,0,1.178,0.504,1.178,1.127
	V37.625L54.988,37.625z"/>
</svg>
