<?xml version="1.0" encoding="utf-8"?>
<!-- Generator: Adobe Illustrator 16.0.0, SVG Export Plug-In . SVG Version: 6.00 Build 0)  -->
<!DOCTYPE svg PUBLIC "-//W3C//DTD SVG 1.1//EN" "http://www.w3.org/Graphics/SVG/1.1/DTD/svg11.dtd">
<svg version="1.1" id="Layer_1" xmlns="http://www.w3.org/2000/svg" xmlns:xlink="http://www.w3.org/1999/xlink" x="0px" y="0px"
	 width="48px" height="48px" viewBox="0 0 48 48" enable-background="new 0 0 48 48" xml:space="preserve">
<g>
	<rect fill="none" width="48" height="48"/>
	<g id="like">
		<path fill="#BF9138" d="M43.746,15.707c-1.875-0.492-6.283-0.486-12.732-0.657c0.305-1.407,0.375-2.676,0.375-4.929
			C31.391,4.738,27.469,0,24,0c-2.45,0-4.469,2.002-4.5,4.466c-0.033,3.021-0.968,8.238-6,10.884
			c-0.369,0.195-1.425,0.715-1.58,0.783L12,16.2c-0.788-0.681-1.879-1.2-3-1.2H4.5C2.02,15,0,17.019,0,19.5v24
			C0,45.98,2.02,48,4.5,48H9c1.785,0,3.279-1.078,4.002-2.59c0.018,0.006,0.049,0.014,0.07,0.016
			c0.099,0.027,0.216,0.057,0.359,0.094c0.025,0.008,0.039,0.012,0.067,0.021c0.864,0.213,2.526,0.609,6.082,1.43
			C20.343,47.145,24.37,48,28.54,48h8.198c2.498,0,4.302-0.959,5.373-2.891c0.017-0.029,0.359-0.705,0.642-1.613
			c0.211-0.688,0.291-1.656,0.037-2.641c1.608-1.107,2.129-2.783,2.467-3.871c0.563-1.787,0.396-3.129,0.002-4.09
			c0.906-0.854,1.679-2.158,2.005-4.148c0.202-1.23-0.017-2.502-0.582-3.559c0.852-0.954,1.235-2.154,1.28-3.266l0.017-0.313
			C47.992,21.412,48,21.291,48,20.859C48,18.964,46.688,16.546,43.746,15.707z M10.5,43.5c0,0.828-0.671,1.5-1.5,1.5H4.5
			C3.67,45,3,44.328,3,43.5v-24c0-0.83,0.67-1.5,1.5-1.5H9c0.829,0,1.5,0.67,1.5,1.5V43.5z M44.965,21.802
			C44.936,22.542,44.625,24,42,24c-2.25,0-3,0-3,0c-0.416,0-0.75,0.336-0.75,0.75c0,0.412,0.334,0.75,0.75,0.75c0,0,0.656,0,2.906,0
			s2.547,1.865,2.4,2.766c-0.186,1.119-0.709,3.234-3.244,3.234c-2.528,0-3.563,0-3.563,0c-0.416,0-0.75,0.332-0.75,0.75
			c0,0.412,0.334,0.75,0.75,0.75c0,0,1.781,0,2.953,0c2.531,0,2.309,1.93,1.945,3.08C41.919,37.598,41.628,39,38.438,39
			c-1.078,0-2.445,0-2.445,0c-0.416,0-0.75,0.332-0.75,0.75c0,0.412,0.334,0.75,0.75,0.75c0,0,1.039,0,2.352,0
			c1.641,0,1.717,1.551,1.547,2.109c-0.188,0.609-0.408,1.061-0.418,1.08C39.018,44.506,38.289,45,36.743,45h-8.199
			c-4.12,0-8.205-0.936-8.312-0.959c-6.23-1.436-6.56-1.547-6.95-1.656c0,0-1.269-0.215-1.269-1.322L12,20.343
			c0-0.703,0.448-1.34,1.191-1.563c0.093-0.036,0.219-0.075,0.309-0.112c6.852-2.838,8.938-9.06,9-14.169
			C22.509,3.781,23.063,3,24,3c1.585,0,4.389,3.184,4.389,7.122c0,3.558-0.144,4.172-1.39,7.878c15,0,14.894,0.216,16.219,0.563
			C44.859,19.033,45,20.392,45,20.859C45,21.374,44.984,21.296,44.965,21.802z"/>
		<path fill="#BF9138" d="M6.75,39c-1.242,0-2.25,1.008-2.25,2.25c0,1.24,1.008,2.25,2.25,2.25S9,42.49,9,41.25
			C9,40.008,7.993,39,6.75,39z M6.75,42C6.337,42,6,41.662,6,41.25c0-0.414,0.337-0.75,0.75-0.75c0.412,0,0.75,0.336,0.75,0.75
			C7.5,41.662,7.163,42,6.75,42z"/>
	</g>
</g>
</svg>
