<?xml version="1.0" encoding="utf-8"?>
<!-- Generator: Adobe Illustrator 16.0.0, SVG Export Plug-In . SVG Version: 6.00 Build 0)  -->
<!DOCTYPE svg PUBLIC "-//W3C//DTD SVG 1.1//EN" "http://www.w3.org/Graphics/SVG/1.1/DTD/svg11.dtd">
<svg version="1.1" id="Слой_1" xmlns="http://www.w3.org/2000/svg" xmlns:xlink="http://www.w3.org/1999/xlink" x="0px" y="0px"
	 width="150px" height="43px" viewBox="0 0 150 43" enable-background="new 0 0 150 43" xml:space="preserve">
<g id="Слой_x0020_1">
	<path fill="#2B2A29" d="M92.542,19.954c-0.068-7.191-0.061-8.682,0.117-15.15c1.299-0.84,2.375-2.563,5.781-2.563
		c1.633,0,3.607,0.532,4.352,1.303c0.924,0.953,0.969,2.33,0.98,3.211c0.021,2.025-0.07,7.385-0.123,8.914
		c-0.059,1.529-0.133,2.521-0.24,4.319l0.215,0.272l2.729-0.082l0.279-0.227c-0.064-3.216-0.045-3.83,0-7.848l0.047-3.898
		c0.029-2.908,0.104-4.767-1.467-6.271c-1.857-1.787-5.064-1.799-5.928-1.799c-3.678,0-4.697,1.455-6.639,2.449l0.246-1.951
		l-0.264-0.229L89.843,0.79l-0.234,0.264c0.215,2.979,0.215,3.936,0.121,8.281c-0.039,1.989-0.045,4.01-0.111,5.996
		c-0.061,1.642-0.137,2.598-0.254,4.695l0.219,0.238l2.682-0.082L92.542,19.954z M67.055,8.177c0.75-3.246,3.149-6.159,6.733-6.159
		c3.867,0,5.984,2.542,6.154,6.159H67.055z M82.88,9.895c0.021-1.95,0.066-4.589-1.896-6.843c-1.965-2.258-4.225-3.039-7.037-3.039
		c-6.724,0-9.808,4.416-10.017,10.424c-0.199,5.773,2.666,10.396,10.067,10.396c3.908,0,5.904-1.186,7.841-2.102l0.24-0.385
		l0.256-2.178l-0.357-0.191c-1.117,0.807-3.5,2.746-7.677,2.746c-1.997,0-4.773-0.791-6.645-4.387
		c-0.852-1.641-0.852-2.981-0.852-4.207h15.796L82.88,9.895z M45.814,17.057c-0.076,0.991-0.102,1.661-0.361,2.618l0.221,0.303
		c1.111,0.538,1.604,1.261,5.146,1.261c6.816-0.005,8.582-3.687,8.67-6.325c0.133-3.789-3.595-5.072-5.219-5.465
		c-2.063-0.496-5.494-1.099-5.824-3.727c-0.229-1.818,1.627-3.729,3.813-3.729c3.002-0.005,4.865,1.176,5.934,1.863l0.23-0.076
		l0.393-2.218l-0.173-0.269c-1.838-0.613-3.183-1.281-5.771-1.281c-6.086,0.005-7.43,3.586-7.471,5.529
		c-0.178,8.084,11.521,4.418,11.172,9.674c-0.184,2.832-2.951,3.793-5.4,3.793c-2.083,0-3.396-0.779-4.988-2.071L45.814,17.057z
		 M39.416,7.038c1.422-3.022,1.764-3.711,3.121-6.158l-0.313-0.31h-1.72l-0.467,0.31c-1.959,5.475-4.7,10.934-7.02,16.141
		l-2.926-7.344L26.715,0.88l-0.397-0.27l-3.396,0.005L22.636,0.96c1.143,2.371,1.292,2.76,2.275,5.045
		c2.759,6.396,3.556,8.023,6.107,14.299c-1.997,4.467-4.008,8.357-6.428,12.625l0.266,0.23l2.363-0.006l0.328-0.229
		c0.203-0.572,2.348-4.912,2.578-5.489c1.015-2.593,3.451-8.001,5.758-12.899L39.416,7.038z M3.18,19.972
		c-0.071-7.191-0.067-8.68,0.112-15.148C4.595,3.983,6.3,2.261,9.705,2.261c1.635,0,2.873,0.533,3.621,1.302
		c0.918,0.953,0.971,2.33,0.979,3.211c0.02,2.024-0.077,7.384-0.128,8.914c-0.052,1.53-0.134,2.521-0.24,4.319l0.22,0.274
		l2.922-0.082l0.281-0.231c-0.068-3.211-0.047-3.824,0-7.842l0.045-3.899c0.031-2.908,0.104-4.767-1.465-6.274
		c-1.859-1.783-4.523-1.794-5.387-1.794c-3.684,0-5.331,1.454-7.277,2.446l0.252-1.95L3.26,0.427l-2.783,0.38L0.244,1.075
		c0.213,2.979,0.209,3.936,0.123,8.28c-0.041,1.989-0.045,4.01-0.117,5.996C0.193,16.993,0.117,17.949,0,20.048l0.22,0.238
		L2.9,20.199L3.18,19.972z M113.269,17.04c-0.076,0.992-0.104,1.662-0.363,2.619l0.219,0.311c1.119,0.531,1.605,1.257,5.146,1.257
		c6.814-0.005,8.584-3.688,8.67-6.326c0.133-3.789-3.596-5.069-5.217-5.465c-2.064-0.496-5.494-1.099-5.826-3.728
		c-0.23-1.818,1.629-3.729,3.816-3.729c2.998,0,4.861,1.175,5.93,1.863l0.229-0.076l0.395-2.219l-0.176-0.27
		c-1.838-0.611-3.182-1.281-5.77-1.277c-6.086,0-7.43,3.582-7.471,5.526c-0.18,8.083,11.52,4.416,11.172,9.673
		c-0.184,2.831-2.949,3.795-5.402,3.795c-2.082,0-3.395-0.781-4.988-2.074L113.269,17.04z M134.167,8.163
		c0.75-3.242,3.154-6.16,6.734-6.16c3.865,0,5.99,2.543,6.158,6.16H134.167L134.167,8.163z M149.995,9.878
		c0.021-1.949,0.066-4.586-1.898-6.84c-1.967-2.26-4.219-3.039-7.035-3.039c-6.721,0-9.811,4.416-10.014,10.422
		c-0.197,5.773,2.664,10.404,10.068,10.398c3.906,0,5.895-1.186,7.836-2.102l0.24-0.379l0.254-2.185l-0.354-0.192
		c-1.115,0.807-3.502,2.746-7.684,2.746c-1.996,0.006-4.77-0.791-6.643-4.386c-0.854-1.64-0.85-2.983-0.854-4.208h15.799
		L149.995,9.878z M65.527,35.624c1.405-0.254,2.568-0.709,3.482-1.369c0.919-0.658,1.47-1.428,1.67-2.317
		c0.146-0.685,0.098-1.293-0.148-1.825c-0.25-0.531-0.678-0.971-1.295-1.326c-0.961,0.657-1.701,1.418-2.228,2.272
		c-0.521,0.853-0.949,2.03-1.282,3.536c-0.021,0.101-0.056,0.268-0.097,0.5C65.583,35.329,65.554,35.501,65.527,35.624z
		 M68.964,28.675c-0.28-0.086-0.559-0.151-0.84-0.205c-0.279-0.047-0.569-0.073-0.871-0.073c-1.676,0.005-3.206,0.472-4.59,1.397
		c-0.652,0.439-1.939,1.686-2.45,2.871c-0.24,0.559-0.333,1.227-0.134,1.748c0.803,2.129,4.104-0.467,3.711-2.582
		c-0.092-0.486,0.188,0.062,0.188,0.403c0.021,1.972-1.771,3.892-3.731,3.599c-1.586-0.233-1.944-1.304-1.612-2.816
		c0.137-0.635,0.5-1.271,1.087-1.895c0.582-0.629,1.332-1.188,2.252-1.693c0.837-0.453,1.734-0.803,2.689-1.047
		c0.949-0.244,1.891-0.366,2.813-0.366c1.659,0,2.957,0.347,3.886,1.04c0.928,0.697,1.275,1.564,1.045,2.604
		c-0.219,0.992-0.935,1.868-2.16,2.635c-1.215,0.76-2.816,1.326-4.805,1.701c-0.016,0.07-0.029,0.156-0.045,0.264
		c-0.017,0.104-0.031,0.186-0.041,0.244c-0.429,1.938-1.298,3.508-2.595,4.705c-1.302,1.193-2.763,1.793-4.375,1.793
		c-1.194,0-2.101-0.33-2.711-0.988c-0.608-0.657-0.804-1.499-0.578-2.518c0.138-0.64,0.414-1.154,0.827-1.55
		c0.419-0.396,0.879-0.593,1.384-0.593c0.341,0,0.597,0.098,0.771,0.298c0.18,0.19,0.229,0.444,0.164,0.75
		c-0.07,0.323-0.246,0.587-0.521,0.785c-0.271,0.204-0.604,0.31-0.977,0.31c-0.086,0.133-0.157,0.264-0.213,0.405
		c-0.063,0.142-0.104,0.272-0.135,0.406c-0.142,0.669-0.023,1.221,0.357,1.649c0.395,0.432,0.96,0.646,1.715,0.646
		c0.686,0,1.333-0.161,1.932-0.479c0.603-0.317,1.148-0.795,1.645-1.422c0.605-0.808,1.261-2.529,1.949-5.162l0.017-0.024
		c0.476-1.776,1.052-3.109,1.751-4.003C66.468,30.624,67.529,29.677,68.964,28.675z M75.326,35.122
		c-0.455,2.131-0.705,2.905-1.246,3.914c-0.625,1.125-1.194,1.678-1.803,1.678c-0.531,0.004-0.843-0.453-0.818-1.201
		c0.037-1.064,0.625-2.62,1.304-3.709c0.763-1.209,1.267-1.355,2.653-1.163L75.326,35.122z M76.509,39.583
		c-0.355,0.756-0.668,1.08-0.996,1.08c-0.203,0-0.3-0.147-0.291-0.477c0.004-0.098,0.01-0.249,0.041-0.374l1.296-5.42
		c-0.41,0.005-1.269,0.075-1.154,0.081c0.051,0-2.033-0.922-3.535,0.543c-1.26,1.23-1.455,3.186-1.484,4.091
		c-0.041,1.206,0.541,1.966,1.477,1.966s1.709-0.658,2.521-2.139c-0.063,0.352-0.066,0.501-0.107,0.928
		c-0.031,0.825,0.234,1.236,0.814,1.236c0.63,0,1.207-0.559,1.589-1.516H76.509L76.509,39.583z M78.267,35.766
		c0.326-0.693,0.535-0.921,0.785-0.921c0.203,0,0.32,0.148,0.316,0.437c-0.006,0.101-0.035,0.281-0.092,0.459l-1.297,5.328h0.959
		c0.291-1.149,0.633-2.226,0.959-2.997l0.332-0.775c0.547-1.287,1.123-2.285,1.502-2.498c0.629-0.354,1.828,0.318,1.057,1.281
		c-0.061,0.076-0.832-0.396-1.127,0.168c-0.42,0.871,0.457,1.327,1.23,0.733c0.633-0.519,0.744-1.817,0.016-2.313
		c-0.219-0.146-0.506-0.254-0.736-0.254c-0.703,0.006-1.178,0.635-2.088,2.756c-0.219,0.5-0.328,0.729-0.547,1.176
		c0.063-0.325,0.117-0.496,0.211-0.947c0.271-1.251,0.395-1.809,0.402-2.115c0.021-0.59-0.227-0.888-0.678-0.888
		c-0.527,0-0.973,0.399-1.387,1.3L78.267,35.766z M86.829,30.401c-0.352,0-0.688,0.299-0.703,0.676
		c-0.012,0.379,0.307,0.676,0.658,0.676c0.377,0,0.693-0.297,0.703-0.676C87.501,30.7,87.208,30.401,86.829,30.401z M83.874,35.669
		c0.5-0.604,0.838-0.902,1.063-0.902c0.178,0,0.225,0.146,0.209,0.576c-0.004,0.225-0.268,1.183-0.559,2.185
		c-0.26,0.978-0.545,2.005-0.561,2.386c-0.021,0.674,0.412,1.18,1.072,1.18c0.557,0,0.971-0.379,1.563-1.408l-0.174-0.075
		c-0.459,0.826-0.746,1.104-1.047,1.104c-0.254,0-0.449-0.203-0.439-0.502c0.025-0.779,1.127-4.117,1.152-4.816
		c0.021-0.629-0.244-0.982-0.775-0.982c-0.557,0-1.02,0.354-1.66,1.18L83.874,35.669z M90.862,34.386
		c-1.164,0-2.072,0.729-2.104,1.684c-0.021,0.602,0.266,1.104,1.047,1.809c0.762,0.679,1.047,1.152,1.031,1.681
		c-0.023,0.751-0.779,1.301-1.762,1.307c-0.711,0-1.281-0.28-1.271-0.577c0.004-0.102,0.057-0.177,0.215-0.304
		c0.205-0.128,0.26-0.249,0.266-0.401c0.01-0.279-0.184-0.476-0.49-0.476c-0.326,0-0.588,0.274-0.604,0.629
		c-0.023,0.774,0.74,1.306,1.898,1.306c1.467,0,2.527-0.83,2.572-2.035c0.025-0.729-0.336-1.307-1.246-2.057
		c-0.658-0.552-0.949-0.957-0.934-1.357c0.02-0.602,0.592-1.053,1.348-1.053c0.48,0,0.951,0.203,0.945,0.375
		c0,0.049-0.025,0.102-0.133,0.176c-0.154,0.127-0.209,0.229-0.217,0.375c-0.01,0.305,0.211,0.525,0.52,0.525
		c0.326,0,0.586-0.248,0.596-0.602C92.563,34.814,91.851,34.386,90.862,34.386z"/>
</g>
</svg>
