<?xml version="1.0" encoding="utf-8"?>
<!-- Generator: Adobe Illustrator 16.0.0, SVG Export Plug-In . SVG Version: 6.00 Build 0)  -->
<!DOCTYPE svg PUBLIC "-//W3C//DTD SVG 1.1//EN" "http://www.w3.org/Graphics/SVG/1.1/DTD/svg11.dtd">
<svg version="1.1" id="svg-nysense" xmlns="http://www.w3.org/2000/svg" xmlns:xlink="http://www.w3.org/1999/xlink" x="0px" y="0px"
	 width="190px" height="55px" viewBox="0 0 190 55" enable-background="new 0 0 190 55" xml:space="preserve">
<g id="Слой_x0020_1">
	<path fill="#FEFEFE" id="svg-logo-nysense" d="M117.222,25.524c-0.092-9.199-0.076-11.104,0.148-19.376c1.643-1.076,3.006-3.277,7.32-3.277
		c2.068,0,4.572,0.68,5.51,1.664c1.172,1.219,1.23,2.98,1.242,4.107c0.031,2.591-0.09,9.445-0.156,11.4
		c-0.07,1.957-0.168,3.228-0.303,5.526l0.27,0.353l3.455-0.104l0.355-0.292c-0.084-4.113-0.061-4.898,0-10.034l0.059-4.989
		c0.037-3.717,0.129-6.096-1.855-8.02c-2.354-2.287-6.416-2.3-7.51-2.3c-4.654,0-5.949,1.858-8.406,3.129l0.311-2.494l-0.33-0.292
		L113.8,1.019l-0.297,0.337c0.271,3.811,0.271,5.033,0.154,10.591c-0.051,2.548-0.059,5.132-0.143,7.671
		c-0.076,2.1-0.176,3.323-0.322,6.006l0.275,0.305l3.396-0.104L117.222,25.524z M84.938,10.461c0.951-4.151,3.99-7.877,8.53-7.877
		c4.894,0,7.578,3.254,7.791,7.877H84.938z M104.985,12.658c0.023-2.494,0.084-5.869-2.406-8.753
		c-2.49-2.889-5.35-3.887-8.912-3.887c-8.518,0-12.424,5.649-12.688,13.333c-0.252,7.386,3.377,13.299,12.754,13.299
		c4.945,0,7.474-1.516,9.931-2.688l0.305-0.492l0.324-2.786l-0.453-0.246c-1.416,1.028-4.438,3.511-9.726,3.511
		c-2.529,0-6.047-1.011-8.414-5.609c-1.08-2.101-1.08-3.816-1.08-5.385h20.007L104.985,12.658z M58.033,21.818
		c-0.097,1.271-0.129,2.126-0.459,3.35l0.278,0.39c1.41,0.688,2.031,1.612,6.521,1.612c8.635-0.006,10.871-4.715,10.98-8.092
		c0.168-4.847-4.553-6.484-6.609-6.99c-2.613-0.635-6.959-1.405-7.379-4.769c-0.293-2.325,2.063-4.769,4.83-4.769
		c3.803-0.006,6.164,1.502,7.516,2.384l0.291-0.097L74.5,2l-0.221-0.345c-2.328-0.784-4.029-1.639-7.308-1.639
		c-7.709,0.006-9.41,4.587-9.462,7.075C57.283,17.43,72.1,12.74,71.66,19.465c-0.232,3.621-3.738,4.853-6.842,4.853
		c-2.64,0-4.302-0.997-6.32-2.649L58.033,21.818z M49.929,9.004c1.798-3.867,2.23-4.748,3.952-7.877l-0.396-0.396h-2.181
		l-0.588,0.396c-2.483,7.004-5.957,13.986-8.894,20.646l-3.707-9.395L33.843,1.127l-0.504-0.345l-4.303,0.007l-0.36,0.439
		C30.125,4.26,30.312,4.76,31.56,7.68c3.493,8.183,4.501,10.264,7.734,18.289c-2.527,5.714-5.076,10.689-8.143,16.15l0.336,0.291
		l2.996-0.007l0.414-0.292c0.258-0.73,2.975-6.283,3.266-7.021c1.287-3.316,4.371-10.235,7.295-16.5L49.929,9.004z M4.031,25.551
		C3.939,16.352,3.947,14.446,4.173,6.174c1.648-1.075,3.811-3.277,8.122-3.277c2.069,0,3.644,0.68,4.585,1.665
		c1.164,1.218,1.229,2.979,1.242,4.106c0.025,2.592-0.098,9.445-0.162,11.401c-0.063,1.957-0.168,3.228-0.305,5.526l0.278,0.351
		l3.699-0.104l0.354-0.297c-0.084-4.107-0.058-4.892,0-10.027l0.06-4.989c0.038-3.718,0.129-6.097-1.856-8.026
		c-2.354-2.278-5.729-2.293-6.822-2.293c-4.664,0-6.752,1.858-9.217,3.129l0.316-2.494L4.132,0.553L0.607,1.039L0.31,1.381
		c0.271,3.811,0.266,5.033,0.155,10.593c-0.052,2.547-0.06,5.131-0.147,7.67C0.246,21.742,0.15,22.967,0,25.65l0.278,0.305
		l3.396-0.111L4.031,25.551z M143.474,21.801c-0.1,1.271-0.131,2.123-0.459,3.349l0.275,0.396c1.416,0.682,2.031,1.606,6.521,1.606
		c8.635-0.006,10.871-4.716,10.98-8.092c0.168-4.847-4.553-6.484-6.607-6.99c-2.613-0.636-6.959-1.405-7.381-4.769
		c-0.291-2.326,2.063-4.769,4.838-4.769c3.797,0,6.156,1.503,7.51,2.384l0.291-0.097l0.498-2.838l-0.223-0.345
		c-2.326-0.782-4.027-1.639-7.309-1.631c-7.709,0-9.41,4.58-9.461,7.066c-0.227,10.34,14.59,5.65,14.15,12.374
		c-0.232,3.621-3.738,4.853-6.844,4.853c-2.639,0-4.301-0.998-6.318-2.649L143.474,21.801z M169.944,10.442
		c0.949-4.146,3.996-7.878,8.529-7.878c4.896,0,7.588,3.252,7.801,7.878H169.944z M189.993,12.641
		c0.025-2.495,0.084-5.87-2.406-8.754C185.099,0.998,182.245,0,178.675,0c-8.512,0-12.424,5.649-12.682,13.332
		c-0.254,7.387,3.375,13.307,12.752,13.301c4.949,0,7.471-1.517,9.928-2.688l0.307-0.486l0.32-2.793l-0.441-0.246
		c-1.418,1.03-4.439,3.513-9.736,3.513c-2.527,0.007-6.039-1.013-8.414-5.611c-1.08-2.099-1.072-3.815-1.08-5.384h20.012
		L189.993,12.641z M83.003,45.567c1.779-0.323,3.254-0.905,4.41-1.749c1.166-0.843,1.863-1.826,2.115-2.967
		c0.188-0.874,0.123-1.652-0.188-2.332c-0.316-0.682-0.859-1.243-1.643-1.697c-1.217,0.844-2.153,1.814-2.819,2.908
		c-0.66,1.089-1.203,2.6-1.623,4.521c-0.026,0.129-0.071,0.346-0.123,0.643C83.076,45.192,83.037,45.412,83.003,45.567z
		 M87.357,36.68c-0.355-0.108-0.705-0.193-1.063-0.26c-0.355-0.064-0.725-0.097-1.105-0.097c-2.121,0.007-4.063,0.603-5.814,1.787
		c-0.826,0.563-2.457,2.157-3.104,3.675c-0.304,0.711-0.42,1.565-0.168,2.233c1.016,2.721,5.2-0.597,4.702-3.306
		c-0.116-0.621,0.237,0.078,0.237,0.521c0.027,2.521-2.242,4.976-4.727,4.601c-2.012-0.299-2.465-1.664-2.044-3.604
		c0.175-0.811,0.634-1.626,1.378-2.423c0.736-0.804,1.688-1.521,2.852-2.163c1.063-0.583,2.199-1.029,3.408-1.342
		c1.203-0.313,2.395-0.467,3.563-0.467c2.103,0,3.745,0.438,4.922,1.328c1.177,0.895,1.617,2.002,1.326,3.328
		c-0.278,1.271-1.185,2.391-2.735,3.369c-1.539,0.973-3.57,1.697-6.086,2.178c-0.02,0.092-0.039,0.199-0.059,0.336
		s-0.039,0.239-0.053,0.312c-0.543,2.481-1.644,4.489-3.285,6.021C77.855,54.234,76.005,55,73.96,55
		c-1.514,0-2.657-0.42-3.434-1.265c-0.771-0.841-1.017-1.917-0.73-3.22c0.175-0.816,0.523-1.479,1.048-1.982
		c0.528-0.506,1.11-0.759,1.753-0.759c0.434,0,0.756,0.123,0.977,0.384c0.228,0.245,0.291,0.569,0.207,0.959
		c-0.09,0.413-0.31,0.752-0.66,1.004c-0.342,0.26-0.763,0.396-1.233,0.396c-0.108,0.168-0.2,0.338-0.271,0.521
		c-0.078,0.18-0.129,0.35-0.168,0.519c-0.182,0.854-0.033,1.562,0.453,2.11c0.497,0.551,1.215,0.828,2.172,0.828
		c0.867,0,1.688-0.205,2.445-0.613c0.764-0.408,1.455-1.019,2.083-1.82c0.771-1.03,1.599-3.232,2.472-6.602l0.02-0.033
		c0.602-2.273,1.333-3.979,2.219-5.116C84.193,39.174,85.539,37.961,87.357,36.68z M95.416,44.928
		c-0.575,2.729-0.894,3.719-1.578,5.008c-0.788,1.438-1.514,2.145-2.282,2.145c-0.673,0.008-1.067-0.576-1.035-1.533
		c0.046-1.36,0.789-3.351,1.647-4.742c0.965-1.549,1.604-1.735,3.363-1.49L95.416,44.928z M96.913,50.635
		c-0.453,0.966-0.848,1.379-1.26,1.379c-0.257,0-0.38-0.188-0.369-0.607c0.006-0.121,0.014-0.316,0.053-0.48l1.642-6.93
		c-0.52,0.006-1.603,0.098-1.461,0.104c0.063,0-2.574-1.18-4.476,0.691c-1.596,1.574-1.842,4.074-1.881,5.235
		c-0.053,1.542,0.687,2.513,1.869,2.513c1.185,0,2.166-0.842,3.194-2.732c-0.078,0.445-0.084,0.642-0.136,1.188
		c-0.039,1.055,0.297,1.578,1.033,1.578c0.794,0,1.525-0.712,2.009-1.938H96.913L96.913,50.635z M99.14,45.75
		c0.412-0.888,0.68-1.18,0.994-1.18c0.26,0,0.406,0.193,0.4,0.557c-0.006,0.131-0.045,0.363-0.117,0.592l-1.643,6.813h1.217
		c0.369-1.471,0.803-2.845,1.217-3.834l0.42-0.991c0.691-1.646,1.422-2.922,1.9-3.193c0.797-0.453,2.314,0.408,1.34,1.64
		c-0.078,0.099-1.055-0.505-1.43,0.216c-0.531,1.113,0.582,1.696,1.559,0.938c0.803-0.661,0.943-2.325,0.021-2.96
		c-0.279-0.188-0.643-0.323-0.934-0.323c-0.893,0.006-1.494,0.81-2.645,3.522c-0.279,0.644-0.414,0.935-0.693,1.504
		c0.078-0.414,0.148-0.635,0.268-1.213c0.344-1.6,0.498-2.313,0.512-2.707c0.023-0.75-0.285-1.135-0.861-1.135
		c-0.666,0-1.229,0.514-1.752,1.666L99.14,45.75z M109.983,38.889c-0.445,0-0.873,0.383-0.895,0.861
		c-0.012,0.485,0.391,0.869,0.836,0.869c0.479,0,0.881-0.384,0.895-0.869C110.837,39.271,110.462,38.889,109.983,38.889z
		 M106.239,45.627c0.635-0.771,1.061-1.152,1.346-1.152c0.229,0,0.285,0.188,0.268,0.738c-0.01,0.283-0.336,1.51-0.705,2.791
		c-0.33,1.252-0.693,2.566-0.713,3.053c-0.025,0.861,0.523,1.51,1.357,1.51c0.705,0,1.229-0.486,1.979-1.803l-0.221-0.098
		c-0.582,1.058-0.943,1.412-1.324,1.412c-0.324,0-0.57-0.26-0.559-0.642c0.033-0.997,1.432-5.269,1.461-6.16
		c0.027-0.806-0.311-1.256-0.98-1.256c-0.705,0-1.293,0.45-2.104,1.509L106.239,45.627z M115.093,43.986
		c-1.475,0-2.627,0.934-2.664,2.15c-0.025,0.771,0.338,1.412,1.324,2.313c0.965,0.868,1.326,1.479,1.309,2.151
		c-0.031,0.959-0.988,1.665-2.23,1.671c-0.896,0-1.623-0.355-1.609-0.736c0.008-0.133,0.07-0.229,0.271-0.391
		c0.258-0.162,0.33-0.316,0.336-0.514c0.014-0.355-0.23-0.607-0.621-0.607c-0.414,0-0.744,0.352-0.762,0.805
		c-0.033,0.989,0.938,1.672,2.404,1.672c1.855,0,3.199-1.063,3.26-2.604c0.033-0.935-0.426-1.671-1.578-2.632
		c-0.834-0.706-1.203-1.225-1.184-1.734c0.025-0.771,0.75-1.35,1.709-1.35c0.605,0,1.199,0.261,1.193,0.48
		c0,0.063-0.029,0.131-0.168,0.229c-0.191,0.162-0.266,0.291-0.271,0.479c-0.014,0.391,0.266,0.674,0.652,0.674
		c0.414,0,0.744-0.318,0.758-0.771C117.247,44.531,116.341,43.986,115.093,43.986z"/>
</g>
</svg>
