<?xml version="1.0" encoding="utf-8"?>
<!-- Generator: Adobe Illustrator 16.0.0, SVG Export Plug-In . SVG Version: 6.00 Build 0)  -->
<!DOCTYPE svg PUBLIC "-//W3C//DTD SVG 1.1//EN" "http://www.w3.org/Graphics/SVG/1.1/DTD/svg11.dtd">
<svg version="1.1" id="Слой_1" xmlns="http://www.w3.org/2000/svg" xmlns:xlink="http://www.w3.org/1999/xlink" x="0px" y="0px"
	 width="62px" height="48px" viewBox="0 0 62 48" enable-background="new 0 0 62 48" xml:space="preserve">
<g>
	<rect fill="none" width="62" height="48"/>
	<g>
		<path fill="#BE9034" d="M0.883,44.419h60.232c0.485,0,0.885-0.504,0.885-1.125s-0.397-1.125-0.885-1.125h-5.527v-0.668
			c1.162-0.448,2.007-1.688,2.007-3.156c0-1.845-1.318-3.346-2.939-3.346c-1.622,0-2.94,1.501-2.94,3.346
			c0,1.471,0.845,2.708,2.005,3.156v0.668h-2.632c-0.749-1.072-2.53-3.807-4.519-8.121h0.303c0.484,0,0.878-0.439,0.878-0.982
			s-0.394-0.984-0.878-0.984H45.7c-0.977-2.299-1.973-4.959-2.889-7.973h1.104c0.484,0,0.879-0.44,0.879-0.983
			c0-0.544-0.395-0.985-0.879-0.985h-1.677c-1.638-5.879-2.943-12.962-3.312-21.199c-0.021-0.525-0.453-0.939-0.979-0.939
			c-0.523,0-0.955,0.414-0.979,0.939c-0.365,8.231-1.676,15.317-3.314,21.199h-1.672c-0.484,0-0.879,0.439-0.879,0.985
			c0,0.543,0.395,0.983,0.879,0.983h1.1c-0.918,3.014-1.912,5.674-2.889,7.973h-1.166c-0.484,0-0.879,0.441-0.879,0.984
			s0.395,0.982,0.879,0.982h0.295c-1.984,4.313-3.766,7.049-4.512,8.121h-4.256v-0.668c1.16-0.447,2.006-1.686,2.006-3.156
			c0-1.845-1.318-3.346-2.94-3.346c-1.293,0-2.383,0.962-2.774,2.285c-0.393-1.323-1.48-2.285-2.774-2.285s-2.382,0.962-2.775,2.285
			c-0.391-1.323-1.479-2.285-2.774-2.285c-1.621,0-2.939,1.501-2.939,3.346c0,1.51,0.889,2.773,2.098,3.188v0.637H0.885
			c-0.488,0-0.883,0.504-0.883,1.125S0.396,44.419,0.883,44.419z M54.653,36.968c0.531,0,0.979,0.631,0.979,1.377
			c0,0.747-0.448,1.378-0.979,1.378c-0.529,0-0.979-0.631-0.979-1.378C53.673,37.599,54.122,36.968,54.653,36.968z M32.211,42.169
			c0.558-4.407,4.363-4.781,5.595-4.781l0.189,0.002l0.098-0.002c1.231,0,5.038,0.374,5.594,4.781H32.211z M37.948,11.385
			c0.578,3.938,1.354,7.517,2.227,10.752h-4.451C36.599,18.901,37.372,15.323,37.948,11.385z M35.166,24.106h5.565
			c0.883,2.988,1.84,5.651,2.797,7.975h-1.459l-2.092-6.082c-0.137-0.396-0.51-0.663-0.929-0.663h-2.202
			c-0.42,0-0.791,0.267-0.929,0.663l-2.094,6.082h-1.457C33.327,29.758,34.282,27.095,35.166,24.106z M39.997,32.081h-4.094
			l1.642-4.776h0.81L39.997,32.081z M31.526,34.048h2.82c0.059,0.012,0.113,0.021,0.172,0.021h6.859
			c0.059,0,0.116-0.013,0.171-0.021h2.822c1.692,3.793,3.295,6.514,4.339,8.121h-3.051c-0.32-3.184-1.971-4.824-3.383-5.646
			c-1.705-0.994-3.493-1.103-4.184-1.103l-0.146,0.003l-0.144-0.003c-3.281,0-7.07,1.798-7.568,6.749h-3.049
			C28.233,40.562,29.834,37.841,31.526,34.048z M19.619,36.968c0.532,0,0.979,0.631,0.979,1.377c0,0.747-0.449,1.378-0.979,1.378
			c-0.531,0-0.979-0.631-0.979-1.378C18.64,37.599,19.088,36.968,19.619,36.968z M16.845,39.403c0.293,0.986,0.973,1.765,1.84,2.099
			v0.668h-3.68v-0.668C15.872,41.167,16.552,40.391,16.845,39.403z M14.069,36.968c0.531,0,0.98,0.631,0.98,1.377
			c0,0.747-0.449,1.378-0.98,1.378c-0.53,0-0.979-0.631-0.979-1.378C13.09,37.599,13.539,36.968,14.069,36.968z M8.521,36.968
			c0.531,0,0.979,0.631,0.979,1.377c0,0.747-0.448,1.378-0.979,1.378c-0.53,0-0.979-0.631-0.979-1.378
			C7.541,37.599,7.99,36.968,8.521,36.968z M9.548,41.469c0.825-0.353,1.467-1.11,1.748-2.063c0.293,0.985,0.973,1.764,1.842,2.098
			v0.668H9.549L9.548,41.469L9.548,41.469z"/>
		<path fill="#BE9034" d="M61.115,45.749H0.883C0.395,45.749,0,46.253,0,46.874s0.395,1.125,0.883,1.125h60.232
			c0.485,0,0.885-0.504,0.885-1.125S61.603,45.749,61.115,45.749z"/>
		<path fill="#BE9034" d="M19.147,14.346c3.783,0,6.861-3.089,6.861-6.888s-3.078-6.889-6.861-6.889
			c-3.782,0-6.859,3.09-6.859,6.889S15.365,14.346,19.147,14.346z M19.147,2.538c2.703,0,4.9,2.207,4.9,4.921
			c0,2.713-2.197,4.92-4.9,4.92s-4.899-2.207-4.899-4.92C14.248,4.745,16.444,2.538,19.147,2.538z"/>
	</g>
</g>
</svg>
