<?xml version="1.0" encoding="utf-8"?>
<!-- Generator: Adobe Illustrator 16.0.0, SVG Export Plug-In . SVG Version: 6.00 Build 0)  -->
<!DOCTYPE svg PUBLIC "-//W3C//DTD SVG 1.1//EN" "http://www.w3.org/Graphics/SVG/1.1/DTD/svg11.dtd">
<svg version="1.1" id="Слой_1" xmlns="http://www.w3.org/2000/svg" xmlns:xlink="http://www.w3.org/1999/xlink" x="0px" y="0px"
	 width="66px" height="48px" viewBox="0 0 66 48" enable-background="new 0 0 66 48" xml:space="preserve">
<g>
	<rect fill="none" width="66" height="48"/>
	<path fill="#BE9034" d="M65.633,22.299L53.326,1.346c-0.488-0.831-1.406-1.348-2.395-1.348c-0.506,0-1.008,0.135-1.449,0.389
		L44.09,3.491c-1.197,0.689-1.711,2.139-1.25,3.369c-1.508-0.313-2.953-0.473-4.305-0.473c-3.135,0-4.832,0.835-5.241,1.064
		c-1.469-0.707-3.211-1.065-5.174-1.065c-2.063,0-3.973,0.39-5.328,0.763c0.726-1.311,0.228-2.979-1.121-3.734l-5.43-3.041
		c-0.434-0.243-0.925-0.372-1.42-0.372c-1,0-1.926,0.526-2.412,1.375L0.351,22.466c-0.752,1.313-0.257,3.004,1.104,3.768
		l5.428,3.041c0.433,0.242,0.925,0.371,1.419,0.371c0.966,0,1.859-0.488,2.357-1.283c0.25,0.617,0.486,1.279,0.553,1.469
		c-0.644,2.426-0.475,4.291,0.502,5.549c1.172,1.51,3.133,1.664,3.783,1.672c0.334,3.629,2.834,4.178,4.309,4.178
		c0.445,0,0.811-0.049,1.018-0.086c0.698,2.826,2.519,3.428,3.937,3.428c0.698,0,1.278-0.146,1.556-0.23
		c0.695,1.582,2.008,2.418,3.807,2.418c1.158,0,2.162-0.346,2.485-0.469c1.408,1.137,2.865,1.711,4.337,1.711
		c1.77,0,2.895-0.838,2.953-0.881c1.031-0.895,1.641-1.928,1.814-2.254c2.387-0.045,3.939-1.465,4-1.52
		c1.367-1.178,1.396-2.396,1.338-2.902c1.426-0.014,2.424-0.834,2.469-0.875c1.291-1.135,1.455-2.604,1.475-3.098
		c1.865-0.318,2.998-1.838,3.047-1.904c1.172-1.643,0.783-3.594,0.639-4.152c0.576-0.309,1.043-0.775,1.391-1.393
		c0.889,0.656,2.148,0.717,3.115,0.16l5.393-3.104C65.926,25.301,66.4,23.606,65.633,22.299z M63.385,24.054l-5.393,3.104
		c-0.205,0.119-0.504,0.063-0.607-0.111L45.078,6.092c-0.053-0.088-0.063-0.195-0.025-0.303c0.035-0.112,0.115-0.211,0.23-0.274
		l5.393-3.103c0.08-0.047,0.17-0.071,0.258-0.071c0.15,0,0.281,0.067,0.35,0.183L63.59,23.476
		C63.699,23.667,63.609,23.926,63.385,24.054z M44.732,31.484c-0.344,0-0.643,0.141-0.889,0.426
		c-0.018,0.021-0.402,0.525-0.291,1.209c0.088,0.539,0.455,1.023,1.098,1.449c0.074,0.045,1.813,1.092,2.867,1.584
		c0.809,0.377,0.736,0.529,0.525,0.984l-0.039,0.092c-0.006,0.012-0.611,0.84-1.732,0.84c-0.455,0-0.936-0.137-1.432-0.4
		c-0.016-0.01-1.666-0.934-2.521-1.754c-0.023-0.023-0.621-0.605-1.326-0.605c-0.385,0-0.721,0.166-1.008,0.5
		c-0.016,0.02-0.361,0.475-0.248,1.123c0.102,0.586,0.537,1.129,1.281,1.604c0.076,0.055,1.834,1.313,2.824,1.736
		c0.004,0.004,0.398,0.211,0.438,0.553c0.027,0.254-0.158,0.557-0.527,0.857c-0.01,0.01-0.998,0.75-2.232,0.75
		c-0.391,0-0.77-0.076-1.125-0.227c-0.014-0.006-1.238-0.533-2.605-2.1c-0.02-0.02-0.441-0.486-1.037-0.486
		c-0.379,0-0.732,0.186-1.059,0.559c-0.01,0.014-0.912,1.219,0.564,2.521c0.027,0.031,0.684,0.789,2.256,1.506
		c0.074,0.033,0.271,0.16,0.305,0.33c0.025,0.125-0.037,0.27-0.186,0.432c-0.006,0.006-0.611,0.623-1.617,0.623
		c-0.533,0-1.09-0.172-1.656-0.516c-0.023-0.014-2.425-1.363-5.792-3.734c0.129-0.637,0.564-3.467-1.5-4.916
		c-0.043-0.033-1.059-0.76-2.566-0.76c-0.276,0-0.555,0.025-0.83,0.076c0.005-0.623-0.129-2.24-1.553-3.154
		c-0.041-0.027-0.973-0.639-2.207-0.639c-0.304,0-0.603,0.037-0.89,0.113c0.044-0.699,0.009-2.498-1.348-3.535
		c-0.046-0.041-1.146-0.994-2.89-0.994c-0.656,0-1.32,0.139-1.975,0.41c-0.255-0.291-0.995-1.189-1.25-2.137
		c0,0-0.091-0.195-0.113-0.563l8.437-14.751c1.095-0.695,4.239-1.685,7.192-1.685c0.926,0,1.775,0.097,2.531,0.282
		c-1.383,1.137-7.326,6.063-8.717,7.934c-0.027,0.031-2.826,3.314,0.186,6.151c0.045,0.05,1.094,1.243,2.836,1.243
		c0.934,0,1.887-0.346,2.828-1.027c0.063-0.043,6.172-4.318,8.01-5.406c0.006-0.004,0.523-0.3,1.154-0.3
		c0.072,0,0.145,0.005,0.248,0.017c0.004,0,0.516,0.013,1.482,0.988c0.406,0.416,9.992,10.197,12.895,12.21
		c0.008,0.004,0.693,0.51,0.801,1.285c0.064,0.465-0.092,0.936-0.459,1.398c-0.006,0.008-0.561,0.637-1.508,0.637
		c-0.307,0-0.629-0.064-0.963-0.201c-0.021-0.006-2.152-0.738-3.416-1.99C45.959,32.008,45.385,31.484,44.732,31.484z
		 M23.541,39.217c0.398-0.639,1.08-1.033,1.778-1.033c0.324,0,0.636,0.086,0.902,0.252c0.875,0.535,1.096,1.756,0.491,2.723
		c-0.398,0.641-1.082,1.033-1.779,1.033c-0.323,0-0.635-0.088-0.902-0.25c-0.421-0.26-0.703-0.682-0.8-1.193
		C23.138,40.232,23.248,39.688,23.541,39.217z M18.642,35.729c0.396-0.639,1.081-1.031,1.777-1.031c0.322,0,0.636,0.086,0.904,0.25
		c0.42,0.258,0.705,0.682,0.797,1.191c0.097,0.518-0.014,1.063-0.309,1.531c-0.398,0.637-1.08,1.031-1.777,1.031
		c-0.322,0-0.635-0.086-0.902-0.25C18.258,37.914,18.039,36.695,18.642,35.729z M51.607,27.539l-9.506-9.173
		c0.18,0.017,0.391,0.029,0.607,0.029c0.775,0,1.326-0.156,1.629-0.466c0.188-0.19,0.277-0.433,0.268-0.687
		c0.004-0.028,0.037-0.287-0.234-0.617c-0.521-0.639-2.088-1.453-6.559-1.698c0,0-0.164-0.019-0.445-0.019
		c-0.779,0-2.322,0.145-3.907,1.123l-7.213,5.385c-0.006,0.004-0.615,0.447-1.332,0.447c-0.446,0-0.842-0.174-1.164-0.508
		c-0.049-0.061-1.199-1.478,0.156-2.746c0.047-0.054,4.862-5.422,9.637-8.351c0.02-0.015,1.813-1.397,4.457-1.479
		c0.006,0,0.191-0.014,0.529-0.014c0.924,0,3.346,0.1,6.008,1.008l9.762,16.675c0.193,0.559,0.203,1.012,0.029,1.35
		c-0.15,0.293-0.445,0.508-0.908,0.648C53.422,28.451,52.83,28.746,51.607,27.539z M13.914,31.348
		c0.398-0.637,1.08-1.031,1.777-1.031c0.324,0,0.637,0.088,0.905,0.252c0.874,0.535,1.093,1.758,0.487,2.725
		c-0.396,0.637-1.078,1.031-1.775,1.031c-0.323,0-0.637-0.088-0.902-0.252c-0.422-0.256-0.707-0.682-0.801-1.189
		C13.511,32.363,13.621,31.82,13.914,31.348z M20.717,6.026L8.656,27.117c-0.101,0.176-0.397,0.236-0.606,0.119l-5.427-3.041
		c-0.225-0.127-0.32-0.388-0.21-0.578L14.474,2.526c0.066-0.115,0.199-0.187,0.354-0.187c0.086,0,0.174,0.022,0.252,0.067
		L20.51,5.45c0.116,0.064,0.205,0.174,0.237,0.293C20.774,5.843,20.765,5.944,20.717,6.026z"/>
</g>
</svg>
