<?xml version="1.0" encoding="utf-8"?>
<!-- Generator: Adobe Illustrator 16.0.0, SVG Export Plug-In . SVG Version: 6.00 Build 0)  -->
<!DOCTYPE svg PUBLIC "-//W3C//DTD SVG 1.1//EN" "http://www.w3.org/Graphics/SVG/1.1/DTD/svg11.dtd">
<svg version="1.1" id="partners-svg" xmlns="http://www.w3.org/2000/svg" xmlns:xlink="http://www.w3.org/1999/xlink" x="0px" y="0px"
	 width="88px" height="64px" viewBox="0 0 88 64" enable-background="new 0 0 88 64" xml:space="preserve">
<g>
	<rect fill="none" width="88" height="64"/>
	<path fill="#BE9034" d="M87.512,29.735L71.101,1.797c-0.651-1.107-1.875-1.796-3.192-1.796c-0.677,0-1.345,0.179-1.933,0.517
		l-7.188,4.139c-1.599,0.92-2.279,2.851-1.666,4.491c-2.013-0.417-3.939-0.629-5.74-0.629c-4.176,0-6.441,1.114-6.984,1.42
		c-1.96-0.942-4.281-1.422-6.898-1.422c-2.75,0-5.297,0.521-7.104,1.019c0.967-1.747,0.303-3.973-1.494-4.982l-7.239-4.055
		c-0.578-0.324-1.233-0.495-1.894-0.495c-1.335,0-2.567,0.703-3.216,1.833L0.469,29.956c-1.002,1.752-0.343,4.007,1.472,5.023
		l7.237,4.055c0.578,0.322,1.233,0.496,1.893,0.496c1.288,0,2.479-0.651,3.143-1.711c0.333,0.823,0.649,1.705,0.739,1.959
		c-0.859,3.23-0.634,5.721,0.668,7.396c1.563,2.014,4.177,2.218,5.044,2.229c0.446,4.84,3.779,5.569,5.746,5.569
		c0.595,0,1.08-0.063,1.357-0.112c0.93,3.769,3.357,4.566,5.248,4.566c0.93,0,1.705-0.195,2.074-0.309
		c0.927,2.107,2.677,3.223,5.076,3.223c1.543,0,2.881-0.457,3.313-0.62c1.875,1.515,3.817,2.278,5.781,2.278
		c2.358,0,3.862-1.116,3.938-1.174c1.377-1.191,2.187-2.569,2.422-3.004c3.183-0.062,5.252-1.953,5.332-2.028
		c1.822-1.571,1.863-3.196,1.783-3.872c1.9-0.018,3.23-1.112,3.291-1.165c1.723-1.515,1.941-3.472,1.965-4.132
		c2.488-0.424,3.996-2.45,4.063-2.541c1.563-2.188,1.045-4.788,0.851-5.534c0.77-0.41,1.389-1.034,1.852-1.854
		c1.186,0.873,2.865,0.953,4.152,0.215l7.19-4.139C87.899,33.737,88.533,31.477,87.512,29.735z M84.514,32.075l-7.188,4.139
		c-0.274,0.158-0.674,0.082-0.813-0.148l-16.41-27.94c-0.069-0.119-0.084-0.261-0.035-0.404c0.05-0.148,0.156-0.28,0.306-0.366
		l7.19-4.138c0.106-0.062,0.228-0.095,0.345-0.095c0.2,0,0.375,0.09,0.467,0.243l16.41,27.938
		C84.932,31.559,84.81,31.903,84.514,32.075z M59.643,41.979c-0.459,0-0.854,0.188-1.186,0.568c-0.021,0.027-0.537,0.701-0.39,1.609
		c0.119,0.72,0.607,1.365,1.466,1.935c0.098,0.06,2.418,1.456,3.821,2.112c1.078,0.502,0.983,0.707,0.701,1.313l-0.054,0.124
		c-0.008,0.015-0.813,1.118-2.311,1.118c-0.605,0-1.246-0.182-1.906-0.535c-0.021-0.012-2.223-1.244-3.363-2.339
		c-0.032-0.032-0.827-0.808-1.771-0.808c-0.51,0-0.959,0.222-1.342,0.666c-0.021,0.024-0.479,0.633-0.33,1.498
		c0.136,0.781,0.715,1.506,1.709,2.14c0.101,0.071,2.442,1.746,3.765,2.317c0.006,0.004,0.532,0.277,0.582,0.731
		c0.037,0.341-0.209,0.74-0.703,1.146c-0.013,0.011-1.33,1-2.976,1c-0.521,0-1.026-0.104-1.502-0.303
		c-0.019-0.008-1.653-0.713-3.478-2.799c-0.021-0.025-0.588-0.65-1.383-0.65c-0.506,0-0.979,0.248-1.408,0.746
		c-0.014,0.019-1.219,1.627,0.754,3.36c0.035,0.042,0.91,1.054,3.009,2.007c0.099,0.047,0.358,0.215,0.405,0.439
		c0.033,0.168-0.053,0.361-0.245,0.576c-0.011,0.009-0.818,0.83-2.158,0.83c-0.711,0-1.453-0.229-2.209-0.688
		c-0.033-0.018-3.235-1.816-7.724-4.98c0.17-0.848,0.752-4.619-2-6.556c-0.058-0.042-1.412-1.013-3.42-1.013
		c-0.369,0-0.74,0.033-1.107,0.104c0.007-0.83-0.17-2.988-2.071-4.207c-0.053-0.035-1.296-0.852-2.941-0.852
		c-0.406,0-0.803,0.05-1.187,0.15c0.059-0.936,0.013-3.33-1.797-4.715c-0.061-0.057-1.528-1.324-3.852-1.324
		c-0.875,0-1.76,0.185-2.634,0.545c-0.34-0.387-1.326-1.586-1.666-2.846c0-0.002-0.122-0.264-0.152-0.748l11.249-19.67
		c1.46-0.931,5.653-2.245,9.59-2.245c1.232,0,2.367,0.126,3.375,0.376c-1.846,1.516-9.77,8.082-11.622,10.576
		c-0.037,0.043-3.768,4.422,0.247,8.203c0.06,0.067,1.459,1.659,3.781,1.659c1.242,0,2.514-0.462,3.771-1.371
		c0.082-0.058,8.231-5.759,10.681-7.211c0.008-0.004,0.699-0.397,1.539-0.397c0.096,0,0.193,0.006,0.332,0.02
		c0.006,0,0.687,0.02,1.978,1.32c0.541,0.554,13.323,13.594,17.192,16.281c0.008,0.006,0.922,0.68,1.064,1.715
		c0.086,0.619-0.123,1.248-0.609,1.865c-0.01,0.01-0.748,0.85-2.012,0.85c-0.41,0-0.838-0.088-1.283-0.268
		c-0.027-0.012-2.871-0.986-4.557-2.656C61.279,42.679,60.512,41.979,59.643,41.979z M31.39,52.292
		c0.53-0.852,1.438-1.377,2.371-1.377c0.432,0,0.847,0.115,1.202,0.336c1.168,0.713,1.462,2.341,0.654,3.63
		c-0.531,0.851-1.439,1.378-2.371,1.378c-0.432,0-0.847-0.116-1.203-0.335c-0.562-0.345-0.939-0.907-1.066-1.591
		C30.851,53.646,30.996,52.921,31.39,52.292z M24.856,47.641c0.53-0.851,1.441-1.377,2.371-1.377c0.43,0,0.847,0.114,1.204,0.335
		c0.561,0.344,0.939,0.907,1.064,1.59c0.127,0.689-0.019,1.416-0.412,2.043c-0.531,0.85-1.439,1.377-2.37,1.377
		c-0.431,0-0.847-0.113-1.204-0.334C24.344,50.557,24.05,48.929,24.856,47.641z M68.81,36.721L56.135,24.491
		c0.238,0.021,0.521,0.039,0.813,0.039c1.037,0,1.768-0.209,2.172-0.621c0.25-0.254,0.371-0.578,0.355-0.916
		c0.006-0.039,0.049-0.383-0.313-0.823c-0.699-0.853-2.783-1.938-8.746-2.265c0,0-0.219-0.024-0.594-0.024
		c-1.039,0-3.098,0.192-5.209,1.497l-9.617,7.18c-0.008,0.006-0.818,0.598-1.775,0.598c-0.594,0-1.121-0.231-1.553-0.679
		c-0.065-0.079-1.599-1.969,0.209-3.661c0.063-0.07,6.483-7.229,12.851-11.133c0.022-0.019,2.418-1.864,5.942-1.971
		c0.007,0,0.259-0.017,0.705-0.017c1.23,0,4.461,0.131,8.013,1.342l13.014,22.233c0.259,0.745,0.271,1.352,0.039,1.801
		c-0.2,0.393-0.596,0.678-1.211,0.863C71.228,37.936,70.438,38.331,68.81,36.721z M18.554,41.801
		c0.531-0.851,1.439-1.377,2.37-1.377c0.432,0,0.848,0.116,1.206,0.335c1.165,0.715,1.457,2.344,0.651,3.63
		c-0.53,0.853-1.438,1.379-2.369,1.379c-0.431,0-0.848-0.116-1.204-0.336c-0.562-0.343-0.941-0.907-1.066-1.589
		C18.015,43.153,18.16,42.429,18.554,41.801z M27.623,8.036L11.539,36.159c-0.133,0.231-0.529,0.313-0.809,0.158l-7.236-4.055
		c-0.299-0.169-0.427-0.514-0.28-0.77L19.296,3.37c0.089-0.154,0.265-0.248,0.47-0.248c0.115,0,0.233,0.031,0.338,0.09l7.24,4.056
		c0.157,0.089,0.273,0.231,0.318,0.394C27.701,7.793,27.687,7.925,27.623,8.036z"/>
</g>
</svg>
