<?xml version="1.0" encoding="utf-8"?>
<!-- Generator: Adobe Illustrator 16.0.0, SVG Export Plug-In . SVG Version: 6.00 Build 0)  -->
<!DOCTYPE svg PUBLIC "-//W3C//DTD SVG 1.1//EN" "http://www.w3.org/Graphics/SVG/1.1/DTD/svg11.dtd">
<svg version="1.1" id="Layer_1" xmlns="http://www.w3.org/2000/svg" xmlns:xlink="http://www.w3.org/1999/xlink" x="0px" y="0px"
	 width="55px" height="48px" viewBox="0 0 55 48" enable-background="new 0 0 55 48" xml:space="preserve">
<g>
	<rect x="-0.5" fill="none" width="56" height="48"/>
	<g>
		<path fill="#BF9138" d="M53.855,4.172H32.084v-3.13c0-0.319-0.158-0.62-0.432-0.816c-0.271-0.198-0.629-0.27-0.973-0.201
			L0.89,6.287C0.369,6.395,0,6.817,0,7.303v35.478c0,0.515,0.412,0.953,0.972,1.031l29.791,4.174C30.822,47.995,30.879,48,30.938,48
			c0.271,0,0.537-0.088,0.748-0.254c0.254-0.196,0.396-0.486,0.396-0.791v-3.13h21.771c0.633,0,1.146-0.468,1.146-1.046V5.215
			C55.002,4.639,54.488,4.172,53.855,4.172z M29.793,45.738l-27.5-3.854V8.133l27.5-5.781V45.738z M52.709,41.738H32.084v-4.174
			H46.98c0.633,0,1.145-0.469,1.145-1.043c0-0.578-0.514-1.045-1.145-1.045H32.084v-4.174H46.98c0.633,0,1.145-0.469,1.145-1.046
			c0-0.573-0.514-1.043-1.145-1.043H32.084V24.93c1.457,1.355,3.486,2.198,5.729,2.198c4.424,0,8.021-3.278,8.021-7.303
			c0-0.578-0.514-1.043-1.146-1.043c-0.631,0-1.146,0.467-1.146,1.043c0,2.875-2.568,5.216-5.729,5.216s-5.73-2.337-5.73-5.216
			c0-2.877,2.57-5.217,5.73-5.217c0.633,0,1.145-0.467,1.145-1.045s-0.512-1.043-1.145-1.043c-2.244,0-4.273,0.842-5.73,2.197V6.26
			h20.625v35.478H52.709L52.709,41.738z"/>
		<path fill="#BF9138" d="M14.896,14.608h-4.583c-0.634,0-1.146,0.467-1.146,1.043v16.695c0,0.574,0.512,1.045,1.146,1.045
			c0.631,0,1.146-0.471,1.146-1.045v-5.219h3.438c3.156,0,5.729-2.342,5.729-5.215v-2.087
			C20.626,16.946,18.054,14.608,14.896,14.608z M18.334,21.914c0,1.726-1.542,3.128-3.437,3.128h-3.438v-8.348h3.438
			c1.895,0,3.437,1.406,3.437,3.131V21.914z"/>
		<path fill="#BF9138" d="M48.125,17.737c0-4.026-3.596-7.303-8.02-7.303c-0.633,0-1.146,0.467-1.146,1.043v2.086v4.174
			c0,0.578,0.516,1.045,1.146,1.045h4.582h2.291C47.611,18.782,48.125,18.315,48.125,17.737z M41.25,16.694v-4.069
			c2.242,0.416,4.01,2.028,4.469,4.069H41.25z"/>
	</g>
</g>
</svg>
