<?xml version="1.0" encoding="utf-8"?>
<!-- Generator: Adobe Illustrator 16.0.0, SVG Export Plug-In . SVG Version: 6.00 Build 0)  -->
<!DOCTYPE svg PUBLIC "-//W3C//DTD SVG 1.1//EN" "http://www.w3.org/Graphics/SVG/1.1/DTD/svg11.dtd">
<svg version="1.1" id="Слой_1" xmlns="http://www.w3.org/2000/svg" xmlns:xlink="http://www.w3.org/1999/xlink" x="0px" y="0px"
	 width="51px" height="48px" viewBox="0 0 51 48" enable-background="new 0 0 51 48" xml:space="preserve">
<g>
	<rect fill="none" width="51" height="48"/>
	<g>
		<path fill="#BF9138" d="M50.818,21.695c-0.412-0.812-1.412-1.133-2.229-0.721c-1.479,0.748-2.958,1.396-4.432,1.961V11.587v-0.274
			c0-3.502-1.021-6.293-3.045-8.295c-3.021-2.995-7.186-3.023-7.315-3.017h-6.224h-3.732h-6.224
			c-0.132-0.007-4.296,0.021-7.316,3.017C8.279,5.02,7.256,7.811,7.256,11.313v0.274v11.337c-3-1.029-4.773-1.914-4.836-1.945
			c-0.815-0.418-1.814-0.101-2.234,0.707c-0.419,0.81-0.103,1.803,0.711,2.221c0.657,0.339,11.188,5.63,25.322,5.63
			c7.288,0,15.533-1.406,23.877-5.625C50.909,23.499,51.234,22.506,50.818,21.695z M40.841,11.587v12.474
			c-11.892,3.584-23.067,1.899-30.269-0.109V11.587v-0.274c0-7.735,6.326-8.009,7.047-8.015h6.22h3.731h6.22
			c0.724,0.006,7.05,0.279,7.05,8.015L40.841,11.587L40.841,11.587z"/>
		<path fill="#BF9138" d="M43.206,34.581c-0.429-0.313-0.978-0.399-1.479-0.246l-16.158,5.046L9.412,34.335
			c-0.503-0.153-1.054-0.065-1.479,0.246c-0.426,0.312-0.676,0.804-0.676,1.325v10.445c0,0.524,0.251,1.02,0.676,1.33
			C8.223,47.891,8.565,48,8.916,48c0.167,0,0.334-0.023,0.498-0.075l16.156-5.044l16.158,5.044C41.889,47.977,42.057,48,42.225,48
			c0.35,0,0.692-0.109,0.981-0.316c0.429-0.313,0.678-0.807,0.678-1.332V35.909C43.88,35.384,43.631,34.893,43.206,34.581z
			 M10.573,44.105v-5.949l9.528,2.978L10.573,44.105z M40.564,44.105l-9.528-2.973l9.528-2.979V44.105z"/>
	</g>
</g>
</svg>
