<?xml version="1.0" encoding="utf-8"?>
<!-- Generator: Adobe Illustrator 16.0.0, SVG Export Plug-In . SVG Version: 6.00 Build 0)  -->
<!DOCTYPE svg PUBLIC "-//W3C//DTD SVG 1.1//EN" "http://www.w3.org/Graphics/SVG/1.1/DTD/svg11.dtd">
<svg version="1.1" id="Слой_1" xmlns="http://www.w3.org/2000/svg" xmlns:xlink="http://www.w3.org/1999/xlink" x="0px" y="0px"
	 width="58px" height="64px" viewBox="0 0 58 64" enable-background="new 0 0 58 64" xml:space="preserve">
<path fill="#BC912F" d="M54.868,5.692L29.826,0.096C29.54,0.032,29.249,0,28.958,0c-0.292,0-0.584,0.032-0.871,0.096L3.129,5.692
	C1.24,6.116-0.077,7.839,0.003,9.783l1,24.249c0.006,0.153,0.021,0.309,0.045,0.462c1.25,7.945,5.377,15.539,11.624,21.383
	C18.028,60.887,24.284,64,29,64c4.874,0,11.236-3.102,16.605-8.094c6.31-5.864,10.345-13.512,11.361-21.532
	c0.016-0.114,0.024-0.228,0.029-0.343l1-24.249C58.077,7.838,56.758,6.114,54.868,5.692z M53.805,14.37L11.299,48.381
	c-1.117-1.473-2.147-3.068-3.047-4.781L51.198,8.991L54,9.617L53.805,14.37z M28.958,4.021l17.25,3.854L6.566,39.822
	C5.868,37.943,5.329,35.956,5,33.866L4,9.617L28.958,4.021z M29,59.979c-3.754,0-9.919-3.086-15.11-8.549l39.695-31.763L53,33.866
	C50.958,49.954,36.083,59.979,29,59.979z"/>
</svg>
