<?xml version="1.0" encoding="utf-8"?>
<!-- Generator: Adobe Illustrator 16.0.0, SVG Export Plug-In . SVG Version: 6.00 Build 0)  -->
<!DOCTYPE svg PUBLIC "-//W3C//DTD SVG 1.1//EN" "http://www.w3.org/Graphics/SVG/1.1/DTD/svg11.dtd">
<svg id="star-svg" version="1.1" id="Слой_1" xmlns="http://www.w3.org/2000/svg" xmlns:xlink="http://www.w3.org/1999/xlink" x="0px" y="0px"
	 width="69px" height="64px" viewBox="0 0 69 64" enable-background="new 0 0 69 64" xml:space="preserve">
<g>
	<rect x="0.5" fill="none" width="68" height="64"/>
	<path fill="#BF9138" d="M68.475,24.344c-0.466-1.488-1.754-2.57-3.302-2.771l-18.955-2.465L38.105,2.264
		C37.438,0.878,36.037,0,34.5,0c-1.535,0-2.936,0.879-3.604,2.264l-8.117,16.844L3.827,21.575c-1.547,0.199-2.836,1.281-3.301,2.77
		c-0.467,1.488-0.024,3.113,1.131,4.16l13.838,12.542l-3.566,18.182c-0.297,1.518,0.305,3.07,1.549,3.988
		C14.181,63.734,15.015,64,15.853,64c0.648,0,1.299-0.158,1.893-0.479l16.754-9l16.758,9C51.852,63.842,52.5,64,53.15,64
		c0.838,0,1.675-0.266,2.375-0.783c1.244-0.918,1.849-2.471,1.55-3.988l-3.574-18.182l13.842-12.542
		C68.499,27.455,68.939,25.832,68.475,24.344z M49.143,39.598l4.01,20.398L34.503,49.979L15.854,59.996l4.004-20.398L4.345,25.539
		l21.1-2.746l9.057-18.795l9.055,18.795l21.104,2.746L49.143,39.598z"/>
</g>
</svg>
