<?xml version="1.0" encoding="utf-8"?>
<!-- Generator: Adobe Illustrator 16.0.0, SVG Export Plug-In . SVG Version: 6.00 Build 0)  -->
<!DOCTYPE svg PUBLIC "-//W3C//DTD SVG 1.1//EN" "http://www.w3.org/Graphics/SVG/1.1/DTD/svg11.dtd">
<svg version="1.1" id="Слой_1" xmlns="http://www.w3.org/2000/svg" xmlns:xlink="http://www.w3.org/1999/xlink" x="0px" y="0px"
	 width="96px" height="93px" viewBox="0 0 96 93" enable-background="new 0 0 96 93" xml:space="preserve">
<path fill="#BE9134" d="M60.979,38.255c-0.203-0.649-0.77-1.125-1.443-1.213l-6.975-0.907l-2.982-6.194
	c-0.29-0.602-0.909-0.99-1.577-0.99c-0.667,0-1.287,0.389-1.577,0.99l-2.984,6.194l-6.973,0.908
	c-0.675,0.087-1.242,0.563-1.444,1.212c-0.204,0.649-0.01,1.363,0.494,1.82l5.085,4.609l-1.31,6.681
	c-0.129,0.66,0.136,1.345,0.677,1.742c0.537,0.396,1.279,0.447,1.867,0.136L48,49.932l6.166,3.312
	c0.255,0.136,0.541,0.208,0.827,0.208c0.37,0,0.739-0.122,1.039-0.344c0.541-0.397,0.808-1.082,0.678-1.742l-1.313-6.681
	l5.086-4.608C60.986,39.618,61.184,38.904,60.979,38.255z M42.782,43.959l-5.521-5.003l7.51-0.978L48,31.275l3.169,6.581l0.06,0.122
	l7.51,0.978l-5.521,5.003l1.429,7.27L48,47.659l-6.645,3.569L42.782,43.959z"/>
</svg>
