<?xml version="1.0" encoding="utf-8"?>
<!-- Generator: Adobe Illustrator 16.0.0, SVG Export Plug-In . SVG Version: 6.00 Build 0)  -->
<!DOCTYPE svg PUBLIC "-//W3C//DTD SVG 1.1//EN" "http://www.w3.org/Graphics/SVG/1.1/DTD/svg11.dtd">
<svg version="1.1" id="Слой_1" xmlns="http://www.w3.org/2000/svg" xmlns:xlink="http://www.w3.org/1999/xlink" x="0px" y="0px"
	 width="96px" height="93px" viewBox="0 0 96 93" enable-background="new 0 0 96 93" xml:space="preserve">
<path fill="#BF9138" d="M81.974,33.544c-0.465-1.488-1.754-2.57-3.301-2.771l-18.955-2.465l-8.113-16.844
	C50.937,10.079,49.536,9.2,47.999,9.2c-1.535,0-2.936,0.879-3.604,2.264L36.28,28.308l-18.953,2.467
	c-1.547,0.199-2.836,1.281-3.301,2.77c-0.467,1.488-0.024,3.113,1.131,4.16l13.838,12.543l-3.566,18.182
	c-0.297,1.518,0.305,3.07,1.549,3.988c0.703,0.518,1.537,0.783,2.375,0.783c0.648,0,1.299-0.158,1.893-0.477l16.754-9l16.758,9
	c0.594,0.318,1.242,0.477,1.893,0.477c0.838,0,1.674-0.266,2.375-0.783c1.244-0.918,1.848-2.471,1.549-3.988l-3.574-18.182
	l13.842-12.543C81.999,36.655,82.44,35.032,81.974,33.544z M62.642,48.798l4.01,20.4l-18.65-10.018L29.354,69.198l4.004-20.4
	L17.845,34.739l21.1-2.746l9.057-18.795l9.055,18.795l21.102,2.746L62.642,48.798z"/>
</svg>
