<?xml version="1.0" encoding="utf-8"?>
<!-- Generator: Adobe Illustrator 16.0.0, SVG Export Plug-In . SVG Version: 6.00 Build 0)  -->
<!DOCTYPE svg PUBLIC "-//W3C//DTD SVG 1.1//EN" "http://www.w3.org/Graphics/SVG/1.1/DTD/svg11.dtd">
<svg version="1.1" id="Слой_1" xmlns="http://www.w3.org/2000/svg" xmlns:xlink="http://www.w3.org/1999/xlink" x="0px" y="0px"
	 width="96px" height="93px" viewBox="0 0 96 93" enable-background="new 0 0 96 93" xml:space="preserve">
<path fill="#BE9134" d="M58.596,38.796c-0.166-0.53-0.629-0.918-1.179-0.99l-5.694-0.74l-2.435-5.057
	c-0.236-0.492-0.742-0.808-1.287-0.808c-0.544,0-1.051,0.317-1.288,0.808l-2.436,5.057l-5.692,0.741
	c-0.551,0.071-1.014,0.459-1.179,0.989c-0.167,0.53-0.008,1.113,0.403,1.486l4.151,3.762l-1.069,5.454
	c-0.105,0.539,0.111,1.098,0.553,1.423c0.438,0.323,1.044,0.365,1.524,0.11L48,48.328l5.033,2.703
	c0.208,0.111,0.441,0.17,0.676,0.17c0.303,0,0.604-0.1,0.848-0.28c0.442-0.325,0.66-0.884,0.555-1.423l-1.071-5.454l4.149-3.762
	C58.602,39.909,58.764,39.326,58.596,38.796z M43.741,43.453l-4.507-4.084l6.13-0.799L48,33.098l2.587,5.372l0.05,0.1l6.129,0.799
	l-4.506,4.084l1.166,5.934L48,46.473l-5.424,2.914L43.741,43.453z"/>
<path fill="#ABABAB" d="M58.596,64.409c-0.166-0.53-0.629-0.919-1.179-0.989l-5.694-0.74l-2.435-5.058
	c-0.236-0.491-0.742-0.808-1.287-0.808c-0.544,0-1.051,0.315-1.288,0.808l-2.436,5.058l-5.692,0.74
	c-0.551,0.07-1.014,0.459-1.179,0.989c-0.167,0.53-0.008,1.112,0.403,1.485l4.151,3.762l-1.069,5.455
	c-0.105,0.539,0.111,1.098,0.553,1.423c0.438,0.323,1.044,0.364,1.524,0.11L48,73.941l5.033,2.703c0.208,0.11,0.441,0.17,0.676,0.17
	c0.303,0,0.604-0.101,0.848-0.28c0.442-0.325,0.66-0.884,0.555-1.423l-1.071-5.455l4.149-3.762
	C58.602,65.521,58.764,64.939,58.596,64.409z M43.741,69.066l-4.507-4.084l6.13-0.799L48,58.711l2.587,5.373l0.05,0.1l6.129,0.799
	l-4.506,4.084L53.426,75L48,72.086L42.576,75L43.741,69.066z"/>
</svg>
