<?xml version="1.0" encoding="utf-8"?>
<!-- Generator: Adobe Illustrator 16.0.0, SVG Export Plug-In . SVG Version: 6.00 Build 0)  -->
<!DOCTYPE svg PUBLIC "-//W3C//DTD SVG 1.1//EN" "http://www.w3.org/Graphics/SVG/1.1/DTD/svg11.dtd">
<svg version="1.1" id="Layer_1" xmlns="http://www.w3.org/2000/svg" xmlns:xlink="http://www.w3.org/1999/xlink" x="0px" y="0px"
	 width="68.264px" height="74.701px" viewBox="-10.134 -13.352 68.264 74.701"
	 enable-background="new -10.134 -13.352 68.264 74.701" xml:space="preserve">
<g>
	<path fill="#BC912F" d="M57.393,3.201l-9.351-9.347c-0.379-0.49-0.934-0.771-1.569-0.771h-7.266
		c0.214-1.042,0.684-1.952,1.305-2.526c0.535-0.426,0.842-1.053,0.842-1.72c0-1.207-0.931-2.189-2.075-2.189
		c-0.429,0-0.838,0.137-1.184,0.392l-0.031-0.038l-0.269,0.25c-1.514,1.414-2.489,3.475-2.765,5.832h-6.208
		c-0.586,0-1.142,0.281-1.495,0.738L-9.36,30.489c-0.062,0.036-0.14,0.08-0.219,0.158c-0.37,0.37-0.567,0.869-0.555,1.392
		c-0.01,0.537,0.187,1.036,0.558,1.407c0.074,0.072,0.149,0.115,0.228,0.15L17.61,60.567c0.037,0.065,0.083,0.147,0.161,0.225
		c0.358,0.358,0.841,0.556,1.389,0.556c0,0,0.001,0,0.002,0l0.042,0.001c0.52,0,1.003-0.197,1.363-0.557
		c0.078-0.079,0.124-0.161,0.152-0.232L57.36,23.916c0.489-0.381,0.77-0.936,0.77-1.566V4.697C58.13,4.112,57.85,3.557,57.393,3.201
		z M38.048,9.179c-0.092,0.074-0.178,0.154-0.256,0.238c0.155-0.205,0.338-0.39,0.544-0.547C38.241,8.986,38.146,9.089,38.048,9.179
		z M39.278,13.089c0.543,0,1.053-0.217,1.44-0.612c0.228-0.146,1.092-0.788,1.93-2.61c0.199,0.394,0.303,0.821,0.303,1.262
		c0,1.581-1.287,2.867-2.868,2.867s-2.867-1.286-2.867-2.867c0-0.006,0-0.011,0-0.017C37.317,12.22,38.204,13.089,39.278,13.089z
		 M33.301,11.131c0,3.741,3.043,6.785,6.784,6.785s6.784-3.044,6.784-6.785c0-2.322-1.227-4.501-3.218-5.74c0-0.002,0-0.004,0-0.006
		c0-2.797-1.052-5.385-2.886-7.101L40.487-1.92l-0.021,0.022c-0.308-0.3-0.578-0.674-0.797-1.101h6.092l8.452,8.451v16.182
		L19.169,56.679L-5.465,32.046L29.578-2.999h5.684c0.451,1.768,1.345,3.341,2.533,4.452l0.289,0.217l0.022-0.025
		c0.655,0.646,1.116,1.632,1.293,2.757C35.95,4.749,33.301,7.635,33.301,11.131z"/>
	<path fill="#BC912F" d="M17.271,22.603c-0.726-0.725-1.989-0.726-2.717,0c-0.748,0.75-0.748,1.969,0,2.717l11.339,11.34
		c0.362,0.363,0.845,0.563,1.358,0.563s0.996-0.199,1.358-0.563c0.748-0.75,0.748-1.969-0.001-2.717L17.271,22.603z"/>
	<path fill="#BC912F" d="M10.836,29.038c-0.725-0.723-1.989-0.726-2.716,0.001c-0.363,0.363-0.563,0.846-0.563,1.358
		s0.2,0.995,0.563,1.357l11.34,11.34c0.362,0.363,0.845,0.563,1.358,0.563s0.996-0.199,1.358-0.563c0.748-0.75,0.748-1.968,0-2.715
		L10.836,29.038z"/>
</g>
</svg>
