<?xml version="1.0" encoding="utf-8"?>
<!-- Generator: Adobe Illustrator 16.0.0, SVG Export Plug-In . SVG Version: 6.00 Build 0)  -->
<!DOCTYPE svg PUBLIC "-//W3C//DTD SVG 1.1//EN" "http://www.w3.org/Graphics/SVG/1.1/DTD/svg11.dtd">
<svg version="1.1" id="Слой_1" xmlns="http://www.w3.org/2000/svg" xmlns:xlink="http://www.w3.org/1999/xlink" x="0px" y="0px"
	 width="64px" height="64px" viewBox="0 0 64 64" enable-background="new 0 0 64 64" xml:space="preserve">
<path fill="#BD9131" d="M62,26c1.105,0,2-0.896,2-2V0H39c-1.104,0-2,0.896-2,2s0.896,2,2,2h17.739L35.228,31.474l-9.082-10.109
	L4,56.263V2c0-1.104-0.896-2-2-2S0,0.896,0,2v62h62c1.105,0,2-0.896,2-2s-0.895-2-2-2H6.366l20.332-32.038l8.742,9.731L60,6.323V24
	C60,25.104,60.896,26,62,26z"/>
</svg>
