<?xml version="1.0" encoding="utf-8"?>
<!-- Generator: Adobe Illustrator 16.0.0, SVG Export Plug-In . SVG Version: 6.00 Build 0)  -->
<!DOCTYPE svg PUBLIC "-//W3C//DTD SVG 1.1//EN" "http://www.w3.org/Graphics/SVG/1.1/DTD/svg11.dtd">
<svg version="1.1" id="Layer_1" xmlns="http://www.w3.org/2000/svg" xmlns:xlink="http://www.w3.org/1999/xlink" x="0px" y="0px"
	 width="54px" height="54px" viewBox="0 0 54 54" enable-background="new 0 0 54 54" xml:space="preserve">
<g>
	<circle fill="#252229" cx="27" cy="27" r="27"/>
	<path fill="#FFFFFF" d="M41.863,20.748c0,0-0.286-2.157-1.166-3.107c-1.114-1.245-2.364-1.252-2.938-1.322
		C33.656,16,27.501,16,27.501,16h-0.015c0,0-6.154,0-10.257,0.318c-0.573,0.07-1.821,0.078-2.938,1.322
		c-0.878,0.95-1.165,3.107-1.165,3.107s-0.293,2.531-0.293,5.063v2.371c0,2.533,0.293,5.063,0.293,5.063s0.286,2.155,1.165,3.103
		c1.117,1.246,2.581,1.209,3.233,1.338C19.87,37.926,27.495,38,27.495,38s6.161-0.012,10.265-0.326
		c0.573-0.072,1.823-0.08,2.938-1.324c0.882-0.947,1.166-3.104,1.166-3.104s0.296-2.53,0.296-5.063v-2.373
		C42.157,23.278,41.863,20.748,41.863,20.748z M23.833,32.5v-11L33,27L23.833,32.5z"/>
</g>
</svg>
