<?xml version="1.0" encoding="utf-8"?>
<!-- Generator: Adobe Illustrator 16.0.0, SVG Export Plug-In . SVG Version: 6.00 Build 0)  -->
<!DOCTYPE svg PUBLIC "-//W3C//DTD SVG 1.1//EN" "http://www.w3.org/Graphics/SVG/1.1/DTD/svg11.dtd">
<svg version="1.1" id="Layer_1" xmlns="http://www.w3.org/2000/svg" xmlns:xlink="http://www.w3.org/1999/xlink" x="0px" y="0px"
	 width="48px" height="48px" viewBox="3 3 48 48" enable-background="new 3 3 48 48" xml:space="preserve">
<g>
	<circle fill="#252229" cx="27" cy="27" r="24"/>
	<path fill="#BF9138" d="M39.251,21.885c0,0-0.234-1.765-0.954-2.542c-0.911-1.019-1.935-1.024-2.404-1.082
		C32.536,18,27.5,18,27.5,18h-0.012c0,0-5.035,0-8.392,0.26c-0.469,0.057-1.49,0.064-2.404,1.082
		c-0.718,0.777-0.953,2.542-0.953,2.542s-0.24,2.071-0.24,4.143v1.94c0,2.072,0.24,4.142,0.24,4.142s0.234,1.763,0.953,2.54
		c0.914,1.02,2.112,0.989,2.645,1.095C21.257,35.939,27.495,36,27.495,36s5.041-0.01,8.398-0.267
		c0.469-0.06,1.492-0.065,2.404-1.084c0.721-0.774,0.953-2.539,0.953-2.539s0.242-2.07,0.242-4.142v-1.942
		C39.491,23.955,39.251,21.885,39.251,21.885z M24.499,31.5v-9l7.5,4.5L24.499,31.5z"/>
</g>
</svg>
