<?xml version="1.0" encoding="utf-8"?>
<!-- Generator: Adobe Illustrator 16.0.0, SVG Export Plug-In . SVG Version: 6.00 Build 0)  -->
<!DOCTYPE svg PUBLIC "-//W3C//DTD SVG 1.1//EN" "http://www.w3.org/Graphics/SVG/1.1/DTD/svg11.dtd">
<svg version="1.1" xmlns="http://www.w3.org/2000/svg" xmlns:xlink="http://www.w3.org/1999/xlink" x="0px" y="0px"
	 width="22px" height="20px" viewBox="0 0 22 20" enable-background="new 0 0 22 20" xml:space="preserve">
<path id="cart-catalog-mini" fill="#ABABAB" d="M19.286,11.624c0.34,0,0.632-0.229,0.726-0.563l1.963-7.313c0.061-0.23,0.015-0.48-0.128-0.672
	c-0.144-0.188-0.363-0.303-0.599-0.303H5.389L4.85,0.581C4.765,0.239,4.463,0,4.118,0H0.755C0.336,0,0,0.346,0,0.77
	s0.338,0.77,0.754,0.77h2.777l3.112,12.635c-0.906,0.547-1.522,1.545-1.522,2.691C5.122,18.594,6.495,20,8.19,20
	c1.687,0,3.058-1.395,3.066-3.119h3.459C14.722,18.606,16.094,20,17.78,20c1.691,0,3.068-1.402,3.068-3.135
	c0-1.729-1.375-3.135-3.068-3.135c-1.146,0-2.14,0.654-2.664,1.609h-4.262c-0.527-0.955-1.517-1.609-2.665-1.609
	c-0.034,0-0.066,0.008-0.103,0.01L7.57,11.631h11.718L19.286,11.624L19.286,11.624z M17.782,15.266c0.859,0,1.561,0.717,1.561,1.598
	s-0.701,1.596-1.561,1.596c-0.861,0-1.563-0.715-1.563-1.596S16.92,15.266,17.782,15.266z M9.753,16.86
	c0,0.881-0.7,1.598-1.561,1.598c-0.862,0-1.563-0.717-1.563-1.598c0-0.879,0.701-1.596,1.563-1.596
	C9.051,15.266,9.753,15.979,9.753,16.86z M20.262,4.309l-1.55,5.771H7.19L5.767,4.309H20.262z"/>
</svg>
