<?xml version="1.0" encoding="utf-8"?>
<!-- Generator: Adobe Illustrator 16.0.0, SVG Export Plug-In . SVG Version: 6.00 Build 0)  -->
<!DOCTYPE svg PUBLIC "-//W3C//DTD SVG 1.1//EN" "http://www.w3.org/Graphics/SVG/1.1/DTD/svg11.dtd">
<svg version="1.1" id="Слой_1" xmlns="http://www.w3.org/2000/svg" xmlns:xlink="http://www.w3.org/1999/xlink" x="0px" y="0px"
	 width="61.5px" height="58px" viewBox="0 0 61.5 58" enable-background="new 0 0 61.5 58" xml:space="preserve">
<g>
	<path fill="#BF9138" d="M61.282,26.214c-0.499-0.979-1.704-1.37-2.688-0.873c-1.783,0.904-3.566,1.688-5.344,2.371V14v-0.332
		c0-4.229-1.234-7.603-3.673-10.022C45.934,0.026,40.914-0.008,40.755,0H33.25h-4.5h-7.505c-0.159-0.008-5.18,0.026-8.822,3.646
		C9.985,6.066,8.75,9.438,8.75,13.669V14v13.697c-3.618-1.242-5.757-2.313-5.833-2.352c-0.982-0.506-2.188-0.121-2.694,0.856
		C-0.283,27.18,0.1,28.38,1.08,28.887c0.792,0.407,13.49,6.803,30.535,6.803c8.787,0,18.73-1.699,28.791-6.797
		C61.391,28.395,61.783,27.193,61.282,26.214z M49.249,14v15.072c-14.34,4.33-27.815,2.296-36.5-0.133V14v-0.332
		c0-9.347,7.63-9.677,8.5-9.684h7.5h4.5h7.5c0.87,0.007,8.5,0.336,8.5,9.684V14z"/>
	<path fill="#BF9138" d="M52.1,41.784c-0.514-0.376-1.176-0.484-1.783-0.296l-19.481,6.096l-19.483-6.096
		c-0.607-0.188-1.27-0.08-1.783,0.296c-0.513,0.375-0.816,0.972-0.816,1.604v12.617c0,0.635,0.303,1.232,0.816,1.607
		C9.916,57.867,10.331,58,10.752,58c0.201,0,0.403-0.029,0.6-0.092l19.483-6.094l19.483,6.094c0.195,0.063,0.396,0.092,0.6,0.092
		c0.421,0,0.836-0.133,1.184-0.387c0.516-0.375,0.816-0.973,0.816-1.606V43.389C52.916,42.755,52.613,42.159,52.1,41.784z
		 M12.75,53.294v-7.19L24.241,49.7L12.75,53.294z M48.916,53.294l-11.491-3.593l11.491-3.596V53.294z"/>
</g>
</svg>
