<svg version="1.1" id="svg-like" xmlns="http://www.w3.org/2000/svg" xmlns:xlink="http://www.w3.org/1999/xlink" x="0px" y="0px" width="64px" height="64px" viewBox="-117.875 -43 64 64" enable-background="new -117.875 -43 64 64" xml:space="preserve">
<g>
	<g>
		<path fill="#BE9134" d="M-55.614-19.787c-2.171-2.524-5.448-2.833-6.406-2.868c-4.424-0.323-10.24-0.392-14.354-0.392
			c-0.005,0-0.011,0-0.017,0c0.722-4.337,0.216-8.38,0.128-9.013l-0.019-0.14l-0.029-0.137C-78.5-42.7-85.13-43-85.878-43h-0.001
			c-1.696,0-3.235,0.655-4.331,1.846c-1.575,1.709-1.72,3.893-1.691,4.895c-0.666,11.385-9.489,14.47-9.579,14.5
			c-0.177,0.058-0.328,0.142-0.494,0.211c-1.051-0.906-2.415-1.458-3.907-1.458h-5.998c-3.307,0-5.997,2.691-5.997,6v32.001
			c0,3.308,2.69,5.998,5.997,5.998h5.998c2.375,0,4.427-1.393,5.397-3.401c10.064,3.137,18.406,3.397,20.799,3.397
			c0.194,0,0.337-0.002,0.424-0.003c0.668,0.01,1.802,0.015,3.092,0.015c3.291,0,7.615-0.025,7.615-0.025
			c5.002,0,7.788-3.887,7.889-7.581c0.033-0.652-0.03-1.298-0.182-1.913c2.41-1.765,3.506-4.68,3.653-6.954
			c0.179-1.503-0.041-2.705-0.42-3.644c1.829-1.677,2.648-4.054,2.736-5.94c0.163-1.861-0.237-3.283-0.787-4.325
			c1.419-1.671,1.684-3.648,1.729-4.529C-53.61-16.77-54.661-18.679-55.614-19.787z M-104.036,15.763
			c-0.254,0.608-0.808,1.045-1.472,1.173c-0.102,0.025-0.208,0.039-0.315,0.048c-0.02,0.001-0.038,0.009-0.058,0.009h-0.029
			c-0.026,0.001-0.051,0.008-0.078,0.008h-5.997c-1.104,0-2-0.895-2-2v-32c0-1.104,0.896-2,2-2h0.039
			c0.023-0.001,0.044-0.007,0.068-0.007h5.998c0.304,0,0.589,0.073,0.847,0.195c-0.009,0.017-0.015,0.034-0.024,0.052
			c0.633,0.335,1.069,0.993,1.069,1.76v32L-104.036,15.763z M-57.925-14.225c0,0,0.051,3.218-3.138,3.227l-4.24-0.009
			c0,0-0.109-0.014-0.271-0.014c-0.47,0-1.38,0.115-1.35,1.014c0,0-0.208,1,1.621,1h3.709c0,0,3.086,0.125,2.726,3.687
			c0,0-0.107,4.248-4.44,4.295l-4.116,0.016c0,0-0.104-0.015-0.258-0.015c-0.428,0-1.238,0.118-1.238,1.015c0,0-0.093,1,1.622,1
			c0,0,1.746,0,3.304,0c0,0,0.088-0.01,0.233-0.01c0.746,0,2.991,0.241,2.583,3.184c0,0-0.198,4.887-4.78,4.887l-3.971-0.063
			c0,0-1.027,0-0.998,1c0,0-0.071,0.949,1.27,0.949c0,0,2.252,0.049,3.325,0.049c1.057,0,1.75,1.094,1.672,2.25
			c0,0-0.052,3.738-3.916,3.738c0,0-4.312,0.025-7.592,0.025c-1.313,0-2.46-0.005-3.101-0.016c0,0-0.143,0.004-0.415,0.004
			c-1.916,0-10.246-0.207-20.199-3.403v-30.592c0-0.357-0.037-0.705-0.097-1.046c1.612-0.628,11.418-4.981,12.082-18.193
			c0,0-0.225-2.754,2.019-2.754c0,0,0,0,0.001,0c0,0,4.074,0,5.655,7.49c0,0,1.076,7.755-1.666,12.505c0,0,2.295-0.042,5.515-0.042
			c4.161,0,9.866,0.069,14.15,0.387C-62.225-18.66-57.323-18.599-57.925-14.225z"/>
		<path fill="#BD9131" d="M-109.139,9.004c-1.654,0-3,1.346-3,3s1.346,3,3,3s3-1.346,3-3S-107.485,9.004-109.139,9.004z
			 M-109.139,13.004c-0.552,0-1-0.448-1-1c0-0.553,0.448-1,1-1s1,0.447,1,1C-108.139,12.556-108.587,13.004-109.139,13.004z"/>
	</g>
</g>
</svg>
