<?xml version="1.0" encoding="utf-8"?>
<!-- Generator: Adobe Illustrator 16.0.0, SVG Export Plug-In . SVG Version: 6.00 Build 0)  -->
<!DOCTYPE svg PUBLIC "-//W3C//DTD SVG 1.1//EN" "http://www.w3.org/Graphics/SVG/1.1/DTD/svg11.dtd">
<svg version="1.1" id="Слой_1" xmlns:sketch="http://www.bohemiancoding.com/sketch/ns"
	 xmlns="http://www.w3.org/2000/svg" xmlns:xlink="http://www.w3.org/1999/xlink" x="0px" y="0px" width="22px" height="22px"
	 viewBox="0 0 22 22" enable-background="new 0 0 22 22" xml:space="preserve">
<g id="slice" transform="translate(215.000000, 119.000000)">
</g>
<path fill="#BF9138" d="M22.914,20.775l-6.344-6.342c0.967-1.386,1.533-3.067,1.533-4.885c0-4.721-3.83-8.55-8.553-8.55
	C4.829,1,1,4.829,1,9.55c0,4.722,3.829,8.552,8.552,8.552c1.816,0,3.5-0.566,4.886-1.531v-0.002l6.342,6.343
	c0.117,0.116,0.306,0.12,0.426,0l1.71-1.708C23.031,21.083,23.025,20.889,22.914,20.775z M9.552,16.089
	c-3.612,0-6.54-2.928-6.54-6.539c0-3.61,2.928-6.538,6.54-6.538c3.611,0,6.539,2.928,6.539,6.538
	C16.091,13.161,13.163,16.089,9.552,16.089z"/>
</svg>
