<?xml version="1.0" encoding="utf-8"?>
<!-- Generator: Adobe Illustrator 16.0.0, SVG Export Plug-In . SVG Version: 6.00 Build 0)  -->
<!DOCTYPE svg PUBLIC "-//W3C//DTD SVG 1.1//EN" "http://www.w3.org/Graphics/SVG/1.1/DTD/svg11.dtd">
<svg version="1.1" id="svg-evona" xmlns="http://www.w3.org/2000/svg" xmlns:xlink="http://www.w3.org/1999/xlink" x="0px" y="0px"
	 width="170px" height="39px" viewBox="0 0 170 39" enable-background="new 0 0 170 39" xml:space="preserve">
<g id="Слой_x0020_1">
	<path fill="#FEFEFE" id="svg-logo-evona" d="M27.675,9.554c0-1.932-0.583-3.453-1.735-4.577c-1.158-1.119-2.779-1.679-4.859-1.679H9.871
		c-1.885,0-3.406,0.56-4.564,1.679C4.148,6.101,3.572,7.622,3.572,9.554H27.675z M0.438,37.35v-3.431h0.755v0.312
		c0.174-0.281,0.473-0.42,0.899-0.42c0.409,0,0.731,0.161,0.969,0.483l0.017,0.021l0.023,0.02c0.068-0.104,0.161-0.203,0.275-0.276
		c0.115-0.082,0.242-0.146,0.388-0.187c0.138-0.045,0.288-0.063,0.438-0.063c0.434,0,0.777,0.139,1.031,0.42
		c0.133,0.15,0.225,0.313,0.277,0.484c0.052,0.172,0.081,0.408,0.081,0.709v1.926H4.769v-1.826c0-0.316-0.046-0.537-0.127-0.658
		c-0.052-0.074-0.121-0.139-0.213-0.186c-0.099-0.047-0.196-0.063-0.308-0.063c-0.248,0-0.438,0.098-0.563,0.295
		c-0.052,0.086-0.087,0.184-0.104,0.286c-0.019,0.108-0.022,0.283-0.022,0.521v1.633H2.602v-1.828c0-0.293-0.04-0.502-0.126-0.629
		c-0.127-0.186-0.313-0.275-0.562-0.275c-0.178,0-0.321,0.053-0.426,0.154c-0.086,0.082-0.145,0.189-0.18,0.336
		c-0.029,0.139-0.046,0.346-0.046,0.609v1.633L0.438,37.35L0.438,37.35L0.438,37.35z M7.934,33.811c0.334,0,0.646,0.08,0.928,0.241
		c0.277,0.16,0.502,0.382,0.664,0.662c0.161,0.283,0.241,0.588,0.241,0.924c0,0.334-0.081,0.64-0.248,0.916
		c-0.161,0.283-0.38,0.502-0.663,0.668c-0.281,0.162-0.588,0.242-0.916,0.242c-0.33,0-0.635-0.08-0.912-0.248
		c-0.283-0.159-0.502-0.385-0.668-0.668c-0.162-0.276-0.242-0.588-0.242-0.916c0-0.33,0.08-0.629,0.242-0.912
		c0.166-0.274,0.385-0.5,0.668-0.661C7.306,33.891,7.611,33.811,7.934,33.811z M7.934,34.616c-0.186,0.006-0.354,0.053-0.501,0.145
		c-0.155,0.093-0.271,0.22-0.356,0.369c-0.092,0.148-0.133,0.322-0.133,0.502c0,0.293,0.098,0.535,0.289,0.73
		c0.195,0.195,0.426,0.295,0.709,0.295c0.184,0,0.356-0.047,0.512-0.133c0.15-0.088,0.271-0.209,0.363-0.363
		c0.086-0.154,0.133-0.328,0.133-0.514s-0.045-0.357-0.139-0.52c-0.092-0.154-0.213-0.283-0.363-0.375
		c-0.148-0.092-0.311-0.14-0.49-0.14H7.935L7.934,34.616L7.934,34.616z M10.275,37.35v-3.431h0.75v0.312
		c0.109-0.153,0.219-0.265,0.322-0.328c0.114-0.063,0.253-0.092,0.421-0.092h0.067v0.795c-0.166,0.013-0.305,0.047-0.42,0.108
		c-0.104,0.054-0.189,0.14-0.254,0.267c-0.045,0.099-0.067,0.271-0.067,0.521v1.852h-0.819V37.35z M15.643,36.001h-2.664
		c0.059,0.148,0.121,0.265,0.189,0.34c0.189,0.213,0.433,0.316,0.732,0.316c0.166,0,0.328-0.035,0.473-0.1
		c0.099-0.047,0.189-0.109,0.277-0.195h0.916c-0.092,0.215-0.195,0.381-0.305,0.502c-0.18,0.186-0.387,0.334-0.623,0.438
		c-0.242,0.109-0.484,0.162-0.732,0.162c-0.322,0-0.623-0.08-0.897-0.242c-0.276-0.168-0.496-0.387-0.657-0.663
		c-0.162-0.281-0.242-0.582-0.242-0.904c0-0.334,0.082-0.646,0.242-0.928c0.161-0.283,0.381-0.509,0.657-0.671
		c0.282-0.166,0.582-0.247,0.911-0.247c0.316,0,0.609,0.081,0.882,0.241c0.271,0.162,0.483,0.381,0.646,0.658
		c0.162,0.271,0.242,0.564,0.242,0.883c0,0.063-0.012,0.172-0.035,0.334L15.643,36.001z M12.967,35.27h1.891
		c-0.058-0.146-0.121-0.261-0.201-0.336c-0.189-0.214-0.434-0.315-0.731-0.315c-0.313,0-0.571,0.114-0.779,0.346
		C13.07,35.05,13.008,35.148,12.967,35.27z M21.373,36.001h-2.664c0.054,0.148,0.121,0.265,0.191,0.34
		c0.184,0.213,0.426,0.316,0.725,0.316c0.175,0,0.33-0.035,0.479-0.1c0.099-0.047,0.188-0.109,0.277-0.195h0.909
		c-0.086,0.215-0.188,0.381-0.305,0.502c-0.174,0.186-0.387,0.334-0.623,0.438c-0.235,0.109-0.483,0.162-0.731,0.162
		c-0.323,0-0.623-0.08-0.899-0.242c-0.277-0.168-0.496-0.387-0.656-0.663c-0.162-0.281-0.242-0.582-0.242-0.904
		c0-0.334,0.08-0.646,0.248-0.928c0.16-0.283,0.381-0.509,0.656-0.671c0.276-0.166,0.582-0.247,0.912-0.247
		c0.313,0,0.604,0.081,0.875,0.241c0.271,0.162,0.49,0.381,0.651,0.658c0.162,0.271,0.243,0.564,0.243,0.883
		c0,0.063-0.014,0.172-0.035,0.334L21.373,36.001z M18.691,35.27h1.891c-0.051-0.146-0.113-0.261-0.194-0.336
		c-0.19-0.214-0.438-0.315-0.731-0.315c-0.317,0-0.576,0.114-0.785,0.346C18.802,35.05,18.738,35.148,18.691,35.27z M23.017,37.35
		l-1.39-3.431h0.916l0.797,2.254l0.79-2.254h0.917l-1.391,3.431H23.017z M27.093,33.811c0.334,0,0.646,0.08,0.928,0.241
		c0.277,0.16,0.503,0.382,0.663,0.662c0.162,0.283,0.242,0.588,0.242,0.924c0,0.334-0.081,0.64-0.248,0.916
		c-0.161,0.283-0.38,0.502-0.663,0.668c-0.282,0.162-0.588,0.242-0.917,0.242s-0.634-0.08-0.911-0.248
		c-0.282-0.159-0.501-0.385-0.668-0.668c-0.161-0.276-0.243-0.588-0.243-0.916c0-0.33,0.082-0.629,0.243-0.912
		c0.167-0.274,0.386-0.5,0.668-0.661C26.464,33.891,26.77,33.811,27.093,33.811z M27.093,34.616
		c-0.187,0.006-0.353,0.053-0.509,0.145c-0.148,0.093-0.264,0.22-0.355,0.369c-0.086,0.148-0.127,0.322-0.127,0.502
		c0,0.293,0.098,0.535,0.289,0.73c0.189,0.195,0.426,0.295,0.709,0.295c0.186,0,0.355-0.047,0.508-0.133
		c0.155-0.088,0.276-0.209,0.362-0.363c0.092-0.154,0.133-0.328,0.133-0.514s-0.041-0.357-0.133-0.52
		c-0.093-0.154-0.213-0.283-0.362-0.375c-0.15-0.092-0.314-0.14-0.49-0.14h-0.023L27.093,34.616L27.093,34.616z M29.434,37.35
		v-3.431h0.762v0.312c0.115-0.134,0.23-0.229,0.357-0.293c0.186-0.086,0.375-0.127,0.582-0.127c0.402,0,0.75,0.155,1.031,0.474
		c0.022,0.028,0.041,0.047,0.045,0.047c0.105,0.145,0.175,0.305,0.215,0.483c0.033,0.179,0.059,0.433,0.059,0.76v1.775h-0.83V35.73
		c0-0.403-0.047-0.681-0.14-0.83c-0.052-0.086-0.132-0.149-0.229-0.207c-0.104-0.054-0.209-0.075-0.316-0.075
		c-0.116,0-0.23,0.021-0.334,0.079c-0.104,0.06-0.186,0.134-0.242,0.228c-0.052,0.08-0.086,0.186-0.109,0.307
		c-0.018,0.119-0.029,0.311-0.029,0.568v1.553h-0.818V37.35H29.434z M36.623,33.919v3.431h-0.756v-0.462
		c-0.098,0.109-0.172,0.191-0.234,0.242c-0.063,0.054-0.15,0.109-0.26,0.162c-0.219,0.113-0.457,0.172-0.709,0.172
		c-0.316,0-0.601-0.08-0.854-0.235c-0.254-0.16-0.449-0.379-0.594-0.662c-0.145-0.276-0.221-0.595-0.221-0.938
		c0-0.336,0.076-0.646,0.227-0.924c0.148-0.275,0.357-0.494,0.623-0.656c0.259-0.154,0.548-0.236,0.857-0.236
		c0.254,0,0.475,0.053,0.664,0.15c0.099,0.051,0.186,0.104,0.254,0.166c0.068,0.059,0.148,0.149,0.248,0.276v-0.483L36.623,33.919
		L36.623,33.919z M35.839,35.648c0-0.201-0.041-0.381-0.128-0.537c-0.08-0.153-0.195-0.28-0.346-0.366
		c-0.156-0.089-0.324-0.127-0.52-0.127c-0.189,0-0.369,0.038-0.523,0.133c-0.156,0.086-0.277,0.213-0.369,0.369
		c-0.086,0.159-0.133,0.334-0.133,0.534c0,0.185,0.047,0.356,0.133,0.515c0.092,0.147,0.213,0.271,0.369,0.356
		c0.155,0.086,0.328,0.133,0.52,0.133c0.189,0,0.361-0.047,0.513-0.133c0.149-0.088,0.271-0.209,0.356-0.362
		C35.798,36.007,35.839,35.839,35.839,35.648z M42.521,37.35v-3.431h0.755v0.312c0.168-0.281,0.467-0.42,0.899-0.42
		c0.407,0,0.731,0.161,0.963,0.483l0.022,0.021l0.019,0.02c0.075-0.104,0.167-0.203,0.28-0.276c0.111-0.082,0.236-0.146,0.382-0.187
		c0.146-0.045,0.289-0.063,0.442-0.063c0.434,0,0.772,0.139,1.026,0.42c0.138,0.15,0.229,0.313,0.282,0.484
		c0.052,0.172,0.074,0.408,0.074,0.709v1.926h-0.823v-1.826c0-0.316-0.041-0.537-0.127-0.658c-0.046-0.074-0.121-0.139-0.213-0.186
		c-0.093-0.047-0.19-0.063-0.302-0.063c-0.252,0-0.442,0.098-0.569,0.295c-0.046,0.086-0.081,0.184-0.099,0.286
		c-0.019,0.108-0.028,0.283-0.028,0.521v1.633h-0.824v-1.828c0-0.293-0.046-0.502-0.132-0.629c-0.122-0.186-0.307-0.275-0.555-0.275
		c-0.186,0-0.322,0.053-0.434,0.154c-0.081,0.082-0.138,0.189-0.173,0.336c-0.035,0.139-0.052,0.346-0.052,0.609v1.633h-0.817V37.35
		H42.521z M50.01,33.811c0.34,0,0.646,0.08,0.929,0.241c0.282,0.16,0.501,0.382,0.663,0.662c0.162,0.283,0.242,0.588,0.242,0.924
		c0,0.334-0.081,0.64-0.242,0.916c-0.161,0.283-0.386,0.502-0.663,0.668c-0.282,0.162-0.588,0.242-0.917,0.242
		c-0.328,0-0.634-0.08-0.917-0.248c-0.276-0.159-0.502-0.385-0.663-0.668c-0.166-0.276-0.248-0.588-0.248-0.916
		c0-0.33,0.082-0.629,0.248-0.912c0.161-0.274,0.387-0.5,0.663-0.661C49.388,33.891,49.688,33.811,50.01,33.811z M50.01,34.616
		c-0.18,0.006-0.354,0.053-0.501,0.145c-0.149,0.093-0.271,0.22-0.356,0.369c-0.086,0.148-0.127,0.322-0.127,0.502
		c0,0.293,0.092,0.535,0.288,0.73c0.188,0.195,0.427,0.295,0.709,0.295c0.185,0,0.357-0.047,0.507-0.133
		c0.156-0.088,0.277-0.209,0.363-0.363s0.133-0.328,0.133-0.514s-0.046-0.357-0.133-0.52c-0.092-0.154-0.213-0.283-0.363-0.375
		c-0.148-0.092-0.315-0.14-0.49-0.14h-0.028L50.01,34.616L50.01,34.616z M52.357,37.35v-3.431h0.743v0.312
		c0.108-0.153,0.22-0.265,0.329-0.328s0.248-0.092,0.421-0.092h0.063v0.795c-0.168,0.013-0.307,0.047-0.416,0.108
		c-0.107,0.054-0.188,0.14-0.258,0.267c-0.041,0.099-0.063,0.271-0.063,0.521v1.852h-0.82L52.357,37.35L52.357,37.35z
		 M57.725,36.001h-2.669c0.058,0.148,0.127,0.265,0.194,0.34c0.187,0.213,0.428,0.316,0.728,0.316c0.173,0,0.329-0.035,0.479-0.1
		c0.099-0.047,0.189-0.109,0.277-0.195h0.91c-0.087,0.215-0.189,0.381-0.306,0.502c-0.175,0.186-0.388,0.334-0.623,0.438
		c-0.237,0.109-0.483,0.162-0.731,0.162c-0.324,0-0.623-0.08-0.898-0.242c-0.276-0.168-0.496-0.387-0.657-0.663
		c-0.162-0.281-0.242-0.582-0.242-0.904c0-0.334,0.081-0.646,0.248-0.928c0.162-0.283,0.38-0.509,0.657-0.671
		c0.275-0.166,0.583-0.247,0.911-0.247c0.312,0,0.604,0.081,0.876,0.241c0.271,0.162,0.488,0.381,0.65,0.658
		c0.162,0.271,0.241,0.564,0.241,0.883c0,0.063-0.011,0.172-0.034,0.334L57.725,36.001z M55.043,35.27h1.893
		c-0.052-0.146-0.115-0.261-0.195-0.336c-0.189-0.214-0.438-0.315-0.738-0.315c-0.311,0-0.569,0.114-0.777,0.346
		C55.152,35.05,55.09,35.148,55.043,35.27z M62.527,36.235h0.922c-0.059,0.148-0.108,0.271-0.149,0.354
		c-0.048,0.08-0.108,0.166-0.187,0.254c-0.179,0.201-0.386,0.353-0.623,0.461c-0.235,0.109-0.482,0.16-0.738,0.16
		c-0.334,0-0.645-0.08-0.922-0.248c-0.281-0.16-0.508-0.385-0.67-0.668c-0.166-0.282-0.248-0.594-0.248-0.922
		s0.082-0.635,0.242-0.918c0.162-0.274,0.387-0.496,0.664-0.656c0.281-0.161,0.582-0.241,0.91-0.241c0.18,0,0.352,0.022,0.52,0.073
		c0.166,0.054,0.328,0.121,0.479,0.22c0.145,0.094,0.283,0.209,0.396,0.346c0.076,0.089,0.14,0.181,0.187,0.261
		c0.046,0.088,0.093,0.203,0.138,0.354h-0.922c-0.098-0.162-0.213-0.275-0.334-0.342c-0.121-0.068-0.271-0.104-0.455-0.104
		c-0.189,0-0.363,0.041-0.52,0.129c-0.148,0.086-0.266,0.207-0.354,0.355c-0.08,0.154-0.127,0.328-0.127,0.523
		c0,0.301,0.098,0.543,0.289,0.737c0.196,0.195,0.434,0.295,0.729,0.295C62.078,36.657,62.33,36.52,62.527,36.235z M65.697,33.811
		c0.34,0,0.646,0.08,0.928,0.241c0.283,0.16,0.502,0.382,0.664,0.662c0.16,0.283,0.242,0.588,0.242,0.924
		c0,0.334-0.082,0.64-0.242,0.916c-0.162,0.283-0.387,0.502-0.664,0.668c-0.281,0.162-0.588,0.242-0.916,0.242
		s-0.635-0.08-0.918-0.248c-0.274-0.159-0.5-0.385-0.661-0.668c-0.167-0.276-0.248-0.588-0.248-0.916
		c0-0.33,0.081-0.629,0.248-0.912c0.161-0.274,0.387-0.5,0.661-0.661C65.076,33.891,65.375,33.811,65.697,33.811z M65.697,34.616
		c-0.185,0.006-0.352,0.053-0.5,0.145c-0.149,0.093-0.271,0.22-0.356,0.369c-0.087,0.148-0.128,0.322-0.128,0.502
		c0,0.293,0.093,0.535,0.287,0.73c0.191,0.195,0.429,0.295,0.709,0.295c0.186,0,0.354-0.047,0.509-0.133
		c0.153-0.088,0.274-0.209,0.362-0.363c0.086-0.154,0.133-0.328,0.133-0.514s-0.047-0.357-0.133-0.52
		c-0.092-0.154-0.213-0.283-0.362-0.375c-0.156-0.092-0.317-0.14-0.49-0.14h-0.028v0.003H65.697z M68.045,37.35v-4.636h0.818v4.636
		H68.045z M71.199,33.811c0.334,0,0.646,0.08,0.922,0.241c0.281,0.16,0.506,0.382,0.662,0.662c0.168,0.283,0.248,0.588,0.248,0.924
		c0,0.334-0.086,0.64-0.248,0.916c-0.162,0.283-0.387,0.502-0.662,0.668c-0.282,0.162-0.588,0.242-0.918,0.242
		c-0.328,0-0.633-0.08-0.91-0.248c-0.282-0.159-0.502-0.385-0.67-0.668c-0.161-0.276-0.248-0.588-0.248-0.916
		c0-0.33,0.087-0.629,0.248-0.912c0.168-0.274,0.388-0.5,0.67-0.661C70.57,33.891,70.875,33.811,71.199,33.811z M71.199,34.616
		c-0.186,0.006-0.353,0.053-0.508,0.145c-0.15,0.093-0.271,0.22-0.357,0.369c-0.086,0.148-0.127,0.322-0.127,0.502
		c0,0.293,0.094,0.535,0.289,0.73c0.189,0.195,0.428,0.295,0.709,0.295c0.186,0,0.356-0.047,0.507-0.133
		c0.155-0.088,0.276-0.209,0.362-0.363c0.092-0.154,0.133-0.328,0.133-0.514s-0.045-0.357-0.133-0.52
		c-0.092-0.154-0.213-0.283-0.362-0.375s-0.316-0.14-0.489-0.14h-0.023V34.616L71.199,34.616z M73.539,37.35v-3.431h0.744v0.312
		c0.108-0.153,0.219-0.265,0.328-0.328s0.254-0.092,0.422-0.092h0.063v0.795c-0.161,0.013-0.301,0.047-0.415,0.108
		c-0.104,0.054-0.19,0.14-0.253,0.267c-0.046,0.099-0.068,0.271-0.068,0.521v1.852h-0.82V37.35L73.539,37.35z M75.533,37.35v-2.703
		h-0.287v-0.728h0.287c0.023-0.229,0.063-0.422,0.127-0.561c0.059-0.139,0.14-0.26,0.236-0.355c0.098-0.104,0.213-0.18,0.334-0.235
		c0.127-0.054,0.254-0.082,0.387-0.082h0.041l0.226,0.012v0.818c-0.146,0-0.248,0.012-0.317,0.028
		c-0.068,0.021-0.115,0.06-0.145,0.115c-0.029,0.057-0.047,0.145-0.059,0.26h0.473v0.728h-0.473v2.703H75.533z M79.482,33.919h0.824
		v3.431h-0.761v-0.363c-0.06,0.104-0.128,0.187-0.196,0.248c-0.186,0.156-0.41,0.229-0.688,0.229c-0.438,0-0.801-0.16-1.084-0.479
		c-0.133-0.145-0.219-0.295-0.26-0.443c-0.045-0.156-0.068-0.381-0.068-0.688v-1.938h0.824v1.688c0,0.315,0.035,0.554,0.104,0.696
		c0.114,0.236,0.315,0.353,0.601,0.353c0.241,0,0.414-0.086,0.529-0.26c0.115-0.173,0.174-0.433,0.174-0.789V33.919L79.482,33.919z
		 M80.971,37.35v-4.636h0.818v4.636H80.971z M87.738,37.35v-3.431h0.756v0.312c0.168-0.281,0.467-0.42,0.9-0.42
		c0.406,0,0.729,0.161,0.963,0.483l0.02,0.021l0.02,0.02c0.076-0.104,0.168-0.203,0.281-0.276c0.109-0.082,0.236-0.146,0.383-0.187
		c0.145-0.045,0.287-0.063,0.441-0.063c0.434,0,0.773,0.139,1.025,0.42c0.139,0.15,0.229,0.313,0.283,0.484
		c0.053,0.172,0.072,0.408,0.072,0.709v1.926h-0.822v-1.826c0-0.316-0.039-0.537-0.127-0.658c-0.047-0.074-0.121-0.139-0.215-0.186
		c-0.092-0.047-0.193-0.063-0.299-0.063c-0.254,0-0.443,0.098-0.57,0.295c-0.047,0.086-0.08,0.184-0.1,0.286
		c-0.018,0.108-0.025,0.283-0.025,0.521v1.633h-0.826v-1.828c0-0.293-0.045-0.502-0.133-0.629c-0.119-0.186-0.307-0.275-0.555-0.275
		c-0.184,0-0.32,0.053-0.432,0.154c-0.082,0.082-0.139,0.189-0.174,0.336c-0.035,0.139-0.053,0.346-0.053,0.609v1.633h-0.816V37.35
		H87.738z M95.229,33.811c0.342,0,0.646,0.08,0.93,0.241c0.283,0.16,0.5,0.382,0.662,0.662c0.162,0.283,0.242,0.588,0.242,0.924
		c0,0.334-0.08,0.64-0.242,0.916c-0.162,0.283-0.387,0.502-0.662,0.668c-0.283,0.162-0.588,0.242-0.918,0.242
		c-0.328,0-0.633-0.08-0.916-0.248c-0.277-0.159-0.502-0.385-0.664-0.668c-0.166-0.276-0.246-0.588-0.246-0.916
		c0-0.33,0.08-0.629,0.246-0.912c0.162-0.274,0.387-0.5,0.664-0.661C94.607,33.891,94.906,33.811,95.229,33.811z M95.229,34.616
		c-0.186,0.006-0.354,0.053-0.5,0.145c-0.15,0.093-0.271,0.22-0.357,0.369c-0.088,0.148-0.127,0.322-0.127,0.502
		c0,0.293,0.092,0.535,0.287,0.73c0.189,0.195,0.428,0.295,0.709,0.295c0.186,0,0.352-0.047,0.508-0.133
		c0.156-0.088,0.277-0.209,0.363-0.363s0.133-0.328,0.133-0.514s-0.047-0.357-0.133-0.52c-0.092-0.154-0.213-0.283-0.363-0.375
		c-0.156-0.092-0.314-0.14-0.49-0.14H95.23v0.003H95.229z M97.574,37.35v-3.431h0.744v0.312c0.107-0.153,0.219-0.265,0.328-0.328
		c0.107-0.063,0.248-0.092,0.422-0.092h0.063v0.795c-0.168,0.013-0.307,0.047-0.416,0.108c-0.107,0.054-0.188,0.14-0.258,0.267
		c-0.041,0.099-0.063,0.271-0.063,0.521v1.852h-0.818V37.35H97.574z M102.943,36.001h-2.67c0.057,0.148,0.121,0.265,0.193,0.34
		c0.188,0.213,0.43,0.316,0.729,0.316c0.174,0,0.328-0.035,0.479-0.1c0.1-0.047,0.191-0.109,0.277-0.195h0.91
		c-0.086,0.215-0.189,0.381-0.307,0.502c-0.174,0.186-0.387,0.334-0.621,0.438c-0.236,0.109-0.484,0.162-0.732,0.162
		c-0.322,0-0.623-0.08-0.898-0.242c-0.275-0.168-0.494-0.387-0.656-0.663c-0.162-0.281-0.242-0.582-0.242-0.904
		c0-0.334,0.08-0.646,0.242-0.928c0.168-0.283,0.387-0.509,0.664-0.671c0.273-0.166,0.582-0.247,0.902-0.247
		c0.316,0,0.611,0.081,0.883,0.241c0.271,0.162,0.49,0.381,0.65,0.658c0.162,0.271,0.242,0.564,0.242,0.883
		c0,0.063-0.012,0.172-0.035,0.334L102.943,36.001z M100.26,35.27h1.895c-0.053-0.146-0.121-0.261-0.197-0.336
		c-0.188-0.214-0.438-0.315-0.738-0.315c-0.311,0-0.568,0.114-0.775,0.346C100.365,35.05,100.309,35.148,100.26,35.27z
		 M107.457,34.858h-0.801c-0.041-0.162-0.146-0.242-0.33-0.242c-0.092,0-0.172,0.021-0.229,0.074
		c-0.059,0.053-0.088,0.121-0.088,0.207c0,0.082,0.035,0.146,0.094,0.189c0.059,0.045,0.168,0.092,0.316,0.133l0.039,0.014h0.02
		c0.381,0.107,0.656,0.24,0.822,0.402c0.168,0.16,0.256,0.369,0.256,0.635c0,0.219-0.059,0.42-0.168,0.6
		c-0.115,0.186-0.266,0.328-0.463,0.438c-0.188,0.104-0.4,0.155-0.627,0.155c-0.168,0-0.322-0.028-0.473-0.086
		c-0.152-0.059-0.283-0.146-0.404-0.254c-0.098-0.1-0.18-0.221-0.248-0.363c-0.059-0.114-0.092-0.276-0.104-0.489h0.836
		c0.063,0.26,0.215,0.387,0.438,0.387c0.109,0,0.203-0.028,0.277-0.088c0.068-0.063,0.104-0.146,0.104-0.235
		c0-0.099-0.035-0.179-0.109-0.234c-0.074-0.063-0.213-0.129-0.404-0.197c-0.006,0-0.012,0-0.021,0
		c-0.004-0.006-0.012-0.006-0.012-0.006l-0.033-0.012l-0.146-0.047c-0.26-0.08-0.461-0.207-0.6-0.373
		c-0.146-0.168-0.213-0.363-0.213-0.594c0-0.19,0.051-0.369,0.148-0.537c0.104-0.162,0.242-0.289,0.42-0.388
		c0.174-0.092,0.369-0.139,0.57-0.139c0.215,0,0.398,0.041,0.566,0.133c0.166,0.088,0.299,0.213,0.395,0.369
		C107.387,34.472,107.445,34.655,107.457,34.858z M111.396,36.001h-2.664c0.057,0.148,0.121,0.265,0.188,0.34
		c0.188,0.213,0.436,0.316,0.729,0.316c0.174,0,0.328-0.035,0.479-0.1c0.1-0.047,0.191-0.109,0.277-0.195h0.91
		c-0.086,0.215-0.189,0.381-0.307,0.502c-0.174,0.186-0.381,0.334-0.623,0.438c-0.234,0.109-0.479,0.162-0.73,0.162
		c-0.322,0-0.623-0.08-0.898-0.242c-0.271-0.168-0.496-0.387-0.65-0.663c-0.168-0.281-0.242-0.582-0.242-0.904
		c0-0.334,0.08-0.646,0.242-0.928c0.162-0.283,0.381-0.509,0.656-0.671c0.275-0.166,0.582-0.247,0.91-0.247
		c0.313,0,0.605,0.081,0.877,0.241c0.275,0.162,0.49,0.381,0.65,0.658c0.162,0.271,0.242,0.564,0.242,0.883
		c0,0.063-0.012,0.172-0.033,0.334L111.396,36.001z M108.713,35.27h1.896c-0.059-0.146-0.121-0.261-0.201-0.336
		c-0.191-0.214-0.434-0.315-0.732-0.315c-0.314,0-0.574,0.114-0.777,0.346C108.824,35.05,108.76,35.148,108.713,35.27z
		 M111.648,37.35l1.223-1.771l-1.072-1.66h0.965l0.6,0.939l0.582-0.939h0.957l-1.055,1.66l1.223,1.771h-1.016l-0.691-1.104
		l-0.697,1.104H111.648z M115.771,38.503l0.635-1.477l-1.252-3.107h0.928l0.791,2.195l0.824-2.195h0.934l-1.971,4.584H115.771z
		 M124.326,37.35v-3.431h0.756v0.312c0.168-0.281,0.467-0.42,0.898-0.42c0.408,0,0.727,0.161,0.963,0.483l0.018,0.021l0.023,0.02
		c0.066-0.104,0.168-0.203,0.275-0.276c0.115-0.082,0.242-0.146,0.387-0.187c0.145-0.045,0.289-0.063,0.443-0.063
		c0.434,0,0.771,0.139,1.025,0.42c0.133,0.15,0.229,0.313,0.283,0.484c0.051,0.172,0.074,0.408,0.074,0.709v1.926h-0.824v-1.826
		c0-0.316-0.039-0.537-0.127-0.658c-0.053-0.074-0.121-0.139-0.213-0.186c-0.094-0.047-0.195-0.063-0.307-0.063
		c-0.248,0-0.438,0.098-0.564,0.295c-0.053,0.086-0.08,0.184-0.1,0.286c-0.018,0.108-0.027,0.283-0.027,0.521v1.633h-0.824v-1.828
		c0-0.293-0.047-0.502-0.133-0.629c-0.127-0.186-0.313-0.275-0.555-0.275c-0.186,0-0.326,0.053-0.432,0.154
		c-0.088,0.082-0.139,0.189-0.174,0.336c-0.035,0.139-0.053,0.346-0.053,0.609v1.633h-0.816V37.35H124.326z M131.816,33.811
		c0.34,0,0.645,0.08,0.928,0.241c0.283,0.16,0.502,0.382,0.662,0.662c0.162,0.283,0.242,0.588,0.242,0.924
		c0,0.334-0.08,0.64-0.242,0.916c-0.166,0.283-0.385,0.502-0.668,0.668c-0.277,0.162-0.582,0.242-0.916,0.242
		c-0.33,0-0.629-0.08-0.912-0.248c-0.275-0.159-0.502-0.385-0.662-0.668C130.08,36.271,130,35.96,130,35.632
		c0-0.33,0.08-0.629,0.248-0.912c0.16-0.274,0.387-0.5,0.662-0.661C131.193,33.891,131.492,33.811,131.816,33.811z M131.816,34.616
		c-0.188,0.006-0.354,0.053-0.502,0.145c-0.15,0.093-0.271,0.22-0.357,0.369c-0.086,0.148-0.133,0.322-0.133,0.502
		c0,0.293,0.098,0.535,0.289,0.73c0.195,0.195,0.432,0.295,0.709,0.295c0.188,0,0.355-0.047,0.512-0.133
		c0.156-0.088,0.277-0.209,0.363-0.363c0.088-0.154,0.133-0.328,0.133-0.514s-0.045-0.357-0.139-0.52
		c-0.086-0.154-0.207-0.283-0.363-0.375c-0.146-0.092-0.311-0.14-0.482-0.14h-0.029V34.616L131.816,34.616z M134.156,37.35v-3.431
		h0.75v0.312c0.109-0.153,0.219-0.265,0.328-0.328c0.107-0.063,0.248-0.092,0.422-0.092h0.063v0.795
		c-0.168,0.013-0.307,0.047-0.416,0.108c-0.107,0.054-0.193,0.14-0.26,0.267c-0.045,0.099-0.063,0.271-0.063,0.521v1.852h-0.824
		V37.35L134.156,37.35z M139.529,36.001h-2.668c0.057,0.148,0.121,0.265,0.195,0.34c0.186,0.213,0.426,0.316,0.727,0.316
		c0.174,0,0.328-0.035,0.473-0.1c0.1-0.047,0.195-0.109,0.283-0.195h0.91c-0.092,0.215-0.189,0.381-0.305,0.502
		c-0.182,0.186-0.389,0.334-0.623,0.438c-0.236,0.109-0.484,0.162-0.732,0.162c-0.322,0-0.623-0.08-0.898-0.242
		c-0.275-0.168-0.494-0.387-0.656-0.663c-0.162-0.281-0.242-0.582-0.242-0.904c0-0.334,0.08-0.646,0.242-0.928
		c0.168-0.283,0.387-0.509,0.662-0.671c0.275-0.166,0.584-0.247,0.904-0.247c0.316,0,0.611,0.081,0.883,0.241
		c0.271,0.162,0.488,0.381,0.65,0.658c0.162,0.271,0.242,0.564,0.242,0.883c0,0.063-0.012,0.172-0.035,0.334L139.529,36.001z
		 M136.85,35.27h1.893c-0.053-0.146-0.123-0.261-0.197-0.336c-0.188-0.214-0.438-0.315-0.736-0.315c-0.313,0-0.57,0.114-0.777,0.346
		C136.953,35.05,136.896,35.148,136.85,35.27z M144.332,36.235h0.924c-0.059,0.148-0.107,0.271-0.154,0.354
		c-0.041,0.08-0.105,0.166-0.182,0.254c-0.178,0.201-0.385,0.353-0.621,0.461c-0.234,0.109-0.482,0.16-0.742,0.16
		c-0.328,0-0.643-0.08-0.918-0.248c-0.281-0.16-0.508-0.385-0.676-0.668c-0.162-0.282-0.24-0.594-0.24-0.922s0.078-0.635,0.24-0.918
		c0.162-0.274,0.381-0.496,0.664-0.656c0.281-0.161,0.582-0.241,0.91-0.241c0.174,0,0.346,0.022,0.521,0.073
		c0.166,0.054,0.32,0.121,0.473,0.22c0.146,0.094,0.281,0.209,0.402,0.346c0.074,0.089,0.139,0.181,0.186,0.261
		c0.045,0.088,0.092,0.203,0.139,0.354h-0.924c-0.104-0.162-0.213-0.275-0.334-0.342c-0.121-0.068-0.275-0.104-0.455-0.104
		c-0.193,0-0.369,0.041-0.52,0.129c-0.148,0.086-0.268,0.207-0.354,0.355c-0.086,0.154-0.127,0.328-0.127,0.523
		c0,0.301,0.1,0.543,0.289,0.737c0.189,0.195,0.434,0.295,0.721,0.295C143.883,36.657,144.137,36.52,144.332,36.235z
		 M147.502,33.811c0.342,0,0.646,0.08,0.932,0.241c0.279,0.16,0.5,0.382,0.66,0.662c0.162,0.283,0.242,0.588,0.242,0.924
		c0,0.334-0.08,0.64-0.242,0.916c-0.166,0.283-0.387,0.502-0.668,0.668c-0.275,0.162-0.582,0.242-0.918,0.242
		c-0.326,0-0.627-0.08-0.91-0.248c-0.275-0.159-0.502-0.385-0.662-0.668c-0.166-0.276-0.246-0.588-0.246-0.916
		c0-0.33,0.08-0.629,0.246-0.912c0.162-0.274,0.387-0.5,0.662-0.661C146.881,33.891,147.182,33.811,147.502,33.811z M147.502,34.616
		c-0.184,0.006-0.352,0.053-0.5,0.145c-0.148,0.093-0.271,0.22-0.355,0.369c-0.088,0.148-0.135,0.322-0.135,0.502
		c0,0.293,0.1,0.535,0.287,0.73c0.197,0.195,0.436,0.295,0.709,0.295c0.191,0,0.357-0.047,0.516-0.133
		c0.154-0.088,0.275-0.209,0.361-0.363c0.088-0.154,0.135-0.328,0.135-0.514s-0.047-0.357-0.141-0.52
		c-0.086-0.154-0.207-0.283-0.361-0.375c-0.15-0.092-0.313-0.14-0.484-0.14h-0.029v0.003H147.502z M149.844,37.35v-3.431h0.764
		v0.312c0.113-0.134,0.234-0.229,0.354-0.293c0.188-0.086,0.381-0.127,0.584-0.127c0.402,0,0.748,0.155,1.031,0.474
		c0.029,0.028,0.047,0.047,0.047,0.047c0.104,0.145,0.172,0.305,0.213,0.483s0.059,0.433,0.059,0.76v1.775h-0.824V35.73
		c0-0.403-0.045-0.681-0.139-0.83c-0.059-0.086-0.133-0.149-0.236-0.207c-0.098-0.054-0.207-0.075-0.316-0.075
		c-0.113,0-0.225,0.021-0.328,0.079c-0.107,0.06-0.189,0.134-0.24,0.228c-0.055,0.08-0.094,0.186-0.109,0.307
		c-0.023,0.119-0.029,0.311-0.029,0.568v1.553h-0.826V37.35H149.844z M153.574,37.35v-2.703h-0.287v-0.728h0.287
		c0.023-0.229,0.063-0.422,0.127-0.561s0.139-0.26,0.236-0.355c0.098-0.104,0.213-0.18,0.334-0.235
		c0.127-0.054,0.254-0.082,0.387-0.082h0.041l0.225,0.012v0.818c-0.145,0-0.248,0.012-0.314,0.028
		c-0.07,0.021-0.115,0.06-0.146,0.115c-0.027,0.059-0.047,0.145-0.059,0.26h0.473v0.728h-0.473v2.703H153.574z M155.293,37.35
		v-3.431h0.824v3.431H155.293z M155.293,33.521v-0.748h0.824v0.748H155.293z M160.252,32.714v4.636h-0.762v-0.462
		c-0.086,0.109-0.156,0.191-0.219,0.242c-0.061,0.06-0.141,0.109-0.236,0.162c-0.219,0.113-0.455,0.172-0.703,0.172
		c-0.307,0-0.59-0.08-0.848-0.248c-0.26-0.16-0.469-0.385-0.623-0.662c-0.15-0.282-0.23-0.588-0.23-0.916
		c0-0.329,0.08-0.635,0.236-0.918c0.154-0.28,0.363-0.5,0.635-0.668c0.266-0.161,0.555-0.241,0.863-0.241
		c0.209,0,0.41,0.041,0.611,0.127c0.148,0.067,0.295,0.178,0.441,0.334v-1.558H160.252z M159.475,35.648
		c0-0.146-0.023-0.283-0.076-0.403c-0.053-0.125-0.127-0.236-0.221-0.328c-0.092-0.099-0.193-0.166-0.32-0.226
		c-0.127-0.054-0.262-0.073-0.398-0.073c-0.18,0-0.34,0.045-0.496,0.139c-0.154,0.092-0.275,0.213-0.369,0.367
		c-0.092,0.155-0.133,0.323-0.133,0.502c0,0.19,0.041,0.362,0.133,0.52c0.09,0.156,0.207,0.281,0.363,0.375s0.322,0.139,0.508,0.139
		c0.18,0,0.348-0.045,0.502-0.139s0.281-0.213,0.375-0.375C159.434,35.987,159.475,35.821,159.475,35.648z M164.266,36.001h-2.672
		c0.059,0.148,0.121,0.265,0.189,0.34c0.191,0.213,0.434,0.316,0.732,0.316c0.168,0,0.326-0.035,0.473-0.1
		c0.098-0.047,0.189-0.109,0.283-0.195h0.91c-0.094,0.215-0.189,0.381-0.307,0.502c-0.18,0.186-0.387,0.334-0.623,0.438
		c-0.234,0.109-0.482,0.162-0.73,0.162c-0.322,0-0.623-0.08-0.898-0.242c-0.275-0.168-0.496-0.387-0.658-0.663
		c-0.16-0.281-0.24-0.582-0.24-0.904c0-0.334,0.08-0.646,0.24-0.928c0.168-0.283,0.389-0.509,0.664-0.671
		c0.275-0.166,0.576-0.247,0.904-0.247c0.316,0,0.611,0.081,0.883,0.241c0.271,0.162,0.49,0.381,0.65,0.658
		c0.162,0.271,0.242,0.564,0.242,0.883c0,0.063-0.014,0.172-0.035,0.334L164.266,36.001z M161.582,35.27h1.895
		c-0.055-0.146-0.121-0.261-0.197-0.336c-0.195-0.214-0.438-0.315-0.738-0.315c-0.311,0-0.568,0.114-0.777,0.346
		C161.688,35.05,161.629,35.148,161.582,35.27z M164.846,37.35v-3.431h0.762v0.312c0.107-0.134,0.229-0.229,0.355-0.293
		c0.182-0.086,0.375-0.127,0.584-0.127c0.402,0,0.742,0.155,1.031,0.474c0.023,0.028,0.041,0.047,0.041,0.047
		c0.104,0.145,0.178,0.305,0.213,0.483c0.039,0.179,0.059,0.433,0.059,0.76v1.775h-0.824V35.73c0-0.403-0.045-0.681-0.141-0.83
		c-0.051-0.086-0.133-0.149-0.229-0.207c-0.104-0.054-0.207-0.075-0.316-0.075c-0.121,0-0.229,0.021-0.334,0.079
		c-0.104,0.06-0.186,0.134-0.242,0.228c-0.053,0.08-0.088,0.186-0.107,0.307c-0.02,0.119-0.029,0.311-0.029,0.568v1.553h-0.82V37.35
		H164.846z M168.68,37.35v-2.703h-0.402v-0.728h0.402v-1.151h0.824v1.151H170v0.728h-0.496v2.703H168.68z M22.515,23.749H10.511
		C3.506,23.749,0,20.853,0,15.065v-6.07c0-2.271,0.889-4.221,2.676-5.834c1.955-1.777,4.531-2.664,7.736-2.664h10.313
		c3.373,0,6.002,0.807,7.888,2.426c1.752,1.494,2.629,3.396,2.629,5.697v3.735H3.568v2.243c0,2.236,0.646,3.892,1.938,4.947
		c1.117,0.935,2.744,1.4,4.859,1.4h11.651c1.886,0,3.298-0.396,4.244-1.188c0.938-0.795,1.413-1.799,1.413-3.016v-0.467h3.568v0.467
		c0,1.776-0.61,3.305-1.834,4.578C27.854,22.94,25.559,23.749,22.515,23.749z M60.803,0.589L49.693,20.013h-0.744L37.84,0.589
		h-3.969l13.537,23.066h3.824L64.769,0.589H60.803z M66.955,9.554c0-2.801,0.808-4.963,2.428-6.491
		c1.82-1.707,4.583-2.565,8.283-2.565h9.82c3.805,0,6.594,0.905,8.383,2.711c1.551,1.557,2.328,3.672,2.328,6.348V14.6
		c0,2.675-0.789,4.809-2.381,6.394c-1.854,1.84-4.629,2.756-8.33,2.756h-9.82c-3.604,0-6.289-0.771-8.061-2.313
		c-1.771-1.54-2.652-3.823-2.652-6.837v-2.525L66.955,9.554L66.955,9.554z M70.523,14.599c0,4.232,2.463,6.348,7.391,6.348h9.324
		c2.314,0,4.127-0.52,5.43-1.563c1.311-1.043,1.961-2.641,1.961-4.787V9.554c0-2.024-0.641-3.569-1.908-4.647
		c-1.273-1.071-3.102-1.608-5.48-1.608h-9.324c-2.479,0-4.329,0.496-5.557,1.494c-1.224,0.998-1.834,2.582-1.834,4.762
		L70.523,14.599L70.523,14.599z M113.973,0.589h9.42c3.771,0,6.566,0.951,8.385,2.848c1.557,1.62,2.328,3.875,2.328,6.77v13.402
		h-3.568V9.737c0-1.988-0.646-3.546-1.938-4.665c-1.285-1.124-3.021-1.685-5.207-1.685h-9.42c-2.115,0-3.834,0.561-5.16,1.685
		c-1.32,1.119-1.982,2.675-1.982,4.665v13.871h-3.57V0.587h3.57v3.736c0.396-0.842,0.813-1.464,1.238-1.867
		C109.422,1.212,111.391,0.589,113.973,0.589z M139.363,14.968c0-1.649,0.594-2.94,1.793-3.875c1.326-1.026,3.279-1.539,5.869-1.539
		h14.344c1.725,0,2.98,0.293,3.783,0.888c0.264,0.185,0.496,0.496,0.697,0.935V8.198c0-1.4-0.449-2.52-1.352-3.361
		c-1.055-0.963-2.604-1.446-4.629-1.446h-9.52c-2.525,0-4.303,0.502-5.332,1.493c-0.336,0.312-0.584,0.813-0.744,1.494V7.22H140.6
		V6.378c-0.361-1.338,0.361-2.676,2.186-4.014c1.586-1.182,3.801-1.775,6.643-1.775h10.766c3.205,0,5.568,0.715,7.092,2.149
		c1.424,1.339,2.133,3.327,2.133,5.974v14.943h-3.566v-1.867c-0.398,0.432-0.744,0.742-1.043,0.934
		c-0.957,0.623-2.064,0.935-3.322,0.935h-13.891c-2.709,0-4.762-0.479-6.15-1.424c-1.383-0.951-2.08-2.438-2.08-4.462
		L139.363,14.968L139.363,14.968z M148.316,12.356c-2.156,0-3.6,0.26-4.309,0.773c-0.721,0.513-1.076,1.377-1.076,2.588v1.684
		c0,1.119,0.352,1.926,1.055,2.428c0.857,0.623,2.307,0.934,4.33,0.934h12.146c3.592,0,5.385-1.401,5.385-4.203
		c0-1.43-0.447-2.491-1.35-3.178c-0.893-0.686-2.236-1.025-4.035-1.025H148.316z"/>
</g>
</svg>
