<?xml version="1.0" encoding="utf-8"?>
<!-- Generator: Adobe Illustrator 16.0.0, SVG Export Plug-In . SVG Version: 6.00 Build 0)  -->
<!DOCTYPE svg PUBLIC "-//W3C//DTD SVG 1.1//EN" "http://www.w3.org/Graphics/SVG/1.1/DTD/svg11.dtd">
<svg version="1.1" id="instagram-svg" xmlns="http://www.w3.org/2000/svg" xmlns:xlink="http://www.w3.org/1999/xlink" x="0px" y="0px"
	 width="54px" height="54px" viewBox="1.346 1.346 54 54" enable-background="new 1.346 1.346 54 54" xml:space="preserve">
<g>
	<circle fill="#252229" cx="28.346" cy="28.346" r="27"/>
	<path id="instagram" fill="#BF9138" d="M36.47,16.277H19.907c-2.879,0-5.219,2.341-5.219,5.217v5.512v11.053c0,2.877,2.341,5.218,5.219,5.218
		h16.564c2.878,0,5.218-2.341,5.218-5.218V27.006v-5.512C41.689,18.617,39.348,16.277,36.47,16.277z M37.968,19.388l0.597-0.001
		v0.594v3.983l-4.563,0.014l-0.016-4.574L37.968,19.388z M24.335,27.006c0.866-1.196,2.268-1.98,3.854-1.98
		c1.586,0,2.989,0.782,3.852,1.98c0.563,0.781,0.902,1.736,0.902,2.771c0,2.62-2.133,4.755-4.754,4.755s-4.752-2.134-4.752-4.755
		C23.438,28.742,23.773,27.787,24.335,27.006z M39.058,38.059c0,1.428-1.16,2.587-2.588,2.587H19.907
		c-1.429,0-2.589-1.159-2.589-2.587V27.006h4.031c-0.348,0.856-0.542,1.791-0.542,2.771c0,4.07,3.309,7.384,7.383,7.384
		c4.074,0,7.384-3.313,7.384-7.384c0-0.98-0.196-1.915-0.544-2.771h4.03v11.053H39.058z"/>
</g>
</svg>
